<?xml version="1.0" encoding="UTF-8" standalone="no"?>
<svg
   xmlns:dc="http://purl.org/dc/elements/1.1/"
   xmlns:cc="http://creativecommons.org/ns#"
   xmlns:rdf="http://www.w3.org/1999/02/22-rdf-syntax-ns#"
   xmlns:svg="http://www.w3.org/2000/svg"
   xmlns="http://www.w3.org/2000/svg"
   xmlns:xlink="http://www.w3.org/1999/xlink"
   xmlns:sodipodi="http://sodipodi.sourceforge.net/DTD/sodipodi-0.dtd"
   xmlns:inkscape="http://www.inkscape.org/namespaces/inkscape"
   width="420mm"
   height="297mm"
   viewBox="0 0 420 297"
   version="1.1"
   id="svg129"
   inkscape:version="1.0alpha2 (a9c687c386, 2019-06-26)"
   sodipodi:docname="drawing1.svg">
  <defs
     id="defs123">
    <linearGradient
       inkscape:collect="always"
       id="linearGradient1605">
      <stop
         style="stop-color:#e40303;stop-opacity:1"
         offset="0"
         id="stop1601" />
      <stop
         id="stop1609"
         offset="0.2"
         style="stop-color:#ff8c00;stop-opacity:1" />
      <stop
         style="stop-color:#ffed00;stop-opacity:1"
         offset="0.40000001"
         id="stop1611" />
      <stop
         id="stop1613"
         offset="0.60000002"
         style="stop-color:#008026;stop-opacity:1" />
      <stop
         style="stop-color:#004dff;stop-opacity:1"
         offset="0.80000001"
         id="stop1615" />
      <stop
         style="stop-color:#750787;stop-opacity:1"
         offset="1"
         id="stop1603" />
    </linearGradient>
    <linearGradient
       y2="147.41072"
       x2="161.72324"
       y1="147.41072"
       x1="125.6903"
       gradientTransform="matrix(0,4.4520364,-4.4520364,0,771.85674,-492.82755)"
       gradientUnits="userSpaceOnUse"
       id="linearGradient2240"
       xlink:href="#linearGradient1605"
       inkscape:collect="always" />
  </defs>
  <sodipodi:namedview
     id="base"
     pagecolor="#333333"
     bordercolor="#666666"
     borderopacity="1.0"
     inkscape:pageopacity="0.85490196"
     inkscape:pageshadow="2"
     inkscape:zoom="0.29624716"
     inkscape:cx="871.71737"
     inkscape:cy="692.89676"
     inkscape:document-units="mm"
     inkscape:current-layer="svg129"
     inkscape:document-rotation="0"
     showgrid="false"
     inkscape:pagecheckerboard="true"
     inkscape:window-width="1280"
     inkscape:window-height="696"
     inkscape:window-x="0"
     inkscape:window-y="0"
     inkscape:window-maximized="1" />
  <metadata
     id="metadata126">
    <rdf:RDF>
      <cc:Work
         rdf:about="">
        <dc:format>image/svg+xml</dc:format>
        <dc:type
           rdf:resource="http://purl.org/dc/dcmitype/StillImage" />
        <dc:title></dc:title>
      </cc:Work>
    </rdf:RDF>
  </metadata>
  <rect
     y="-4.4408921e-16"
     x="0"
     height="297"
     width="420"
     id="rect3059"
     style="fill:#333333;fill-opacity:1;stroke-width:0.264153" />
  <g
     inkscape:label="Layer 1"
     inkscape:groupmode="layer"
     id="layer1" />
  <g
     transform="translate(10.660876,0.3618285)"
     id="g2425">
    <path
       d="m 115.56103,50.259143 c -8.71303,21.362032 -13.96831,35.335325 -23.669124,56.062347 5.947792,6.30468 13.248464,13.64681 25.104734,21.93903 -12.74663,-5.24515 -21.441416,-10.51117 -27.939161,-15.97572 -12.415177,25.90621 -31.866217,62.80844 -71.33868,133.7324 31.024018,-17.91073 55.073288,-28.95285 77.486048,-33.16624 -0.962449,-4.13935 -1.509605,-8.61679 -1.472425,-13.28858 l 0.03562,-0.99389 c 0.492261,-19.87624 10.831918,-35.1611 23.080168,-34.12328 12.2483,1.0378 21.76876,18.00167 21.27646,37.87797 -0.0926,3.74007 -0.51444,7.33799 -1.25156,10.675 22.16945,4.33672 45.96152,15.35064 76.56574,33.01902 -6.03455,-11.11007 -11.42089,-21.12497 -16.56468,-30.66315 -8.10231,-6.27981 -16.55341,-14.45299 -33.79202,-23.301 11.84882,3.07885 20.33243,6.63099 26.94525,10.60141 C 137.72899,105.28422 133.49395,92.345721 115.55969,50.259143 Z"
       id="path1635"
       style="opacity:1;fill:url(#linearGradient2240);fill-opacity:1;fill-rule:evenodd;stroke:none;stroke-width:1.17793;stop-opacity:1"
       inkscape:connector-curvature="0" />
    <g
       style="opacity:1;fill:#ffffff;fill-opacity:1;stop-opacity:1"
       id="g2809"
       transform="matrix(0.36784135,0,0,0.36784135,8.9278128,34.806805)" />
    <g
       style="font-style:normal;font-weight:normal;font-size:8.44138px;font-family:'DejaVu Sans Mono';opacity:1;fill:#ffffff;fill-opacity:1;stroke:none;stop-opacity:1"
       id="text2634"
       transform="matrix(0.52282344,0,0,0.52282344,44.907377,51.342227)" />
    <g
       style="font-style:normal;font-weight:normal;font-size:8.2513px;font-family:'DejaVu Sans Mono';opacity:1;fill:#ffffff;fill-opacity:1;stroke:none;stop-opacity:1"
       id="text2638"
       transform="matrix(0.57668165,0,0,0.57668165,-12.113272,33.554604)" />
    <g
       id="g2404"
       transform="matrix(1.3322155,0,0,1.3322155,-10.692235,-77.988031)">
      <flowRoot
         transform="matrix(1.3912921,0,0,1.3912921,88.395097,-1058.3457)"
         style="font-size:40px;font-family:sans-serif;word-spacing:0px;opacity:1;fill:#ffffff;stop-opacity:1"
         id="flowRoot848"
         xml:space="preserve"><flowRegion
           style="fill:#ffffff"
           id="flowRegion850"><rect
             style="fill:#ffffff;"
             y="824.86609"
             x="75.066963"
             height="226.20535"
             width="741.12726"
             id="rect852" /></flowRegion><flowPara
           style="font-style:normal;font-variant:normal;font-weight:normal;font-stretch:normal;font-family:KaratMedium;-inkscape-font-specification:KaratMedium;fill:#ffffff"
           id="flowPara854">gay</flowPara></flowRoot>      <g
         transform="translate(12.963684)"
         id="g2381">
        <path
           style="opacity:1;fill:#ffffff;fill-opacity:1;fill-rule:evenodd;stroke:none;stroke-width:0.333487;stop-opacity:1"
           id="path2284"
           d="m 177.35867,155.55636 c -4.82604,-0.008 -8.83115,0.98167 -10.3798,1.52153 l -1.59448,8.60815 c -0.004,0.0317 7.93547,-2.11716 11.43236,-1.9905 5.78987,0.20803 6.32275,2.21282 6.22162,4.91894 0.0987,0.15827 -1.49379,-2.44511 -6.503,-2.53243 -6.31946,-0.10901 -15.23799,2.23753 -15.22578,11.77628 -0.17037,10.72966 8.0149,13.88602 13.58961,13.94394 5.01172,-0.0913 7.36263,-1.89799 8.64983,-2.8659 1.69119,-1.76828 3.62604,-3.54647 5.47127,-5.67971 -1.74602,3.17239 -3.25974,5.36574 -4.83556,7.04492 v 1.41732 l 7.6181,-1.28185 0.0521,-20.70747 c -0.0772,-2.93083 1.68118,-14.14597 -14.49629,-14.17322 z m -1.09426,18.02916 c 3.15776,0.0433 6.7791,1.59976 6.78439,5.34622 0.0163,3.40765 -4.26866,5.2397 -7.05535,5.21074 -2.78787,-0.0289 -6.48663,-2.19095 -6.503,-5.51296 0.0534,-2.96952 3.48812,-5.12043 6.77396,-5.044 z"
           inkscape:connector-curvature="0" />
        <path
           style="opacity:1;fill:#ffffff;fill-opacity:1;fill-rule:evenodd;stroke:none;stroke-width:0.333487;stop-opacity:1"
           id="path2286"
           d="m 196.87846,157.46981 -0.0517,34.29149 8.87481,-1.70987 0.015,-19.44284 c 0.002,-2.89497 4.13709,-6.27774 9.32521,-6.22384 1.10119,-1.99228 3.17103,-7.084 3.67532,-8.24219 -11.59085,-0.0277 -11.7384,3.33152 -13.75434,4.98403 -0.021,-3.1524 -0.007,-5.0448 -0.007,-5.0448 l -8.07713,1.38802 z"
           inkscape:connector-curvature="0" />
        <path
           style="opacity:1;fill:#ffffff;fill-opacity:1;fill-rule:evenodd;stroke:none;stroke-width:0.333487;stop-opacity:1"
           id="path2288"
           d="m 246.82411,161.9716 c -0.0857,-0.0402 -4.6286,-5.31385 -13.76182,-5.35544 -8.55477,-0.1422 -18.15031,3.17445 -18.30389,17.51903 0.0749,12.61199 9.21766,17.5408 18.35228,17.6369 9.77549,0.10155 13.66516,-6.11264 13.89847,-6.26664 -1.16641,-1.01117 -5.5352,-5.34017 -5.5352,-5.34017 0,0 -2.72871,3.88547 -8.02304,3.93487 -5.29559,0.0504 -9.89872,-4.09298 -9.96395,-9.87426 -0.0679,-5.78131 4.23155,-8.91352 10.0037,-9.16652 4.99719,-9e-4 7.8802,3.22594 7.8802,3.22594 z"
           inkscape:connector-curvature="0" />
        <path
           style="opacity:1;fill:#ffffff;fill-opacity:1;fill-rule:evenodd;stroke:none;stroke-width:0.333487;stop-opacity:1"
           id="path2290"
           d="m 258.01051,145.46837 -8.37886,1.96965 0.0625,44.66647 8.25381,-1.49027 0.0938,-21.02013 c 0.0177,-2.2041 3.18856,-5.58896 8.48308,-5.48169 5.06225,0.0526 6.19365,3.37411 6.17994,3.79341 l 0.1459,24.33417 8.13918,-1.43817 0.0313,-25.80359 c 0.0536,-2.48295 -5.43863,-7.72675 -14.26702,-7.764 -4.19556,0.006 -6.51905,0.95652 -7.70147,1.65701 -2.02312,1.56261 -4.33527,3.05989 -6.60722,4.97105 2.10034,-2.69824 3.86362,-4.56383 5.58591,-5.95067 l -0.0208,-12.44324 z"
           inkscape:connector-curvature="0" />
      </g>
      <flowRoot
         xml:space="preserve"
         id="flowRoot2389"
         style="font-size:40px;font-family:sans-serif;word-spacing:0px;opacity:1;fill:#ffffff;stop-opacity:1"
         transform="matrix(1.3912921,0,0,1.3912921,76.653896,-970.24838)"><flowRegion
           id="flowRegion2385"
           style="fill:#ffffff"><rect
             id="rect2383"
             width="741.12726"
             height="226.20535"
             x="75.066963"
             y="824.86609"
             style="fill:#ffffff;" /></flowRegion><flowPara
           id="flowPara2387"
           style="font-style:normal;font-variant:normal;font-weight:normal;font-stretch:normal;font-family:KaratMedium;-inkscape-font-specification:KaratMedium;fill:#ffffff">user</flowPara></flowRoot>    </g>
  </g>
</svg>
