<?xml version="1.0" encoding="UTF-8" standalone="no"?>
<svg
   xmlns:dc="http://purl.org/dc/elements/1.1/"
   xmlns:cc="http://creativecommons.org/ns#"
   xmlns:rdf="http://www.w3.org/1999/02/22-rdf-syntax-ns#"
   xmlns:svg="http://www.w3.org/2000/svg"
   xmlns="http://www.w3.org/2000/svg"
   xmlns:xlink="http://www.w3.org/1999/xlink"
   xmlns:sodipodi="http://sodipodi.sourceforge.net/DTD/sodipodi-0.dtd"
   xmlns:inkscape="http://www.inkscape.org/namespaces/inkscape"
   width="512"
   height="512"
   viewBox="0 0 135.46666 135.46667"
   version="1.1"
   id="svg186"
   inkscape:version="1.0beta0 (0a78936f89, 2019-09-11)"
   sodipodi:docname="archrainbow.svg"
   inkscape:export-filename="/home/depau/Beans/btw-i-use-arch-milanopride2019/stickerpack/archrainbow.png"
   inkscape:export-xdpi="96"
   inkscape:export-ydpi="96">
  <defs
     id="defs180">
    <linearGradient
       inkscape:collect="always"
       xlink:href="#linearGradient1605"
       id="linearGradient2240"
       gradientUnits="userSpaceOnUse"
       gradientTransform="matrix(0,2.7862916,-2.7862916,0,479.52035,-333.22171)"
       x1="125.6903"
       y1="147.41072"
       x2="161.72324"
       y2="147.41072" />
    <linearGradient
       id="linearGradient1605"
       inkscape:collect="always">
      <stop
         id="stop1601"
         offset="0"
         style="stop-color:#e40303;stop-opacity:1" />
      <stop
         style="stop-color:#ff8c00;stop-opacity:1"
         offset="0.2"
         id="stop1609" />
      <stop
         id="stop1611"
         offset="0.40000001"
         style="stop-color:#ffed00;stop-opacity:1" />
      <stop
         style="stop-color:#008026;stop-opacity:1"
         offset="0.60000002"
         id="stop1613" />
      <stop
         id="stop1615"
         offset="0.80000001"
         style="stop-color:#004dff;stop-opacity:1" />
      <stop
         id="stop1603"
         offset="1"
         style="stop-color:#750787;stop-opacity:1" />
    </linearGradient>
    <filter
       height="1.1059137"
       y="-0.052956863"
       width="1.1059343"
       x="-0.052967149"
       id="filter2338"
       style="color-interpolation-filters:sRGB"
       inkscape:collect="always">
      <feGaussianBlur
         id="feGaussianBlur2340"
         stdDeviation="2.8750214"
         inkscape:collect="always" />
    </filter>
  </defs>
  <sodipodi:namedview
     id="base"
     pagecolor="#ffffff"
     bordercolor="#666666"
     borderopacity="1.0"
     inkscape:pageopacity="0.0"
     inkscape:pageshadow="2"
     inkscape:zoom="0.47439577"
     inkscape:cx="-36.047852"
     inkscape:cy="170.82215"
     inkscape:document-units="mm"
     inkscape:current-layer="layer1"
     inkscape:document-rotation="0"
     showgrid="false"
     units="px"
     inkscape:window-width="1280"
     inkscape:window-height="670"
     inkscape:window-x="0"
     inkscape:window-y="0"
     inkscape:window-maximized="1" />
  <metadata
     id="metadata183">
    <rdf:RDF>
      <cc:Work
         rdf:about="">
        <dc:format>image/svg+xml</dc:format>
        <dc:type
           rdf:resource="http://purl.org/dc/dcmitype/StillImage" />
        <dc:title />
      </cc:Work>
    </rdf:RDF>
  </metadata>
  <g
     inkscape:label="Layer 1"
     inkscape:groupmode="layer"
     id="layer1">
    <path
       transform="matrix(0.94028043,0,0,0.94028043,5.0738502,5.0222664)"
       d="M 67.752221,1.7494218 C 61.952872,15.967897 58.45498,25.268461 51.998157,39.064275 55.95698,43.260644 60.816282,48.147534 68.707763,53.666799 60.223662,50.17565 54.436448,46.67061 50.111574,43.03343 41.848089,60.27649 28.901561,84.838451 2.628864,132.04512 c 20.64945,-11.9213 36.656539,-19.27089 51.574372,-22.0753 -0.640603,-2.75513 -1.004783,-5.7353 -0.980037,-8.84483 l 0.0237,-0.66152 c 0.327645,-13.229536 7.209678,-23.403069 15.362061,-22.7123 8.152408,0.690755 14.489184,11.98183 14.161511,25.21141 -0.06164,2.48936 -0.342409,4.88413 -0.833033,7.10523 14.755885,2.88649 30.591782,10.21732 50.961822,21.97731 -4.01657,-7.39482 -7.6017,-14.06069 -11.02539,-20.40926 -5.39286,-4.17981 -11.01786,-9.61984 -22.491807,-15.509031 7.886517,2.04926 13.533177,4.413551 17.934637,7.056241 C 82.507119,38.373872 79.688294,29.762064 67.751336,1.7494218 Z"
       id="path1767"
       style="opacity:1;fill:#000000;fill-opacity:1;fill-rule:evenodd;stroke:#ffffff;stroke-width:1.99678;stroke-miterlimit:4;stroke-dasharray:none;stroke-opacity:1;filter:url(#filter2338);stop-opacity:1"
       inkscape:connector-curvature="0" />
    <path
       inkscape:connector-curvature="0"
       style="opacity:1;fill:url(#linearGradient2240);fill-opacity:1;fill-rule:evenodd;stroke:#ffffff;stroke-width:1.87754;stroke-miterlimit:4;stroke-dasharray:none;stroke-opacity:1;stop-opacity:1"
       id="path1635"
       d="M 68.779938,6.6672135 C 63.326923,20.036568 60.037924,28.781706 53.966699,41.75364 57.689104,45.699404 62.25821,50.29445 69.678415,55.484108 61.700981,52.201448 56.259377,48.905728 52.192782,45.485758 44.422789,61.69907 32.249422,84.794201 7.5457195,129.18171 26.961993,117.97234 42.013146,111.06167 56.040092,108.42474 c -0.602347,-2.5906 -0.944778,-5.39279 -0.921509,-8.31662 l 0.02229,-0.622019 c 0.308078,-12.439473 6.77912,-22.005448 14.444645,-21.355932 7.665551,0.649505 13.623896,11.266281 13.315792,23.705791 -0.05796,2.34071 -0.32196,4.59246 -0.783285,6.68091 13.87467,2.71412 28.764855,9.60715 47.918395,20.66484 -3.7767,-6.9532 -7.14772,-13.22099 -10.36695,-19.19043 -5.07081,-3.93019 -10.35989,-9.04535 -21.148605,-14.582838 7.415535,1.926879 12.724975,4.149976 16.863575,6.634848 C 82.653679,41.104468 80.003194,33.006953 68.779105,6.6672135 Z" />
  </g>
</svg>
