<?xml version="1.0" encoding="UTF-8" standalone="no"?>
<svg
   xmlns:dc="http://purl.org/dc/elements/1.1/"
   xmlns:cc="http://creativecommons.org/ns#"
   xmlns:rdf="http://www.w3.org/1999/02/22-rdf-syntax-ns#"
   xmlns:svg="http://www.w3.org/2000/svg"
   xmlns="http://www.w3.org/2000/svg"
   xmlns:xlink="http://www.w3.org/1999/xlink"
   xmlns:sodipodi="http://sodipodi.sourceforge.net/DTD/sodipodi-0.dtd"
   xmlns:inkscape="http://www.inkscape.org/namespaces/inkscape"
   inkscape:export-ydpi="96"
   inkscape:export-xdpi="96"
   inkscape:export-filename="/home/depau/Beans/btw-i-use-arch-milanopride2019/stickerpack/arch.png"
   inkscape:version="1.0beta0 (0a78936f89, 2019-09-11)"
   sodipodi:docname="arch.svg"
   id="svg2424"
   height="512"
   width="512"
   version="1.0">
  <metadata
     id="metadata147">
    <rdf:RDF>
      <cc:Work
         rdf:about="">
        <dc:format>image/svg+xml</dc:format>
        <dc:type
           rdf:resource="http://purl.org/dc/dcmitype/StillImage" />
        <dc:title></dc:title>
      </cc:Work>
    </rdf:RDF>
  </metadata>
  <sodipodi:namedview
     inkscape:current-layer="svg2424"
     inkscape:window-maximized="1"
     inkscape:window-y="0"
     inkscape:window-x="0"
     inkscape:cy="341.19142"
     inkscape:cx="-181.85945"
     inkscape:zoom="0.23095531"
     fit-margin-bottom="0"
     fit-margin-right="0"
     fit-margin-left="0"
     fit-margin-top="0"
     showgrid="false"
     id="namedview145"
     inkscape:window-height="696"
     inkscape:window-width="1280"
     inkscape:pageshadow="2"
     inkscape:pageopacity="0"
     guidetolerance="10"
     gridtolerance="10"
     objecttolerance="10"
     borderopacity="1"
     inkscape:document-rotation="0"
     bordercolor="#666666"
     pagecolor="#ffffff" />
  <defs
     id="defs2426">
    <linearGradient
       gradientTransform="translate(287,-83)"
       gradientUnits="userSpaceOnUse"
       id="path1082_2_"
       y2="129.3468"
       x2="112.49853"
       y1="6.1372099"
       x1="112.49854">
      <stop
         offset="0"
         style="stop-color:#ffffff;stop-opacity:0"
         id="stop193" />
      <stop
         offset="1"
         style="stop-color:#ffffff;stop-opacity:0.27450982"
         id="stop195" />
      <midPointStop
         id="midPointStop197"
         style="stop-color:#FFFFFF"
         offset="0" />
      <midPointStop
         id="midPointStop199"
         style="stop-color:#FFFFFF"
         offset="0.5" />
      <midPointStop
         id="midPointStop201"
         style="stop-color:#000000"
         offset="1" />
    </linearGradient>
    <linearGradient
       gradientTransform="matrix(-0.3937741,0,0,0.393752,357.51969,122.00151)"
       gradientUnits="userSpaceOnUse"
       xlink:href="#path1082_2_"
       id="linearGradient2544"
       y2="303.14029"
       x2="606.91248"
       y1="104.50665"
       x1="541.33502" />
    <linearGradient
       id="linearGradient3388">
      <stop
         offset="0"
         style="stop-color:#000000;stop-opacity:0"
         id="stop3390" />
      <stop
         offset="1"
         style="stop-color:#000000;stop-opacity:0.37113401"
         id="stop3392" />
    </linearGradient>
    <linearGradient
       gradientTransform="matrix(0.749107,0,0,0.749107,-35.459862,91.44108)"
       gradientUnits="userSpaceOnUse"
       xlink:href="#linearGradient3388"
       id="linearGradient4416"
       y2="183.9644"
       x2="490.72305"
       y1="237.72447"
       x1="490.72305" />
    <filter
       height="1.095991"
       y="-0.047995485"
       width="1.096009"
       x="-0.048004515"
       id="filter1054"
       style="color-interpolation-filters:sRGB"
       inkscape:collect="always">
      <feGaussianBlur
         id="feGaussianBlur1056"
         stdDeviation="3.3234375"
         inkscape:collect="always" />
    </filter>
  </defs>
  <path
     transform="matrix(2.8110243,0,0,2.8110243,-41.485428,-24.311834)"
     d="m 105.8125,16.624996 c -7.39687,18.135158 -11.858304,29.997682 -20.09375,47.59375 5.04936,5.35232 11.247211,11.585364 21.3125,18.625 C 96.210077,78.3909 88.828713,73.920348 83.3125,69.281246 72.7727,91.274159 56.259864,122.60209 22.75,182.8125 49.087628,167.60733 69.504089,158.23318 88.53125,154.65625 87.714216,151.1422 87.2497,147.34107 87.28125,143.375 l 0.03125,-0.84375 c 0.417917,-16.87382 9.195665,-29.84979 19.59375,-28.96875 10.39809,0.88104 18.48041,15.28242 18.0625,32.15625 -0.0786,3.17512 -0.43674,6.22955 -1.0625,9.0625 18.82058,3.68164 39.01873,13.03179 65,28.03125 -5.123,-9.4318 -9.69572,-17.93388 -14.0625,-26.03125 -6.87839,-5.33121 -14.05289,-12.2698 -28.6875,-19.78125 10.05899,2.61375 17.2611,5.62932 22.875,9 C 124.63297,63.338157 121.03766,52.354105 105.8125,16.624996 Z"
     id="path1024"
     style="opacity:1;fill:#000000;fill-opacity:1;fill-rule:evenodd;stroke:none;stroke-width:4;stroke-miterlimit:4;stroke-dasharray:none;stroke-opacity:1;filter:url(#filter1054);stop-opacity:1"
     inkscape:connector-curvature="0" />
  <path
     inkscape:connector-curvature="0"
     style="opacity:1;fill:#1793d1;fill-opacity:1;fill-rule:evenodd;stroke:#ffffff;stroke-width:11.2441;stroke-miterlimit:4;stroke-dasharray:none;stroke-opacity:1;stop-opacity:1"
     id="path2518"
     d="m 256.12905,22.206356 c -20.79278,50.978369 -33.33398,84.324204 -56.48402,133.787174 14.19388,15.04551 31.61619,32.56674 59.90996,52.35533 C 229.1364,195.8318 208.38721,183.26497 192.881,170.22435 163.25337,232.04696 116.83539,320.11054 22.638346,489.36346 c 74.035707,-42.7421 131.426884,-69.09307 184.912694,-79.1479 -2.29671,-9.87809 -3.60248,-20.56315 -3.51378,-31.71187 l 0.0879,-2.3718 c 1.17477,-47.43272 25.84924,-83.90848 55.07851,-81.43186 29.22928,2.47662 51.94888,42.95925 50.77412,90.392 -0.22094,8.92534 -1.22769,17.51142 -2.98671,25.47491 52.90511,10.34917 109.68259,36.63268 182.71658,78.79652 -14.40088,-26.51302 -27.25491,-50.41257 -39.53003,-73.17448 -19.33532,-14.98615 -39.50302,-34.49071 -80.64126,-55.60557 28.27606,7.34732 48.52138,15.82415 64.30218,25.29922 C 309.03384,153.51818 298.92735,122.64174 256.12905,22.206356 Z" />
</svg>
