<?xml version="1.0" encoding="UTF-8" standalone="no"?>
<svg
   xmlns:dc="http://purl.org/dc/elements/1.1/"
   xmlns:cc="http://creativecommons.org/ns#"
   xmlns:rdf="http://www.w3.org/1999/02/22-rdf-syntax-ns#"
   xmlns:svg="http://www.w3.org/2000/svg"
   xmlns="http://www.w3.org/2000/svg"
   xmlns:sodipodi="http://sodipodi.sourceforge.net/DTD/sodipodi-0.dtd"
   xmlns:inkscape="http://www.inkscape.org/namespaces/inkscape"
   width="125.32026mm"
   height="135.46666mm"
   viewBox="0 0 125.32026 135.46666"
   version="1.1"
   id="svg2525"
   inkscape:version="1.0beta0 (0a78936f89, 2019-09-11)"
   sodipodi:docname="btwiusearch.svg"
   inkscape:export-filename="/home/depau/Beans/btw-i-use-arch-milanopride2019/stickerpack/btwiusearch.png"
   inkscape:export-xdpi="96"
   inkscape:export-ydpi="96">
  <defs
     id="defs2519">
    <filter
       height="1.0920738"
       y="-0.046036895"
       width="1.100276"
       x="-0.050137982"
       id="filter1055"
       style="color-interpolation-filters:sRGB"
       inkscape:collect="always">
      <feGaussianBlur
         id="feGaussianBlur1057"
         stdDeviation="1.3412496"
         inkscape:collect="always" />
    </filter>
  </defs>
  <sodipodi:namedview
     id="base"
     pagecolor="#ffffff"
     bordercolor="#666666"
     borderopacity="1.0"
     inkscape:pageopacity="0.0"
     inkscape:pageshadow="2"
     inkscape:zoom="0.22722452"
     inkscape:cx="-60.129526"
     inkscape:cy="338.43451"
     inkscape:document-units="mm"
     inkscape:current-layer="layer1"
     inkscape:document-rotation="0"
     showgrid="false"
     fit-margin-top="0"
     fit-margin-left="0"
     fit-margin-right="0"
     fit-margin-bottom="0"
     inkscape:window-width="1280"
     inkscape:window-height="696"
     inkscape:window-x="0"
     inkscape:window-y="0"
     inkscape:window-maximized="1" />
  <metadata
     id="metadata2522">
    <rdf:RDF>
      <cc:Work
         rdf:about="">
        <dc:format>image/svg+xml</dc:format>
        <dc:type
           rdf:resource="http://purl.org/dc/dcmitype/StillImage" />
        <dc:title></dc:title>
      </cc:Work>
    </rdf:RDF>
  </metadata>
  <g
     inkscape:label="Layer 1"
     inkscape:groupmode="layer"
     id="layer1"
     transform="translate(-28.179121,11.060592)">
    <g
       transform="matrix(1.7740491,0,0,1.7740491,-21.812025,8.5614413)"
       style="opacity:0.722;fill:#000000;filter:url(#filter1055)"
       id="g206">
      <flowRoot
         transform="matrix(0.74614876,0,0,0.74614876,-19.153355,-629.95948)"
         style="font-size:40px;font-family:sans-serif;word-spacing:0px;opacity:1;fill:#000000;stop-opacity:1"
         id="flowRoot186"
         xml:space="preserve"><flowRegion
           style="fill:#000000"
           id="flowRegion182"><rect
             style="fill:#000000"
             y="824.86609"
             x="75.066963"
             height="226.20535"
             width="741.12726"
             id="rect180" /></flowRegion><flowPara
           style="font-style:normal;font-variant:normal;font-weight:normal;font-stretch:normal;font-family:KaratMedium;-inkscape-font-specification:KaratMedium;fill:#000000"
           id="flowPara184">btw</flowPara></flowRoot>      <g
         style="fill:#000000"
         transform="translate(42.396733,4.2447357e-6)"
         id="g196">
        <path
           style="opacity:1;fill:#000000;fill-opacity:1;fill-rule:evenodd;stroke:none;stroke-width:0.178849;stop-opacity:1"
           id="path188"
           d="m -2.3900996,42.407169 c -2.5881974,-0.0043 -4.7361364,0.526473 -5.5666755,0.815999 l -0.8551218,4.61654 c -0.00207,0.01701 4.2557891,-1.135432 6.1311676,-1.067505 3.10510142,0.111568 3.39088426,1.186736 3.33665187,2.638023 0.0529304,0.08488 -0.80112374,-1.311307 -3.48755567,-1.358135 -3.389119,-0.05846 -8.1721189,1.199982 -8.1655749,6.315606 -0.09137,5.754309 4.2983871,7.447061 7.2880969,7.478124 2.6877805,-0.04894 3.94857481,-1.017894 4.63889622,-1.536984 C 1.8367714,59.360515 2.8744247,58.406873 3.8640267,57.262815 2.9276323,58.964166 2.1158277,60.14046 1.270716,61.041 v 0.760109 l 4.0855821,-0.687451 0.027945,-11.105406 c -0.041387,-1.571795 0.901619,-7.586465 -7.7743427,-7.601083 z m -0.5868483,9.669025 c 1.6935016,0.02324 3.63562117,0.857953 3.6384595,2.867173 0.008764,1.827517 -2.2892763,2.810045 -3.7837744,2.794516 -1.4951348,-0.01552 -3.4787795,-1.175006 -3.4875557,-2.956598 0.028645,-1.59255 1.8706766,-2.74608 3.6328706,-2.705091 z"
           inkscape:connector-curvature="0" />
        <path
           style="opacity:1;fill:#000000;fill-opacity:1;fill-rule:evenodd;stroke:none;stroke-width:0.178849;stop-opacity:1"
           id="path190"
           d="m 8.0783461,43.433351 -0.027731,18.390495 4.7595539,-0.917002 0.008,-10.427178 c 0.0011,-1.552569 2.218718,-3.366745 5.001101,-3.337836 0.590563,-1.068458 1.700622,-3.799145 1.971074,-4.420278 -6.216164,-0.0149 -6.295301,1.786689 -7.376445,2.672929 -0.01129,-1.690633 -0.0038,-2.705523 -0.0038,-2.705523 L 8.07834,43.433351 Z"
           inkscape:connector-curvature="0" />
        <path
           style="opacity:1;fill:#000000;fill-opacity:1;fill-rule:evenodd;stroke:none;stroke-width:0.178849;stop-opacity:1"
           id="path192"
           d="m 34.864158,45.847657 c -0.04596,-0.02158 -2.482313,-2.849814 -7.380451,-2.872118 -4.587923,-0.07626 -9.733997,1.702455 -9.816362,9.395439 0.04016,6.763805 4.943422,9.407116 9.842311,9.458657 5.242587,0.05446 7.328614,-3.278207 7.453738,-3.360795 -0.625546,-0.542288 -2.968521,-2.863927 -2.968521,-2.863927 0,0 -1.463407,2.083774 -4.302753,2.110263 -2.840019,0.02704 -5.308677,-2.195059 -5.34366,-5.295549 -0.03639,-3.100518 2.269381,-4.780314 5.364978,-4.916 2.679992,-5.36e-4 4.226149,1.730068 4.226149,1.730068 z"
           inkscape:connector-curvature="0" />
        <path
           style="opacity:1;fill:#000000;fill-opacity:1;fill-rule:evenodd;stroke:none;stroke-width:0.178849;stop-opacity:1"
           id="path194"
           d="m 40.863416,36.996987 -4.493582,1.056327 0.03353,23.954589 4.426513,-0.799232 0.0503,-11.273076 c 0.0095,-1.182062 1.710023,-2.997359 4.549471,-2.939831 2.71488,0.02821 3.321649,1.809535 3.314296,2.034408 l 0.07825,13.050388 4.365033,-0.771286 0.01676,-13.838442 c 0.02874,-1.331601 -2.916728,-4.14385 -7.651384,-4.163829 -2.250076,0.0036 -3.496167,0.512984 -4.130294,0.888656 -1.084998,0.838024 -2.325002,1.641017 -3.543446,2.665968 1.126407,-1.447065 2.072057,-2.447577 2.995721,-3.191337 l -0.01118,-6.673303 z"
           inkscape:connector-curvature="0" />
      </g>
      <flowRoot
         transform="matrix(0.26458333,0,0,0.26458333,-40.664695,-2.0482915)"
         style="font-size:112px;font-family:sans-serif;word-spacing:0px;fill:#000000"
         id="flowRoot204"
         xml:space="preserve"><flowRegion
           style="fill:#000000"
           id="flowRegion200"><rect
             style="fill:#000000"
             y="37.909908"
             x="280.4986"
             height="184.71552"
             width="358.60999"
             id="rect198" /></flowRegion><flowPara
           style="font-style:normal;font-variant:normal;font-weight:normal;font-stretch:normal;line-height:normal;font-family:KaratMedium;-inkscape-font-specification:KaratMedium;font-variant-ligatures:normal;font-variant-position:normal;font-variant-caps:normal;font-variant-numeric:normal;font-variant-alternates:normal;font-variant-east-asian:normal;font-feature-settings:normal;font-variation-settings:normal;text-indent:0;text-align:start;text-decoration:none;text-decoration-line:none;text-decoration-style:solid;text-decoration-color:#000000;letter-spacing:normal;word-spacing:0px;text-transform:none;writing-mode:lr-tb;direction:ltr;text-orientation:mixed;dominant-baseline:auto;baseline-shift:baseline;text-anchor:start;white-space:normal;shape-padding:0;shape-margin:0;inline-size:0;opacity:1;vector-effect:none;fill:#000000;fill-opacity:1;stroke-width:1;stroke-linecap:butt;stroke-linejoin:miter;stroke-miterlimit:4;stroke-dasharray:none;stroke-dashoffset:0;stroke-opacity:1;stop-color:#000000;stop-opacity:1"
           id="flowPara202">I use</flowPara></flowRoot>    </g>
    <g
       transform="matrix(1.7740491,0,0,1.7740491,-21.812025,8.5614413)"
       id="g178">
      <flowRoot
         xml:space="preserve"
         id="flowRoot848"
         style="font-size:40px;font-family:sans-serif;word-spacing:0px;opacity:1;fill:#ffffff;stop-opacity:1"
         transform="matrix(0.74614876,0,0,0.74614876,-19.153355,-629.95948)"><flowRegion
           id="flowRegion850"
           style="fill:#ffffff"><rect
             id="rect852"
             width="741.12726"
             height="226.20535"
             x="75.066963"
             y="824.86609"
             style="fill:#ffffff;" /></flowRegion><flowPara
           id="flowPara854"
           style="font-style:normal;font-variant:normal;font-weight:normal;font-stretch:normal;font-family:KaratMedium;-inkscape-font-specification:KaratMedium;fill:#ffffff">btw</flowPara></flowRoot>      <g
         id="g155"
         transform="translate(42.396733,4.2447357e-6)">
        <path
           inkscape:connector-curvature="0"
           d="m -2.3900996,42.407169 c -2.5881974,-0.0043 -4.7361364,0.526473 -5.5666755,0.815999 l -0.8551218,4.61654 c -0.00207,0.01701 4.2557891,-1.135432 6.1311676,-1.067505 3.10510142,0.111568 3.39088426,1.186736 3.33665187,2.638023 0.0529304,0.08488 -0.80112374,-1.311307 -3.48755567,-1.358135 -3.389119,-0.05846 -8.1721189,1.199982 -8.1655749,6.315606 -0.09137,5.754309 4.2983871,7.447061 7.2880969,7.478124 2.6877805,-0.04894 3.94857481,-1.017894 4.63889622,-1.536984 C 1.8367714,59.360515 2.8744247,58.406873 3.8640267,57.262815 2.9276323,58.964166 2.1158277,60.14046 1.270716,61.041 v 0.760109 l 4.0855821,-0.687451 0.027945,-11.105406 c -0.041387,-1.571795 0.901619,-7.586465 -7.7743427,-7.601083 z m -0.5868483,9.669025 c 1.6935016,0.02324 3.63562117,0.857953 3.6384595,2.867173 0.008764,1.827517 -2.2892763,2.810045 -3.7837744,2.794516 -1.4951348,-0.01552 -3.4787795,-1.175006 -3.4875557,-2.956598 0.028645,-1.59255 1.8706766,-2.74608 3.6328706,-2.705091 z"
           id="path2284"
           style="opacity:1;fill:#ffffff;fill-opacity:1;fill-rule:evenodd;stroke:none;stroke-width:0.178849;stop-opacity:1" />
        <path
           inkscape:connector-curvature="0"
           d="m 8.0783461,43.433351 -0.027731,18.390495 4.7595539,-0.917002 0.008,-10.427178 c 0.0011,-1.552569 2.218718,-3.366745 5.001101,-3.337836 0.590563,-1.068458 1.700622,-3.799145 1.971074,-4.420278 -6.216164,-0.0149 -6.295301,1.786689 -7.376445,2.672929 -0.01129,-1.690633 -0.0038,-2.705523 -0.0038,-2.705523 L 8.07834,43.433351 Z"
           id="path2286"
           style="opacity:1;fill:#ffffff;fill-opacity:1;fill-rule:evenodd;stroke:none;stroke-width:0.178849;stop-opacity:1" />
        <path
           inkscape:connector-curvature="0"
           d="m 34.864158,45.847657 c -0.04596,-0.02158 -2.482313,-2.849814 -7.380451,-2.872118 -4.587923,-0.07626 -9.733997,1.702455 -9.816362,9.395439 0.04016,6.763805 4.943422,9.407116 9.842311,9.458657 5.242587,0.05446 7.328614,-3.278207 7.453738,-3.360795 -0.625546,-0.542288 -2.968521,-2.863927 -2.968521,-2.863927 0,0 -1.463407,2.083774 -4.302753,2.110263 -2.840019,0.02704 -5.308677,-2.195059 -5.34366,-5.295549 -0.03639,-3.100518 2.269381,-4.780314 5.364978,-4.916 2.679992,-5.36e-4 4.226149,1.730068 4.226149,1.730068 z"
           id="path2288"
           style="opacity:1;fill:#ffffff;fill-opacity:1;fill-rule:evenodd;stroke:none;stroke-width:0.178849;stop-opacity:1" />
        <path
           inkscape:connector-curvature="0"
           d="m 40.863416,36.996987 -4.493582,1.056327 0.03353,23.954589 4.426513,-0.799232 0.0503,-11.273076 c 0.0095,-1.182062 1.710023,-2.997359 4.549471,-2.939831 2.71488,0.02821 3.321649,1.809535 3.314296,2.034408 l 0.07825,13.050388 4.365033,-0.771286 0.01676,-13.838442 c 0.02874,-1.331601 -2.916728,-4.14385 -7.651384,-4.163829 -2.250076,0.0036 -3.496167,0.512984 -4.130294,0.888656 -1.084998,0.838024 -2.325002,1.641017 -3.543446,2.665968 1.126407,-1.447065 2.072057,-2.447577 2.995721,-3.191337 l -0.01118,-6.673303 z"
           id="path2290"
           style="opacity:1;fill:#ffffff;fill-opacity:1;fill-rule:evenodd;stroke:none;stroke-width:0.178849;stop-opacity:1" />
      </g>
      <flowRoot
         xml:space="preserve"
         id="flowRoot157"
         style="font-size:112px;font-family:sans-serif;word-spacing:0px"
         transform="matrix(0.26458333,0,0,0.26458333,-40.664695,-2.0482915)"><flowRegion
           id="flowRegion159"><rect
             id="rect161"
             width="358.60999"
             height="184.71552"
             x="280.4986"
             y="37.909908"
             style="" /></flowRegion><flowPara
           id="flowPara163"
           style="font-style:normal;font-variant:normal;font-weight:normal;font-stretch:normal;line-height:normal;font-family:KaratMedium;-inkscape-font-specification:KaratMedium;font-variant-ligatures:normal;font-variant-position:normal;font-variant-caps:normal;font-variant-numeric:normal;font-variant-alternates:normal;font-variant-east-asian:normal;font-feature-settings:normal;font-variation-settings:normal;text-indent:0;text-align:start;text-decoration:none;text-decoration-line:none;text-decoration-style:solid;text-decoration-color:#000000;letter-spacing:normal;word-spacing:0px;text-transform:none;writing-mode:lr-tb;direction:ltr;text-orientation:mixed;dominant-baseline:auto;baseline-shift:baseline;text-anchor:start;white-space:normal;shape-padding:0;shape-margin:0;inline-size:0;opacity:1;vector-effect:none;fill:#ffffff;fill-opacity:1;stroke-width:1;stroke-linecap:butt;stroke-linejoin:miter;stroke-miterlimit:4;stroke-dasharray:none;stroke-dashoffset:0;stroke-opacity:1;stop-color:#000000;stop-opacity:1">I use</flowPara></flowRoot>    </g>
  </g>
</svg>
