<?xml version="1.0" encoding="UTF-8" standalone="no"?>
<svg
   xmlns:dc="http://purl.org/dc/elements/1.1/"
   xmlns:cc="http://creativecommons.org/ns#"
   xmlns:rdf="http://www.w3.org/1999/02/22-rdf-syntax-ns#"
   xmlns:svg="http://www.w3.org/2000/svg"
   xmlns="http://www.w3.org/2000/svg"
   xmlns:sodipodi="http://sodipodi.sourceforge.net/DTD/sodipodi-0.dtd"
   xmlns:inkscape="http://www.inkscape.org/namespaces/inkscape"
   inkscape:export-ydpi="96"
   inkscape:export-xdpi="96"
   inkscape:export-filename="/home/depau/Beans/btw-i-use-arch-milanopride2019/stickerpack/gayarchuser.png"
   sodipodi:docname="gayarchuser.svg"
   inkscape:version="1.0beta0 (0a78936f89, 2019-09-11)"
   id="svg1112"
   version="1.1"
   viewBox="0 0 135.46666 135.46667"
   height="512"
   width="512">
  <defs
     id="defs1106">
    <filter
       height="1.0645775"
       y="-0.032288767"
       width="1.065024"
       x="-0.032512002"
       id="filter2350"
       style="color-interpolation-filters:sRGB"
       inkscape:collect="always">
      <feGaussianBlur
         id="feGaussianBlur2352"
         stdDeviation="1.6217336"
         inkscape:collect="always" />
    </filter>
  </defs>
  <sodipodi:namedview
     inkscape:window-maximized="1"
     inkscape:window-y="0"
     inkscape:window-x="0"
     inkscape:window-height="669"
     inkscape:window-width="1280"
     units="px"
     showgrid="false"
     inkscape:document-rotation="0"
     inkscape:current-layer="layer1"
     inkscape:document-units="mm"
     inkscape:cy="455.66986"
     inkscape:cx="293.13126"
     inkscape:zoom="0.49920081"
     inkscape:pageshadow="2"
     inkscape:pageopacity="0.0"
     borderopacity="1.0"
     bordercolor="#666666"
     pagecolor="#ffffff"
     id="base" />
  <metadata
     id="metadata1109">
    <rdf:RDF>
      <cc:Work
         rdf:about="">
        <dc:format>image/svg+xml</dc:format>
        <dc:type
           rdf:resource="http://purl.org/dc/dcmitype/StillImage" />
        <dc:title></dc:title>
      </cc:Work>
    </rdf:RDF>
  </metadata>
  <g
     id="layer1"
     inkscape:groupmode="layer"
     inkscape:label="Layer 1">
    <g
       id="g1735"
       transform="matrix(1.0556401,0,0,1.0556401,-179.42151,-111.4478)"
       style="opacity:1;fill:#000005;fill-opacity:1;stroke:#000010;stroke-width:0.150126;stroke-miterlimit:4;stroke-dasharray:none;stroke-opacity:1;filter:url(#filter2350);stop-opacity:1">
      <flowRoot
         transform="matrix(1.3912921,0,0,1.3912921,88.395097,-1058.3457)"
         style="font-size:40px;font-family:sans-serif;word-spacing:0px;opacity:1;fill:#000005;fill-opacity:1;stroke:#000010;stroke-width:0.107904;stroke-miterlimit:4;stroke-dasharray:none;stroke-opacity:1;stop-opacity:1"
         id="flowRoot1715"
         xml:space="preserve"><flowRegion
           style="fill:#000005;fill-opacity:1;stroke:#000010;stroke-width:0.107904;stroke-miterlimit:4;stroke-dasharray:none;stroke-opacity:1"
           id="flowRegion1711"><rect
             style="fill:#000005;stroke:#000010;stroke-opacity:1;stroke-width:0.10790391;stroke-miterlimit:4;stroke-dasharray:none;fill-opacity:1"
             y="824.86609"
             x="75.066963"
             height="226.20535"
             width="741.12726"
             id="rect1709" /></flowRegion><flowPara
           style="font-style:normal;font-variant:normal;font-weight:normal;font-stretch:normal;font-family:KaratMedium;-inkscape-font-specification:KaratMedium;fill:#000005;fill-opacity:1;stroke:#000010;stroke-width:0.107904;stroke-miterlimit:4;stroke-dasharray:none;stroke-opacity:1"
           id="flowPara1713">gay</flowPara></flowRoot>      <g
         transform="translate(12.963684)"
         id="g1725"
         style="fill:#000005;fill-opacity:1;stroke:#000010;stroke-width:0.150126;stroke-miterlimit:4;stroke-dasharray:none;stroke-opacity:1">
        <path
           style="opacity:1;fill:#000005;fill-opacity:1;fill-rule:evenodd;stroke:#000010;stroke-width:0.150126;stroke-miterlimit:4;stroke-dasharray:none;stroke-opacity:1;stop-opacity:1"
           id="path1717"
           d="m 177.35867,155.55636 c -4.82604,-0.008 -8.83115,0.98167 -10.3798,1.52153 l -1.59448,8.60815 c -0.004,0.0317 7.93547,-2.11716 11.43236,-1.9905 5.78987,0.20803 6.32275,2.21282 6.22162,4.91894 0.0987,0.15827 -1.49379,-2.44511 -6.503,-2.53243 -6.31946,-0.10901 -15.23799,2.23753 -15.22578,11.77628 -0.17037,10.72966 8.0149,13.88602 13.58961,13.94394 5.01172,-0.0913 7.36263,-1.89799 8.64983,-2.8659 1.69119,-1.76828 3.62604,-3.54647 5.47127,-5.67971 -1.74602,3.17239 -3.25974,5.36574 -4.83556,7.04492 v 1.41732 l 7.6181,-1.28185 0.0521,-20.70747 c -0.0772,-2.93083 1.68118,-14.14597 -14.49629,-14.17322 z m -1.09426,18.02916 c 3.15776,0.0433 6.7791,1.59976 6.78439,5.34622 0.0163,3.40765 -4.26866,5.2397 -7.05535,5.21074 -2.78787,-0.0289 -6.48663,-2.19095 -6.503,-5.51296 0.0534,-2.96952 3.48812,-5.12043 6.77396,-5.044 z"
           inkscape:connector-curvature="0" />
        <path
           style="opacity:1;fill:#000005;fill-opacity:1;fill-rule:evenodd;stroke:#000010;stroke-width:0.150126;stroke-miterlimit:4;stroke-dasharray:none;stroke-opacity:1;stop-opacity:1"
           id="path1719"
           d="m 196.87846,157.46981 -0.0517,34.29149 8.87481,-1.70987 0.015,-19.44284 c 0.002,-2.89497 4.13709,-6.27774 9.32521,-6.22384 1.10119,-1.99228 3.17103,-7.084 3.67532,-8.24219 -11.59085,-0.0277 -11.7384,3.33152 -13.75434,4.98403 -0.021,-3.1524 -0.007,-5.0448 -0.007,-5.0448 l -8.07713,1.38802 z"
           inkscape:connector-curvature="0" />
        <path
           style="opacity:1;fill:#000005;fill-opacity:1;fill-rule:evenodd;stroke:#000010;stroke-width:0.150126;stroke-miterlimit:4;stroke-dasharray:none;stroke-opacity:1;stop-opacity:1"
           id="path1721"
           d="m 246.82411,161.9716 c -0.0857,-0.0402 -4.6286,-5.31385 -13.76182,-5.35544 -8.55477,-0.1422 -18.15031,3.17445 -18.30389,17.51903 0.0749,12.61199 9.21766,17.5408 18.35228,17.6369 9.77549,0.10155 13.66516,-6.11264 13.89847,-6.26664 -1.16641,-1.01117 -5.5352,-5.34017 -5.5352,-5.34017 0,0 -2.72871,3.88547 -8.02304,3.93487 -5.29559,0.0504 -9.89872,-4.09298 -9.96395,-9.87426 -0.0679,-5.78131 4.23155,-8.91352 10.0037,-9.16652 4.99719,-9e-4 7.8802,3.22594 7.8802,3.22594 z"
           inkscape:connector-curvature="0" />
        <path
           style="opacity:1;fill:#000005;fill-opacity:1;fill-rule:evenodd;stroke:#000010;stroke-width:0.150126;stroke-miterlimit:4;stroke-dasharray:none;stroke-opacity:1;stop-opacity:1"
           id="path1723"
           d="m 258.01051,145.46837 -8.37886,1.96965 0.0625,44.66647 8.25381,-1.49027 0.0938,-21.02013 c 0.0177,-2.2041 3.18856,-5.58896 8.48308,-5.48169 5.06225,0.0526 6.19365,3.37411 6.17994,3.79341 l 0.1459,24.33417 8.13918,-1.43817 0.0313,-25.80359 c 0.0536,-2.48295 -5.43863,-7.72675 -14.26702,-7.764 -4.19556,0.006 -6.51905,0.95652 -7.70147,1.65701 -2.02312,1.56261 -4.33527,3.05989 -6.60722,4.97105 2.10034,-2.69824 3.86362,-4.56383 5.58591,-5.95067 l -0.0208,-12.44324 z"
           inkscape:connector-curvature="0" />
      </g>
      <flowRoot
         xml:space="preserve"
         id="flowRoot1733"
         style="font-size:40px;font-family:sans-serif;word-spacing:0px;opacity:1;fill:#000005;fill-opacity:1;stroke:#000010;stroke-width:0.107904;stroke-miterlimit:4;stroke-dasharray:none;stroke-opacity:1;stop-opacity:1"
         transform="matrix(1.3912921,0,0,1.3912921,76.653896,-970.24838)"><flowRegion
           id="flowRegion1729"
           style="fill:#000005;fill-opacity:1;stroke:#000010;stroke-width:0.107904;stroke-miterlimit:4;stroke-dasharray:none;stroke-opacity:1"><rect
             id="rect1727"
             width="741.12726"
             height="226.20535"
             x="75.066963"
             y="824.86609"
             style="fill:#000005;stroke:#000010;stroke-opacity:1;stroke-width:0.10790391;stroke-miterlimit:4;stroke-dasharray:none;fill-opacity:1" /></flowRegion><flowPara
           id="flowPara1731"
           style="font-style:normal;font-variant:normal;font-weight:normal;font-stretch:normal;font-family:KaratMedium;-inkscape-font-specification:KaratMedium;fill:#000005;fill-opacity:1;stroke:#000010;stroke-width:0.107904;stroke-miterlimit:4;stroke-dasharray:none;stroke-opacity:1">user</flowPara></flowRoot>    </g>
    <g
       style="opacity:1;fill:#ffffff;fill-opacity:1;stroke:none;stroke-width:0.150126;stroke-miterlimit:4;stroke-dasharray:none;stroke-opacity:1;stop-opacity:1"
       transform="matrix(1.0556401,0,0,1.0556401,-179.42151,-111.4478)"
       id="g2404">
      <flowRoot
         xml:space="preserve"
         id="flowRoot848"
         style="font-size:40px;font-family:sans-serif;word-spacing:0px;opacity:1;fill:#ffffff;fill-opacity:1;stroke:none;stroke-width:0.107904;stroke-miterlimit:4;stroke-dasharray:none;stroke-opacity:1;stop-opacity:1"
         transform="matrix(1.3912921,0,0,1.3912921,88.395097,-1058.3457)"><flowRegion
           id="flowRegion850"
           style="fill:#ffffff;fill-opacity:1;stroke:none;stroke-width:0.107904;stroke-miterlimit:4;stroke-dasharray:none;stroke-opacity:1"><rect
             id="rect852"
             width="741.12726"
             height="226.20535"
             x="75.066963"
             y="824.86609"
             style="fill:#ffffff;stroke:none;stroke-opacity:1;stroke-width:0.10790391;stroke-miterlimit:4;stroke-dasharray:none;fill-opacity:1" /></flowRegion><flowPara
           id="flowPara854"
           style="font-style:normal;font-variant:normal;font-weight:normal;font-stretch:normal;font-family:KaratMedium;-inkscape-font-specification:KaratMedium;fill:#ffffff;fill-opacity:1;stroke:none;stroke-width:0.107904;stroke-miterlimit:4;stroke-dasharray:none;stroke-opacity:1">gay</flowPara></flowRoot>      <g
         style="fill:#ffffff;fill-opacity:1;stroke:none;stroke-width:0.150126;stroke-miterlimit:4;stroke-dasharray:none;stroke-opacity:1"
         id="g2381"
         transform="translate(12.963684)">
        <path
           inkscape:connector-curvature="0"
           d="m 177.35867,155.55636 c -4.82604,-0.008 -8.83115,0.98167 -10.3798,1.52153 l -1.59448,8.60815 c -0.004,0.0317 7.93547,-2.11716 11.43236,-1.9905 5.78987,0.20803 6.32275,2.21282 6.22162,4.91894 0.0987,0.15827 -1.49379,-2.44511 -6.503,-2.53243 -6.31946,-0.10901 -15.23799,2.23753 -15.22578,11.77628 -0.17037,10.72966 8.0149,13.88602 13.58961,13.94394 5.01172,-0.0913 7.36263,-1.89799 8.64983,-2.8659 1.69119,-1.76828 3.62604,-3.54647 5.47127,-5.67971 -1.74602,3.17239 -3.25974,5.36574 -4.83556,7.04492 v 1.41732 l 7.6181,-1.28185 0.0521,-20.70747 c -0.0772,-2.93083 1.68118,-14.14597 -14.49629,-14.17322 z m -1.09426,18.02916 c 3.15776,0.0433 6.7791,1.59976 6.78439,5.34622 0.0163,3.40765 -4.26866,5.2397 -7.05535,5.21074 -2.78787,-0.0289 -6.48663,-2.19095 -6.503,-5.51296 0.0534,-2.96952 3.48812,-5.12043 6.77396,-5.044 z"
           id="path2284"
           style="opacity:1;fill:#ffffff;fill-opacity:1;fill-rule:evenodd;stroke:none;stroke-width:0.150126;stroke-miterlimit:4;stroke-dasharray:none;stroke-opacity:1;stop-opacity:1" />
        <path
           inkscape:connector-curvature="0"
           d="m 196.87846,157.46981 -0.0517,34.29149 8.87481,-1.70987 0.015,-19.44284 c 0.002,-2.89497 4.13709,-6.27774 9.32521,-6.22384 1.10119,-1.99228 3.17103,-7.084 3.67532,-8.24219 -11.59085,-0.0277 -11.7384,3.33152 -13.75434,4.98403 -0.021,-3.1524 -0.007,-5.0448 -0.007,-5.0448 l -8.07713,1.38802 z"
           id="path2286"
           style="opacity:1;fill:#ffffff;fill-opacity:1;fill-rule:evenodd;stroke:none;stroke-width:0.150126;stroke-miterlimit:4;stroke-dasharray:none;stroke-opacity:1;stop-opacity:1" />
        <path
           inkscape:connector-curvature="0"
           d="m 246.82411,161.9716 c -0.0857,-0.0402 -4.6286,-5.31385 -13.76182,-5.35544 -8.55477,-0.1422 -18.15031,3.17445 -18.30389,17.51903 0.0749,12.61199 9.21766,17.5408 18.35228,17.6369 9.77549,0.10155 13.66516,-6.11264 13.89847,-6.26664 -1.16641,-1.01117 -5.5352,-5.34017 -5.5352,-5.34017 0,0 -2.72871,3.88547 -8.02304,3.93487 -5.29559,0.0504 -9.89872,-4.09298 -9.96395,-9.87426 -0.0679,-5.78131 4.23155,-8.91352 10.0037,-9.16652 4.99719,-9e-4 7.8802,3.22594 7.8802,3.22594 z"
           id="path2288"
           style="opacity:1;fill:#ffffff;fill-opacity:1;fill-rule:evenodd;stroke:none;stroke-width:0.150126;stroke-miterlimit:4;stroke-dasharray:none;stroke-opacity:1;stop-opacity:1" />
        <path
           inkscape:connector-curvature="0"
           d="m 258.01051,145.46837 -8.37886,1.96965 0.0625,44.66647 8.25381,-1.49027 0.0938,-21.02013 c 0.0177,-2.2041 3.18856,-5.58896 8.48308,-5.48169 5.06225,0.0526 6.19365,3.37411 6.17994,3.79341 l 0.1459,24.33417 8.13918,-1.43817 0.0313,-25.80359 c 0.0536,-2.48295 -5.43863,-7.72675 -14.26702,-7.764 -4.19556,0.006 -6.51905,0.95652 -7.70147,1.65701 -2.02312,1.56261 -4.33527,3.05989 -6.60722,4.97105 2.10034,-2.69824 3.86362,-4.56383 5.58591,-5.95067 l -0.0208,-12.44324 z"
           id="path2290"
           style="opacity:1;fill:#ffffff;fill-opacity:1;fill-rule:evenodd;stroke:none;stroke-width:0.150126;stroke-miterlimit:4;stroke-dasharray:none;stroke-opacity:1;stop-opacity:1" />
      </g>
      <flowRoot
         transform="matrix(1.3912921,0,0,1.3912921,76.653896,-970.24838)"
         style="font-size:40px;font-family:sans-serif;word-spacing:0px;opacity:1;fill:#ffffff;fill-opacity:1;stroke:none;stroke-width:0.107904;stroke-miterlimit:4;stroke-dasharray:none;stroke-opacity:1;stop-opacity:1"
         id="flowRoot2389"
         xml:space="preserve"><flowRegion
           style="fill:#ffffff;fill-opacity:1;stroke:none;stroke-width:0.107904;stroke-miterlimit:4;stroke-dasharray:none;stroke-opacity:1"
           id="flowRegion2385"><rect
             style="fill:#ffffff;stroke:none;stroke-opacity:1;stroke-width:0.10790391;stroke-miterlimit:4;stroke-dasharray:none;fill-opacity:1"
             y="824.86609"
             x="75.066963"
             height="226.20535"
             width="741.12726"
             id="rect2383" /></flowRegion><flowPara
           style="font-style:normal;font-variant:normal;font-weight:normal;font-stretch:normal;font-family:KaratMedium;-inkscape-font-specification:KaratMedium;fill:#ffffff;fill-opacity:1;stroke:none;stroke-width:0.107904;stroke-miterlimit:4;stroke-dasharray:none;stroke-opacity:1"
           id="flowPara2387">user</flowPara></flowRoot>    </g>
  </g>
</svg>
