<svg width="30cm" height="40cm" version="1.1" viewBox="0 0 300 400" xml:space="preserve" xmlns="http://www.w3.org/2000/svg"><g fill="#fff"><g fill-rule="evenodd"><path d="m168.27 169.75c-4.9822-8e-3 -9.117 1.0134-10.716 1.5708l-1.6461 8.8868c-4e-3 0.0327 8.1923-2.1857 11.802-2.0549 5.9773 0.21477 6.5274 2.2844 6.423 5.0782 0.10189 0.1634-1.5422-2.5242-6.7135-2.6144-6.524-0.11254-15.731 2.31-15.719 12.157-0.17588 11.077 8.2743 14.335 14.029 14.395 5.1739-0.0942 7.601-1.9594 8.9298-2.9587 1.7459-1.8255 3.7434-3.6613 5.6484-5.8636-1.8026 3.2751-3.3653 5.5394-4.9921 7.273v1.4632l7.8647-1.3233 0.0538-21.378c-0.0797-3.0257 1.7356-14.604-14.966-14.632zm-1.1297 18.613c3.26 0.0447 6.9985 1.6516 7.004 5.5193 0.0169 3.5179-4.4068 5.4093-7.2837 5.3794-2.8781-0.0299-6.6966-2.2619-6.7135-5.6914 0.0551-3.0656 3.601-5.2862 6.9932-5.2073z"/><path d="m188.43 171.73-0.0534 35.401 9.1621-1.7652 0.0155-20.072c2e-3 -2.9887 4.271-6.4809 9.627-6.4253 1.1368-2.0568 3.2737-7.3133 3.7943-8.509-11.966-0.0287-12.118 3.4394-14.2 5.1454-0.0217-3.2544-7e-3 -5.2081-7e-3 -5.2081l-8.3386 1.433z"/><path d="m239.99 176.38c-0.0885-0.0416-4.7784-5.4858-14.207-5.5288-8.8317-0.14679-18.738 3.2772-18.896 18.086 0.0773 13.02 9.516 18.109 18.946 18.208 10.092 0.10484 14.107-6.3105 14.348-6.4695-1.2042-1.0439-5.7144-5.513-5.7144-5.513s-2.817 4.0112-8.2827 4.0622c-5.467 0.0521-10.219-4.2254-10.286-10.194-0.0701-5.9684 4.3685-9.202 10.328-9.4632 5.159-1e-3 8.1353 3.3304 8.1353 3.3304z"/><path d="m251.54 159.34-8.6501 2.0334 0.0646 46.112 8.521-1.5385 0.0968-21.701c0.0182-2.2755 3.2918-5.7699 8.7577-5.6591 5.2261 0.0543 6.3941 3.4833 6.38 3.9162l0.15062 25.122 8.4026-1.4847 0.0323-26.639c0.0553-2.5633-5.6147-7.9768-14.729-8.0153-4.3314 7e-3 -6.7301 0.98749-7.9508 1.7106-2.0886 1.6132-4.4756 3.1589-6.8211 5.132 2.1683-2.7856 3.9887-4.7116 5.7667-6.1433l-0.0215-12.846z"/></g><g stroke-width="1.3386"><path d="m174.6 155.23-4.482 0.36631v-31.777l4.482-0.73262z"/><path d="m213.06 155.23-4.2991 0.73261v-3.4341q-0.96043 1.4652-2.7441 2.4726-1.7837 0.96155-4.3448 0.96155-3.8417 0-6.2199-1.74-2.8356-2.0605-2.8356-6.1356v-16.026l4.3906-0.73261v16.163q0 2.2894 1.372 3.4341 1.372 1.1447 3.7503 1.1447 2.6069 0 4.2991-1.4194 2.241-1.8773 2.241-5.632v-12.958l4.3906-0.73261z"/><path d="m232.45 148.5q0 3.4799-2.5154 5.5862-2.2867 1.8773-5.4424 1.8773-2.6526 0-4.5735-0.86997-1.9209-0.86998-3.613-3.022l3.0185-2.5642q1.1434 1.3279 2.241 1.9689 1.1434 0.59525 2.6069 0.59525 1.555 0 2.6984-0.7784 1.1891-0.7784 1.1891-2.1063 0-2.7473-5.7168-4.3041-5.6711-1.6026-5.6711-6.1814 0-3.1594 2.1038-5.2657t5.3967-2.1063q2.5154 0 4.3448 0.86998 1.5092 0.73261 3.1557 2.381l-2.6069 2.8847q-1.2348-1.2363-2.1953-1.74-0.91469-0.50368-2.2867-0.50368-1.6922 0-2.6069 0.68683-0.9147 0.68682-0.9147 2.152 0 2.0147 2.927 2.9762 5.0766 1.6484 5.4882 1.8773 2.9728 1.6942 2.9728 5.5862z"/><path d="m256.88 137.7-16.282 10.394q1.1891 1.8773 2.7898 2.8389 1.6464 0.91577 3.4758 0.91577 3.4758 0 8.6896-4.0294l0.86896 4.6246q-2.424 1.6484-4.0247 2.381-2.5612 1.1447-5.168 1.1447-5.5339 0-8.9183-3.6173-3.3844-3.6631-3.3844-9.295 0-4.8078 3.4301-8.2419 3.4758-3.4799 8.1865-3.4799 3.4758 0 5.9455 1.6026t4.3906 4.762zm-6.037-0.73261q-0.54882-0.64104-1.6007-1.0531-1.0062-0.45788-2.241-0.45788-3.6588 0-5.8083 2.381-1.9666 2.1978-1.9666 5.4488l0.0915 1.0073z"/><path d="m199.27 231.65q0 5.6778-3.796 9.1577-3.5674 3.2968-8.8269 3.2968-4.7107 0-8.1409-3.0678-3.3844-3.1136-3.3844-7.4636v-21.841l4.3906-0.73262v12.088q3.0185-3.6173 8.0036-3.6173 4.8937 0 8.3238 3.5715 3.4301 3.5715 3.4301 8.6083zm-4.3906 0.0916q0-3.3426-2.241-5.7236-2.1953-2.4268-5.3968-2.4268-3.5216 0-5.8541 2.381-2.3325 2.381-2.3325 5.8609 0 3.3426 2.2868 5.7694 2.3325 2.381 5.7626 2.381 3.2929 0 5.534-2.381 2.241-2.381 2.241-5.8609z"/><path d="m215.97 239.93-0.7775 3.9836q-0.82323 0.0916-1.4635 0.13736-0.59456 0.0458-1.8294 0.0458-3.3387 0-5.351-2.0147t-2.0124-5.3115v-12.683h-3.6131l1.555-3.892h2.0581v-5.6778l4.3906-1.0531v6.7309h6.1742v3.892h-6.1742v12.088q0 2.2436 0.7775 3.1594 0.82323 0.86999 3.2472 0.86999 0.50309 0 1.5093-0.0916t1.5093-0.18315z"/><path d="m251.87 220.2-10.199 23.902-8.0951-15.889-8.1409 15.889-10.016-23.902 4.2534-0.73262 6.0828 15.019 7.775-15.019 7.8665 15.019 6.22-15.019z"/></g><g stroke-width=".26458"><path d="m167.96 271.39c1.9217 0 2.1493 7e-3 2.9082 0.042 0.7017 0.032 1.0827 0.14924 1.3364 0.2478a2.2298 2.2298 0 0 1 0.82751 0.53837 2.2298 2.2298 0 0 1 0.53837 0.82751c0.0986 0.2536 0.2158 0.63467 0.2478 1.3364 0.0346 0.75892 0.042 0.98652 0.042 2.9082s-7e-3 2.1493-0.042 2.9082c-0.032 0.70169-0.14927 1.0827-0.2478 1.3364a2.3834 2.3834 0 0 1-1.3659 1.3659c-0.2536 0.0986-0.63467 0.21581-1.3364 0.2478-0.75877 0.0346-0.98637 0.042-2.9082 0.042-1.9219 0-2.1494-7e-3 -2.9082-0.042-0.7017-0.032-1.0827-0.14927-1.3364-0.2478a2.2298 2.2298 0 0 1-0.82751-0.53837 2.2298 2.2298 0 0 1-0.53837-0.8275c-0.0986-0.25361-0.2158-0.63468-0.2478-1.3364-0.0346-0.75889-0.042-0.98652-0.042-2.9082s7e-3 -2.1493 0.042-2.9082c0.032-0.70169 0.14924-1.0827 0.2478-1.3364a2.2298 2.2298 0 0 1 0.53843-0.82754 2.2298 2.2298 0 0 1 0.82751-0.53837c0.2536-0.0986 0.63467-0.2158 1.3364-0.2478 0.75892-0.0346 0.98652-0.042 2.9082-0.042m0-1.2967c-1.9546 0-2.1998 8e-3 -2.9673 0.0433-0.76606 0.035-1.2892 0.15661-1.747 0.33453a3.5278 3.5278 0 0 0-1.2747 0.83011 3.5278 3.5278 0 0 0-0.83034 1.2747c-0.17778 0.4578-0.29942 0.98095-0.33425 1.747-0.0352 0.76752-0.0435 1.0127-0.0435 2.9673 0 1.9546 8e-3 2.1998 0.0435 2.9673 0.035 0.76605 0.15661 1.2892 0.33454 1.747a3.5279 3.5279 0 0 0 0.8301 1.2747 3.5278 3.5278 0 0 0 1.2747 0.83011c0.45781 0.17792 0.98095 0.29956 1.747 0.33453 0.76763 0.035 1.0127 0.0433 2.9673 0.0433 1.9546 0 2.1998-8e-3 2.9673-0.0433 0.76606-0.035 1.2892-0.15661 1.747-0.33453a3.6801 3.6801 0 0 0 2.1048-2.1048c0.17792-0.4578 0.29957-0.98095 0.33454-1.747 0.035-0.76763 0.0433-1.0127 0.0433-2.9673 0-1.9546-8e-3 -2.1998-0.0433-2.9673-0.035-0.76605-0.15662-1.2892-0.33454-1.747a3.5278 3.5278 0 0 0-0.83011-1.2747 3.5278 3.5278 0 0 0-1.2748-0.83028c-0.4578-0.17778-0.98095-0.29942-1.747-0.33425-0.76752-0.0352-1.0127-0.0435-2.9673-0.0435z"/><path d="m167.96 273.59a3.6957 3.6957 0 1 0 3.6957 3.6957 3.6957 3.6957 0 0 0-3.6957-3.6957zm0 6.0947a2.399 2.399 0 1 1 2.399-2.399 2.399 2.399 0 0 1-2.399 2.399z"/><path d="m172.66 273.45a0.86362 0.86362 0 0 1-0.86362 0.86362 0.86362 0.86362 0 0 1-0.86362-0.86362 0.86362 0.86362 0 0 1 0.86362-0.86362 0.86362 0.86362 0 0 1 0.86362 0.86362z"/></g><g stroke-width=".19133"><path d="m186.34 280.79-1.2063 0.16084v-1.0857q-0.45571 0.52273-1.0186 0.8042-0.65676 0.33508-1.4476 0.33508-1.4342 0-2.4528-1.0857-1.0186-1.0857-1.0186-2.6002 0-1.5012 0.99184-2.5064 1.0052-1.0186 2.4662-1.0186 0.68356 0 1.3537 0.29487 0.56294 0.25466 1.0454 0.68357v-3.2436l1.2867-0.21446zm-1.1259-3.3776q0-1.0589-0.71037-1.729-0.69697-0.68357-1.7826-0.68357-0.95163 0-1.595 0.72378-0.64336 0.72378-0.64336 1.6888 0 0.96504 0.68357 1.6754 0.68356 0.71037 1.6084 0.71037 1.032 0 1.7022-0.60314 0.73718-0.65676 0.73718-1.7826z" style="white-space:pre"/><path d="m193.87 275.66-4.7716 3.0425q0.34848 0.54954 0.8176 0.83101 0.48252 0.26806 1.0186 0.26806 1.0186 0 2.5466-1.1795l0.25466 1.3537q-0.71037 0.48251-1.1795 0.69697-0.75058 0.33508-1.5146 0.33508-1.6218 0-2.6136-1.0589-0.99185-1.0723-0.99185-2.7209 0-1.4074 1.0052-2.4126 1.0186-1.0186 2.3992-1.0186 1.0186 0 1.7424 0.46911 0.72378 0.46912 1.2867 1.3939zm-1.7692-0.21445q-0.16084-0.18764-0.46911-0.30827-0.29487-0.13404-0.65676-0.13404-1.0723 0-1.7022 0.69697-0.57634 0.64336-0.57634 1.595l0.0268 0.29487z" style="white-space:pre"/><path d="m202.22 277.43q0 1.5682-1.0052 2.5734-1.0052 1.0052-2.4662 1.0052-0.69697 0-1.3537-0.26807-0.64336-0.26806-1.032-0.71037v3.0694l-1.2867 0.16084v-9.2483l1.2063-0.21445v1.1393q0.44231-0.50933 1.0186-0.8042 0.65676-0.33508 1.461-0.33508 1.3537 0 2.3992 1.0454 1.0588 1.0321 1.0588 2.5868zm-1.2867-0.0134q0-1.0723-0.72378-1.7692-0.67016-0.64336-1.595-0.64336-1.0455 0-1.729 0.69697-0.68356 0.69697-0.68356 1.7022 0 0.96503 0.67016 1.6888 0.68357 0.71037 1.6352 0.71037 1.0052 0 1.6888-0.61655 0.73718-0.67016 0.73718-1.7692z" style="white-space:pre"/><path d="m208.64 280.79-1.1527 0.21446v-0.93823q-0.26806 0.46911-0.77739 0.71037-0.49592 0.22786-1.3135 0.22786-1.0857 0-1.7826-0.75059-0.68357-0.76398-0.68357-1.863 0-1.1125 0.84441-1.796 0.77739-0.62995 1.8496-0.62995 0.60314 0 1.032 0.18764 0.4289 0.18765 0.69697 0.46912v-0.52273q0-0.68357-0.37529-0.88461-0.36189-0.21446-1.2867-0.21446-0.60314 0-1.0454 0.0938t-0.88462 0.29487l0.34849-1.3269q0.67016-0.14743 1.0991-0.20104 0.4423-0.067 0.73718-0.067 1.461 0 2.0775 0.61655t0.61655 1.9301zm-1.2867-2.3992q0-0.62995-0.45571-0.95163-0.45571-0.33508-1.1125-0.33508-0.68357 0-1.1259 0.33508t-0.44231 0.93823q0 0.64335 0.33509 1.0052 0.38869 0.4155 1.1393 0.4155 0.83101 0 1.2465-0.37529 0.4155-0.38869 0.4155-1.032z" style="white-space:pre"/><path d="m216.04 280.79-1.2599 0.21446v-1.0052q-0.28147 0.42891-0.8042 0.72378-0.52272 0.28147-1.2733 0.28147-1.1259 0-1.8228-0.50933-0.831-0.60314-0.831-1.796v-4.6911l1.2867-0.21445v4.7314q0 0.67017 0.4021 1.0052t1.0991 0.33508q0.76398 0 1.2599-0.4155 0.65676-0.54954 0.65676-1.6486v-3.7931l1.2867-0.21445z" style="white-space:pre"/><path d="m219.51 279.76-0.87121 1.1527-0.87122-1.1527 0.87122-1.1527z" style="white-space:pre"/><path d="m227.22 280.79-1.2867 0.21446v-4.718q0-1.3537-1.5146-1.3537-0.831 0-1.3403 0.49592-0.56293 0.54953-0.56293 1.5816v3.7797l-1.2867 0.21446v-9.4761l1.2867-0.21446v3.3374h0.0804q0.24126-0.3887 0.76398-0.61655 0.52273-0.24126 1.2063-0.24126 1.1125 0 1.8228 0.52273 0.831 0.61655 0.831 1.7826z" style="white-space:pre"/><path d="m93.479 280.79-1.2063 0.16084v-1.0857q-0.45571 0.52272-1.0186 0.80419-0.65676 0.33508-1.4476 0.33508-1.4341 0-2.4528-1.0857-1.0186-1.0857-1.0186-2.6002 0-1.5012 0.99184-2.5064 1.0052-1.0186 2.4662-1.0186 0.68357 0 1.3537 0.29487 0.56294 0.25466 1.0455 0.68357v-3.2436l1.2867-0.21445zm-1.1259-3.3776q0-1.0588-0.71037-1.729-0.69697-0.68357-1.7826-0.68357-0.95163 0-1.595 0.72378-0.64336 0.72377-0.64336 1.6888 0 0.96504 0.68356 1.6754 0.68357 0.71037 1.6084 0.71037 1.032 0 1.7022-0.60314 0.73718-0.65676 0.73718-1.7826z" style="white-space:pre"/><path d="m101.01 275.66-4.7716 3.0425q0.34848 0.54953 0.8176 0.831 0.48252 0.26806 1.0186 0.26806 1.0186 0 2.5466-1.1795l0.25466 1.3537q-0.71037 0.48252-1.1795 0.69697-0.75058 0.33508-1.5146 0.33508-1.6218 0-2.6136-1.0588-0.99184-1.0723-0.99184-2.7209 0-1.4073 1.0052-2.4126 1.0186-1.0186 2.3992-1.0186 1.0186 0 1.7424 0.46911 0.72378 0.46912 1.2867 1.3939zm-1.7692-0.21445q-0.16084-0.18765-0.46911-0.30828-0.29487-0.13403-0.65676-0.13403-1.0723 0-1.7022 0.69697-0.57634 0.64335-0.57634 1.595l0.02681 0.29488z" style="white-space:pre"/><path d="m109.36 277.43q0 1.5682-1.0052 2.5734-1.0052 1.0052-2.4662 1.0052-0.69697 0-1.3537-0.26806-0.64335-0.26807-1.032-0.71037v3.0693l-1.2867 0.16084v-9.2482l1.2063-0.21445v1.1393q0.44231-0.50932 1.0186-0.80419 0.65676-0.33508 1.461-0.33508 1.3537 0 2.3992 1.0454 1.0589 1.032 1.0589 2.5868zm-1.2867-0.0134q0-1.0723-0.72378-1.7692-0.67016-0.64336-1.595-0.64336-1.0455 0-1.729 0.69697-0.68357 0.69697-0.68357 1.7022 0 0.96503 0.67017 1.6888 0.68356 0.71037 1.6352 0.71037 1.0052 0 1.6888-0.61655 0.73718-0.67016 0.73718-1.7692z" style="white-space:pre"/><path d="m115.78 280.79-1.1527 0.21445v-0.93822q-0.26807 0.46911-0.77739 0.71037-0.49592 0.22785-1.3135 0.22785-1.0857 0-1.7826-0.75058-0.68357-0.76398-0.68357-1.863 0-1.1125 0.84441-1.796 0.77739-0.62996 1.8496-0.62996 0.60314 0 1.032 0.18765 0.4289 0.18764 0.69696 0.46911v-0.52272q0-0.68357-0.37529-0.88462-0.36188-0.21445-1.2867-0.21445-0.60314 0-1.0454 0.0938t-0.88461 0.29487l0.34848-1.3269q0.67016-0.14743 1.0991-0.20105 0.4423-0.067 0.73717-0.067 1.461 0 2.0775 0.61655t0.61655 1.9301zm-1.2867-2.3992q0-0.62995-0.45571-0.95163-0.45571-0.33508-1.1125-0.33508-0.68357 0-1.1259 0.33508-0.4423 0.33508-0.4423 0.93823 0 0.64335 0.33508 1.0052 0.38869 0.4155 1.1393 0.4155 0.831 0 1.2465-0.37529 0.4155-0.38869 0.4155-1.032z" style="white-space:pre"/><path d="m123.18 280.79-1.2599 0.21445v-1.0052q-0.28147 0.4289-0.80419 0.72377-0.52273 0.28147-1.2733 0.28147-1.1259 0-1.8228-0.50932-0.831-0.60315-0.831-1.796v-4.6911l1.2867-0.21445v4.7313q0 0.67017 0.40209 1.0052 0.4021 0.33508 1.0991 0.33508 0.76399 0 1.2599-0.4155 0.65675-0.54954 0.65675-1.6486v-3.7931l1.2867-0.21445z" style="white-space:pre"/><path d="m126.65 279.76-0.87121 1.1527-0.87121-1.1527 0.87121-1.1527z" style="white-space:pre"/><path d="m134 280.58q0 1.2599-0.96503 2.0105-0.87121 0.67016-2.0775 0.67016-0.99184 0-1.7156-0.4155-0.71037-0.4155-1.2599-1.1929l0.95163-0.75058q0.44231 0.65676 0.77739 0.88461 0.48251 0.33508 1.2465 0.33508 0.68356 0 1.1929-0.38869 0.56293-0.42891 0.56293-1.1125 0-0.831-0.52272-1.2733-0.52273-0.45571-1.2599-0.45571-0.49592 0-0.831 0.10723-0.32168 0.0938-0.8444 0.38869l0.24126-0.95163q-0.76399-0.25466-1.1259-0.8444-0.34848-0.60315-0.34848-1.3671 0-1.032 0.69697-1.6888 0.57634-0.54954 1.4476-0.69697 0.24126-0.0402 0.81759-0.067 0.58975-0.0268 1.0186-0.0536 0.49592-0.067 0.88462-0.16084 0.38869-0.0938 1.0991-0.36189l-0.29487 1.2599-0.80419 0.20105q0.4423 0.28146 0.64335 0.71037 0.21445 0.4155 0.21445 0.97843 0 0.61655-0.34848 1.1259-0.3887 0.57634-1.0589 0.79079 0.8176 0.30827 1.2331 0.92482 0.4289 0.60315 0.4289 1.3939zm-1.5414-4.289q0-0.64335-0.4289-1.0186-0.4155-0.3887-1.1393-0.3887-0.68356 0-1.1393 0.3887-0.44231 0.37529-0.44231 1.032 0 0.67017 0.4155 1.0857t1.1661 0.4155q0.68357 0 1.1259-0.42891 0.44231-0.4289 0.44231-1.0857z" style="white-space:pre"/><path d="m140.36 280.79-1.1527 0.21445v-0.93822q-0.26807 0.46911-0.77739 0.71037-0.49592 0.22785-1.3135 0.22785-1.0857 0-1.7826-0.75058-0.68357-0.76398-0.68357-1.863 0-1.1125 0.84441-1.796 0.77739-0.62996 1.8496-0.62996 0.60315 0 1.032 0.18765 0.42891 0.18764 0.69697 0.46911v-0.52272q0-0.68357-0.37529-0.88462-0.36189-0.21445-1.2867-0.21445-0.60314 0-1.0454 0.0938t-0.88462 0.29487l0.34849-1.3269q0.67016-0.14743 1.0991-0.20105 0.44231-0.067 0.73718-0.067 1.461 0 2.0775 0.61655 0.61655 0.61655 0.61655 1.9301zm-1.2867-2.3992q0-0.62995-0.45571-0.95163-0.45571-0.33508-1.1125-0.33508-0.68356 0-1.1259 0.33508t-0.44231 0.93823q0 0.64335 0.33509 1.0052 0.38869 0.4155 1.1393 0.4155 0.831 0 1.2465-0.37529 0.4155-0.38869 0.4155-1.032z" style="white-space:pre"/><path d="m147.2 274.01-4.3024 8.9802-1.1527-0.32168 1.729-3.391-2.6404-5.2675 1.1259-0.21445 2.1311 4.1684 1.9837-4.1684z" style="white-space:pre"/></g><path d="m75.414 270.09c-3.9727 0-7.1897 3.2242-7.1897 7.1969 0 3.9727 3.217 7.1969 7.1897 7.1969 3.9799 0 7.2041-3.2242 7.2041-7.1969 0-3.9727-3.2242-7.1969-7.2041-7.1969zm4.9875 4.3182h-2.1231c-0.2304-0.89961-0.56138-1.7632-0.9932-2.5621 1.3242 0.45342 2.4254 1.3746 3.1163 2.5621zm-4.9803-2.85c0.59734 0.86362 1.0651 1.8208 1.3746 2.85h-2.7492c0.30946-1.0292 0.77727-1.9864 1.3746-2.85zm-5.5704 7.1682c-0.11506-0.46063-0.18714-0.94282-0.18714-1.4394s0.07208-0.97877 0.18714-1.4394h2.4326c-0.05761 0.47501-0.10064 0.95-0.10064 1.4394s0.04323 0.96438 0.10064 1.4394zm0.59016 1.4394h2.1231c0.23039 0.89962 0.56138 1.7633 0.99319 2.5621-1.3242-0.45341-2.4254-1.3674-3.1163-2.5621zm2.1231-5.7575h-2.1231c0.69091-1.1947 1.7921-2.1087 3.1163-2.5621-0.43181 0.79887-0.76288 1.6625-0.99319 2.5621zm2.8572 8.6075c-0.59733-0.86363-1.0651-1.8208-1.3746-2.85h2.7492c-0.30946 1.0292-0.77726 1.9864-1.3746 2.85zm1.6841-4.2894h-3.3682c-0.06475-0.47502-0.11506-0.95-0.11506-1.4394s0.05037-0.97159 0.11506-1.4394h3.3682c0.06475 0.46781 0.11506 0.95 0.11506 1.4394s-0.05028 0.96438-0.11506 1.4394zm0.18007 4.0015c0.43182-0.79886 0.76288-1.6625 0.9932-2.5621h2.1231c-0.6909 1.1875-1.7921 2.1087-3.1163 2.5621zm1.2739-4.0015c0.05761-0.47502 0.10064-0.95 0.10064-1.4394s-0.04323-0.96439-0.10064-1.4394h2.4326c0.11506 0.46063 0.18715 0.94282 0.18715 1.4394s-0.07208 0.97877-0.18715 1.4394z" stroke-width=".26458"/><path d="m156.16 235.26v0.49976h1.3946v3.7329h0.56029v-3.7329h1.4007v-0.49976z" stroke-width=".26458"/><path d="m160.1 239.5v-4.2327h0.84308l1.0019 2.997c0.0923 0.2791 0.15977 0.48796 0.20211 0.62655 0.048-0.15398 0.12315-0.38016 0.2252-0.67851l1.0134-2.945h0.75355v4.2327h-0.5399v-3.5427l-1.23 3.5427h-0.50527l-1.2242-3.6033v3.6033h-0.53991"/></g><g><path d="m35.406 225.16c-4.4292 8.0641-9.2002 16.704-14.66 26.514 21.579-12.458 38.308-20.138 53.898-23.069-0.25855-1.112-0.45865-2.2686-0.62426-3.4451zm68.817 0c-0.14504 1.2195-0.34318 2.4058-0.59532 3.5473 15.42 3.0165 31.97 10.677 53.258 22.966-4.1975-7.7278-7.9445-14.694-11.522-21.328-2.0253-1.5698-4.0934-3.315-6.4538-5.1855z" fill="#880082" stroke-width=".26458"/><g stroke-width=".26458"><path d="m46.85 204.16c-3.5131 6.511-7.5232 13.856-11.895 21.812h39.173c-0.34185-2.1137-0.53344-4.3225-0.51529-6.604l0.02524-0.69137c0.13696-5.53 1.3831-10.531 3.3583-14.517zm54.053 0c2.3696 4.6543 3.7475 10.661 3.5873 17.128-0.0398 1.6079-0.17767 3.1708-0.39031 4.6838h35.806c-4.393-3.5328-9.7439-7.5613-18.056-11.828 8.2417 2.1415 14.143 4.6124 18.743 7.3741-3.462-6.4456-6.3633-11.909-9.2568-17.359z" fill="#3558a0"/><path d="m57.552 184.05c-3.2779 6.2657-7.0164 13.292-11.364 21.338h30.219c2.9161-6.7122 7.8254-10.914 13.284-10.452 4.8813 0.41362 9.1371 4.4675 11.82 10.452h30.468c-4.2645-8.0224-7.9775-15.082-11.224-21.338z" fill="#138f3e"/><path d="m67.997 163.52c-2.9772 6.0682-6.5138 13.028-10.869 21.338h64.044c-4.3135-8.3002-7.8643-15.288-10.856-21.338h-28.631c2.3311 1.9871 4.9925 4.071 8.108 6.25-5.0329-2.071-9.1563-4.147-12.609-6.25z" fill="#fad220"/><path d="m77.507 142.99c-1.5653 3.6171-3.227 7.3574-5.1757 11.521 2.7825 2.9495 6.0176 6.2331 10.329 9.817h28.054c-4.173-8.4154-7.3339-15.146-10.113-21.338zm-7.1476 15.669c-0.8562 1.7866-1.8036 3.7162-2.7648 5.6688h10.952c-3.2281-1.865-5.9044-3.7493-8.1868-5.6688z" fill="#ff7300"/><path d="m88.795 115.51c-4.4345 10.872-7.597 19.01-11.61 28.233h23.751c-4.1943-9.3051-7.517-17.381-12.142-28.233z" fill="#ff000e"/></g></g></svg>
