<?xml version="1.0" encoding="UTF-8" standalone="no"?>
<svg
   width="30cm"
   height="40cm"
   viewBox="0 0 300 399.99999"
   version="1.1"
   id="svg551"
   inkscape:version="1.2 (dc2aedaf03, 2022-05-15)"
   sodipodi:docname="front-vertical.svg"
   xmlns:inkscape="http://www.inkscape.org/namespaces/inkscape"
   xmlns:sodipodi="http://sodipodi.sourceforge.net/DTD/sodipodi-0.dtd"
   xmlns="http://www.w3.org/2000/svg"
   xmlns:svg="http://www.w3.org/2000/svg"
   xmlns:rdf="http://www.w3.org/1999/02/22-rdf-syntax-ns#"
   xmlns:cc="http://creativecommons.org/ns#"
   xmlns:dc="http://purl.org/dc/elements/1.1/">
  <defs
     id="defs545">
    <rect
       x="763.23751"
       y="1270.2087"
       width="302.283"
       height="85.247793"
       id="rect1308" />
    <rect
       x="763.23749"
       y="1270.2087"
       width="355.91817"
       height="87.707778"
       id="rect1308-2" />
  </defs>
  <sodipodi:namedview
     inkscape:pagecheckerboard="true"
     units="cm"
     id="base"
     pagecolor="#333333"
     bordercolor="#666666"
     borderopacity="1.0"
     inkscape:pageopacity="0"
     inkscape:pageshadow="2"
     inkscape:zoom="0.89796851"
     inkscape:cx="580.19852"
     inkscape:cy="908.16103"
     inkscape:document-units="mm"
     inkscape:current-layer="layer1"
     inkscape:document-rotation="0"
     showgrid="false"
     inkscape:window-width="2088"
     inkscape:window-height="2150"
     inkscape:window-x="0"
     inkscape:window-y="0"
     inkscape:window-maximized="1"
     inkscape:showpageshadow="0"
     inkscape:deskcolor="#333333" />
  <metadata
     id="metadata548">
    <rdf:RDF>
      <cc:Work
         rdf:about="">
        <dc:format>image/svg+xml</dc:format>
        <dc:type
           rdf:resource="http://purl.org/dc/dcmitype/StillImage" />
      </cc:Work>
    </rdf:RDF>
  </metadata>
  <g
     inkscape:label="Layer 1"
     inkscape:groupmode="layer"
     id="layer1">
    <g
       id="g66145"
       transform="translate(0.26564503,-25.929865)">
      <path
         id="path4290"
         style="fill:#3558a0;fill-opacity:1;stroke-width:0.264582"
         d="m 121.20318,176.67202 c -2.59298,4.80153 -5.57925,10.26308 -8.86329,16.22791 H 138.878 c 0.43949,-0.0932 0.87788,-0.18266 1.31453,-0.26474 -0.45094,-1.9395 -0.7072,-4.03744 -0.68978,-6.22643 l 0.0174,-0.46581 c 0.0864,-3.48861 0.82041,-6.67498 2.00616,-9.27093 z m 36.94586,0 c 1.43898,3.05808 2.2566,6.90986 2.15456,11.03021 -0.0434,1.75245 -0.24091,3.43809 -0.58628,5.00166 0.30464,0.0596 0.61235,0.13106 0.91835,0.19604 h 26.05306 c -3.48397,-2.80401 -7.41541,-6.27531 -14.69124,-10.00973 5.55183,1.44259 9.52706,3.10692 12.62553,4.9673 -2.18214,-4.06275 -4.1291,-7.71257 -5.97451,-11.18548 z" />
      <path
         id="path4292"
         style="fill:#138f3e;fill-opacity:1;stroke-width:0.264582"
         d="m 129.15912,161.71376 c -2.392,4.58552 -5.18304,9.82888 -8.4529,15.87523 h 20.4326 c 1.92626,-4.86606 5.35996,-7.95982 9.19536,-7.63486 3.44743,0.2921 6.43234,3.27904 8.21747,7.63486 h 20.58375 c -3.21476,-6.04334 -5.97141,-11.28753 -8.34755,-15.87523 z" />
      <path
         id="path4294"
         style="fill:#fad220;fill-opacity:1;stroke-width:0.264582"
         d="m 136.86543,146.43855 c -2.13887,4.43215 -4.72298,9.56569 -8.02052,15.87523 h 42.25485 c -3.26201,-6.28922 -5.87884,-11.46722 -8.03151,-15.87523 h -20.73902 c 2.1327,2.01843 4.70764,4.20674 8.07411,6.56124 -5.25068,-2.16061 -9.03335,-4.32894 -11.93986,-6.56124 z" />
      <path
         id="path4296"
         style="fill:#ff7300;fill-opacity:1;stroke-width:0.264582"
         d="m 143.74637,131.16288 c -1.51064,3.61699 -3.10349,7.27859 -5.10609,11.55741 1.26324,1.33904 2.67128,2.78284 4.33477,4.31781 h 20.38909 c -3.07493,-6.27589 -5.30177,-11.1507 -7.36279,-15.87522 z m -6.43391,14.35137 c -0.23684,0.4942 -0.48833,1.01184 -0.73651,1.52385 h 2.69366 c -0.6974,-0.50479 -1.34887,-1.01228 -1.95715,-1.52385 z" />
      <path
         id="path4298"
         style="fill:#ff000e;fill-opacity:1;stroke-width:0.264582"
         d="m 149.73049,116.45196 c -2.37726,5.82842 -4.21028,10.4862 -6.22001,15.27521 h 12.73683 c -2.10792,-4.81329 -4.03462,-9.45023 -6.51682,-15.27521 z" />
      <path
         id="path4324"
         style="font-style:normal;font-weight:normal;font-size:8.2513px;font-family:'DejaVu Sans Mono';fill:#880082;fill-opacity:1;fill-rule:evenodd;stroke:none;stroke-width:0.717618"
         d="m 112.66968,192.30036 c -2.69346,4.8948 -5.54874,10.06239 -8.78359,15.87478 14.53645,-8.39213 25.80484,-13.56576 36.30644,-15.53995 -0.0257,-0.11049 -0.0484,-0.22332 -0.0729,-0.33483 z m 47.12551,0 c -0.027,0.13376 -0.0487,0.27149 -0.0779,0.40353 10.38052,2.03061 21.52046,7.18602 35.84613,15.45476 a 14.111277,14.111277 0 0 0 0.0192,-0.002 c -2.82342,-5.19821 -5.3444,-9.88574 -7.75166,-14.34953 -0.61595,-0.47741 -1.24472,-0.9857 -1.88616,-1.50738 z" />
    </g>
    <path
       id="path4399"
       style="fill:#ffffff;fill-opacity:1;stroke-width:0.264582"
       d="m 195.10544,171.20727 v 0.33665 h 0.93941 v 2.51456 h 0.37742 v -2.51456 h 0.94353 v -0.33665 z" />
    <path
       inkscape:connector-curvature="0"
       d="m 197.75848,174.05863 v -2.85125 h 0.56792 l 0.67489,2.01882 c 0.0622,0.18801 0.10761,0.32869 0.13614,0.42205 0.0324,-0.10373 0.083,-0.25608 0.1517,-0.45705 l 0.68268,-1.98382 h 0.50761 v 2.85125 h -0.36369 v -2.38642 l -0.82854,2.38642 h -0.34036 l -0.82465,-2.42726 v 2.42726 h -0.3637"
       id="path4306"
       style="font-style:normal;font-weight:normal;font-size:8.2513px;font-family:'DejaVu Sans Mono';fill:#ffffff;fill-opacity:1;stroke:none;stroke-width:0.62765" />
    <g
       id="g2120"
       transform="matrix(1.3747899,0,0,1.3747899,5.2382473,-105.83891)">
      <g
         transform="matrix(1.1651165,0,0,1.1651165,102.883,154.83887)"
         id="g2102">
        <path
           inkscape:connector-curvature="0"
           d="m 5.8186639,60.689182 c -2.1361162,-0.0035 -3.9088743,0.434513 -4.5943427,0.673468 l -0.70575749,3.810168 c -0.00171,0.01404 3.51242939,-0.937106 5.06023499,-0.881044 2.5627325,0.09208 2.7985977,0.979449 2.7538381,2.177239 0.043685,0.07006 -0.6611913,-1.08226 -2.8783835,-1.120909 -2.7971406,-0.04825 -6.7446931,0.99038 -6.7392921,5.212457 -0.075408,4.749203 3.5475871,6.146281 6.0150836,6.171918 2.218305,-0.04039 3.2588761,-0.840098 3.828619,-1.268518 0.7485621,-0.782678 1.6049692,-1.569748 2.4217172,-2.513973 -0.772835,1.404176 -1.4428411,2.375006 -2.1403371,3.118249 v 0.62734 l 3.3719531,-0.567374 0.02306,-9.165622 c -0.03416,-1.297248 0.744137,-6.261335 -6.4163931,-6.273399 z m -0.4843433,7.980133 c 1.3976974,0.01918 3.0005864,0.708094 3.002929,2.366364 0.00723,1.508304 -1.8894078,2.319214 -3.1228615,2.306397 -1.2339793,-0.01281 -2.8711403,-0.969768 -2.8783835,-2.440168 0.02364,-1.314379 1.5439249,-2.266422 2.998316,-2.232593 z"
           id="path2094"
           style="opacity:1;fill:#ffffff;fill-opacity:1;fill-rule:evenodd;stroke:none;stroke-width:0.147609;stop-opacity:1" />
        <path
           inkscape:connector-curvature="0"
           d="m 14.458584,61.53612 -0.02289,15.178223 3.928201,-0.756829 0.0066,-8.605861 c 8.73e-4,-1.28138 1.831174,-2.778674 4.127558,-2.754815 0.487409,-0.88183 1.403573,-3.135547 1.626785,-3.648187 -5.130385,-0.01229 -5.195699,1.474608 -6.087999,2.206048 -0.0093,-1.39533 -0.0031,-2.232948 -0.0031,-2.232948 L 14.45861,61.53612 Z"
           id="path2096"
           style="opacity:1;fill:#ffffff;fill-opacity:1;fill-rule:evenodd;stroke:none;stroke-width:0.147609;stop-opacity:1" />
        <path
           inkscape:connector-curvature="0"
           d="m 36.565711,63.528719 c -0.03793,-0.01781 -2.048727,-2.352036 -6.091306,-2.370445 -3.786547,-0.06294 -8.033757,1.405087 -8.101735,7.754336 0.03315,5.582369 4.079954,7.763973 8.123153,7.806511 4.326861,0.04495 6.048523,-2.705603 6.15179,-2.773764 -0.516282,-0.447567 -2.450007,-2.363684 -2.450007,-2.363684 0,0 -1.207794,1.7198 -3.55119,1.741662 -2.343952,0.02232 -4.38141,-1.811647 -4.410282,-4.370574 -0.03004,-2.55895 1.872988,-3.945335 4.427877,-4.057321 2.211877,-4.49e-4 3.487965,1.427876 3.487965,1.427876 z"
           id="path2098"
           style="opacity:1;fill:#ffffff;fill-opacity:1;fill-rule:evenodd;stroke:none;stroke-width:0.147609;stop-opacity:1" />
        <path
           inkscape:connector-curvature="0"
           d="m 41.517076,56.223997 -3.708686,0.871818 0.02768,19.770435 3.653333,-0.659629 0.04151,-9.304006 c 0.0078,-0.97559 1.411333,-2.473809 3.754814,-2.426329 2.240671,0.02329 2.741456,1.493463 2.735386,1.679057 l 0.06458,10.770874 3.602593,-0.636566 0.01384,-11.421278 c 0.02371,-1.099009 -2.407263,-3.420042 -6.314913,-3.436531 -1.857055,0.003 -2.885493,0.42338 -3.408857,0.733434 -0.89548,0.691646 -1.918891,1.35438 -2.924511,2.200303 0.929658,-1.194307 1.710132,-2.020059 2.472457,-2.633906 l -0.0092,-5.507676 z"
           id="path2100"
           style="opacity:1;fill:#ffffff;fill-opacity:1;fill-rule:evenodd;stroke:none;stroke-width:0.147609;stop-opacity:1" />
      </g>
      <flowRoot
         transform="matrix(0.84405831,0,0,0.84405831,-23.113808,-460.41952)"
         style="font-size:40px;line-height:0;font-family:sans-serif;word-spacing:0px"
         id="flowRoot2110"
         xml:space="preserve"><flowRegion
           style="line-height:1.05"
           id="flowRegion2106"><rect
             style=""
             y="832.8576"
             x="113.66334"
             height="268.26999"
             width="642.02051"
             id="rect2104" /></flowRegion><flowPara
           id="flowPara2108"
           style="font-style:normal;font-variant:normal;font-weight:normal;font-stretch:normal;line-height:1.05;font-family:KaratMedium;-inkscape-font-specification:KaratMedium;fill:#ffffff">user</flowPara></flowRoot>
      <g
         style="font-size:40px;line-height:1.25;font-family:sans-serif;word-spacing:0px;fill:#ffffff"
         id="g2118"
         transform="matrix(0.85368192,0,0,0.85368192,-170.35809,-571.69238)"
         aria-label="gay arch ">
        <path
           inkscape:connector-curvature="0"
           id="path2112"
           style="font-style:normal;font-variant:normal;font-weight:normal;font-stretch:normal;font-family:KaratMedium;-inkscape-font-specification:KaratMedium;fill:#ffffff"
           d="m 273.12602,954.82794 q 0,3.76 -2.88,6 -2.6,2 -6.2,2 -2.96,0 -5.12,-1.24 -2.12,-1.24 -3.76,-3.56 l 2.84,-2.24 q 1.32,1.96 2.32,2.64 1.44,1 3.72,1 2.04,0 3.56,-1.16 1.68,-1.28 1.68,-3.32 0,-2.48 -1.56,-3.8 -1.56,-1.36 -3.76,-1.36 -1.48,0 -2.48,0.32 -0.96,0.28 -2.52,1.16 l 0.72,-2.84 q -2.28,-0.76 -3.36,-2.52 -1.04,-1.8 -1.04,-4.08 0,-3.08 2.08,-5.04 1.72,-1.64 4.32,-2.08 0.72,-0.12 2.44,-0.2 1.76,-0.08 3.04,-0.16 1.48,-0.2 2.64,-0.48 1.16,-0.28 3.28,-1.08 l -0.88,3.76 -2.4,0.6 q 1.32,0.84 1.92,2.12 0.64,1.24 0.64,2.92 0,1.84 -1.04,3.36 -1.16,1.72 -3.16,2.36 2.44,0.92 3.68,2.76 1.28,1.8 1.28,4.16 z m -4.6,-12.8 q 0,-1.92 -1.28,-3.04 -1.24,-1.16 -3.4,-1.16 -2.04,0 -3.4,1.16 -1.32,1.12 -1.32,3.08 0,2 1.24,3.24 1.24,1.24 3.48,1.24 2.04,0 3.36,-1.28 1.32,-1.28 1.32,-3.24 z" />
        <path
           inkscape:connector-curvature="0"
           id="path2114"
           style="font-style:normal;font-variant:normal;font-weight:normal;font-stretch:normal;font-family:KaratMedium;-inkscape-font-specification:KaratMedium;fill:#ffffff"
           d="m 292.12602,955.46794 -3.44,0.64 v -2.8 q -0.8,1.4 -2.32,2.12 -1.48,0.68 -3.92,0.68 -3.24,0 -5.32,-2.24 -2.04,-2.28 -2.04,-5.56 0,-3.32 2.52,-5.36 2.32,-1.88 5.52,-1.88 1.8,0 3.08,0.56 1.28,0.56 2.08,1.4 v -1.56 q 0,-2.04 -1.12,-2.64 -1.08,-0.64 -3.84,-0.64 -1.8,0 -3.12,0.28 -1.32,0.28 -2.64,0.88 l 1.04,-3.96 q 2,-0.44 3.28,-0.6 1.32,-0.2 2.2,-0.2 4.36,0 6.2,1.84 1.84,1.84 1.84,5.76 z m -3.84,-7.16 q 0,-1.88 -1.36,-2.84 -1.36,-1 -3.32,-1 -2.04,0 -3.36,1 -1.32,1 -1.32,2.8 0,1.92 1,3 1.16,1.24 3.4,1.24 2.48,0 3.72,-1.12 1.24,-1.16 1.24,-3.08 z" />
        <path
           inkscape:connector-curvature="0"
           id="path2116"
           style="font-style:normal;font-variant:normal;font-weight:normal;font-stretch:normal;font-family:KaratMedium;-inkscape-font-specification:KaratMedium;fill:#ffffff"
           d="m 312.52602,935.22794 -12.84,26.8 -3.44,-0.96 5.16,-10.12 -7.88,-15.72 3.36,-0.64 6.36,12.44 5.92,-12.44 z" />
      </g>
    </g>
    <g
       id="g1695"
       transform="matrix(0.91582941,0,0,0.91582941,1.1798104,-16.373542)"
       style="stroke-width:1.09191">
      <g
         id="g1703">
        <g
           id="g1157"
           style="fill:#ffffff;stroke-width:9.26144"
           transform="matrix(0.03119387,0,0,0.03119387,176.60939,335.91069)">
          <path
             style="fill:#ffffff;stroke-width:9.26144"
             d="m 256,49.471 c 67.266,0 75.233,0.257 101.8,1.469 24.562,1.121 37.9,5.224 46.778,8.674 a 78.052,78.052 0 0 1 28.966,18.845 78.052,78.052 0 0 1 18.845,28.966 c 3.45,8.877 7.554,22.216 8.674,46.778 1.212,26.565 1.469,34.532 1.469,101.8 0,67.268 -0.257,75.233 -1.469,101.8 -1.121,24.562 -5.225,37.9 -8.674,46.778 a 83.427,83.427 0 0 1 -47.811,47.811 c -8.877,3.45 -22.216,7.554 -46.778,8.674 -26.56,1.212 -34.527,1.469 -101.8,1.469 -67.273,0 -75.237,-0.257 -101.8,-1.469 -24.562,-1.121 -37.9,-5.225 -46.778,-8.674 A 78.051,78.051 0 0 1 78.456,433.547 78.053,78.053 0 0 1 59.611,404.581 c -3.45,-8.877 -7.554,-22.216 -8.674,-46.778 -1.212,-26.564 -1.469,-34.532 -1.469,-101.8 0,-67.268 0.257,-75.233 1.469,-101.8 1.121,-24.562 5.224,-37.9 8.674,-46.778 A 78.052,78.052 0 0 1 78.458,78.458 78.053,78.053 0 0 1 107.424,59.613 c 8.877,-3.45 22.216,-7.554 46.778,-8.674 26.565,-1.212 34.532,-1.469 101.8,-1.469 m 0,-45.391 c -68.418,0 -77,0.29 -103.866,1.516 -26.815,1.224 -45.127,5.482 -61.151,11.71 A 123.488,123.488 0 0 0 46.365,46.362 123.488,123.488 0 0 0 17.3,90.982 C 11.077,107.007 6.819,125.319 5.6,152.134 4.369,179 4.079,187.582 4.079,256 c 0,68.418 0.29,77 1.521,103.866 1.224,26.815 5.482,45.127 11.71,61.151 a 123.489,123.489 0 0 0 29.057,44.62 123.486,123.486 0 0 0 44.62,29.057 c 16.025,6.228 34.337,10.486 61.151,11.71 26.87,1.226 35.449,1.516 103.866,1.516 68.417,0 77,-0.29 103.866,-1.516 26.815,-1.224 45.127,-5.482 61.151,-11.71 a 128.817,128.817 0 0 0 73.677,-73.677 c 6.228,-16.025 10.486,-34.337 11.71,-61.151 1.226,-26.87 1.516,-35.449 1.516,-103.866 0,-68.417 -0.29,-77 -1.516,-103.866 -1.224,-26.815 -5.482,-45.127 -11.71,-61.151 A 123.486,123.486 0 0 0 465.641,46.363 123.487,123.487 0 0 0 421.018,17.3 C 404.993,11.077 386.681,6.819 359.866,5.6 333,4.369 324.418,4.079 256,4.079 v 0 z"
             id="path1007" />
          <path
             style="fill:#ffffff;stroke-width:9.26144"
             d="M 256,126.635 A 129.365,129.365 0 1 0 385.365,256 129.365,129.365 0 0 0 256,126.635 Z m 0,213.338 A 83.973,83.973 0 1 1 339.974,256 83.974,83.974 0 0 1 256,339.973 Z"
             id="path1009" />
          <circle
             style="fill:#ffffff;stroke-width:9.26144"
             cx="390.47601"
             cy="121.524"
             r="30.23"
             id="circle1011" />
        </g>
        <text
           xml:space="preserve"
           transform="matrix(0.36587782,0,0,0.36587782,-82.827611,-130.62369)"
           id="text1306"
           style="font-style:normal;font-variant:normal;font-weight:normal;font-stretch:normal;font-size:40px;line-height:1.25;font-family:KaratMedium;-inkscape-font-specification:KaratMedium;letter-spacing:0px;word-spacing:0px;white-space:pre;shape-inside:url(#rect1308);display:inline;fill:#ffffff;stroke-width:0.789608"><tspan
             x="763.23828"
             y="1307.3957"
             id="tspan67675"><tspan
               style="stroke-width:0.571003"
               id="tspan67673">depau.h</tspan></tspan></text>
      </g>
    </g>
    <g
       id="g1687"
       transform="matrix(0.9158277,0,0,0.9158277,-91.357348,-34.04448)"
       style="stroke-width:1.09191">
      <g
         id="g1709">
        <text
           xml:space="preserve"
           transform="matrix(0.36587782,0,0,0.36587782,-83.178854,-111.32801)"
           id="text1306-5"
           style="font-style:normal;font-variant:normal;font-weight:normal;font-stretch:normal;font-size:40px;line-height:1.25;font-family:KaratMedium;-inkscape-font-specification:KaratMedium;letter-spacing:0px;word-spacing:0px;white-space:pre;shape-inside:url(#rect1308-2);display:inline;fill:#ffffff;stroke-width:0.78961"><tspan
             x="763.23828"
             y="1307.3957"
             id="tspan67679"><tspan
               style="stroke-width:0.571004"
               id="tspan67677">depau.gay</tspan></tspan></text>
        <path
           d="m 184.5872,355.3336 c -4.33783,0 -7.85052,3.52055 -7.85052,7.85839 0,4.33783 3.51269,7.85839 7.85052,7.85839 4.34571,0 7.86626,-3.52056 7.86626,-7.85839 0,-4.33784 -3.52055,-7.85839 -7.86626,-7.85839 z m 5.44589,4.71503 h -2.31822 c -0.25157,-0.98229 -0.61297,-1.9253 -1.08448,-2.79759 1.44594,0.49509 2.64829,1.50094 3.4027,2.79759 z m -5.43802,-3.11191 c 0.65224,0.943 1.16304,1.98815 1.50094,3.11191 h -3.00188 c 0.3379,-1.12376 0.84871,-2.16891 1.50094,-3.11191 z m -6.08242,7.82696 c -0.12563,-0.50296 -0.20434,-1.02947 -0.20434,-1.57169 0,-0.54222 0.0787,-1.06873 0.20434,-1.57169 h 2.65617 c -0.0629,0.51867 -0.10989,1.03731 -0.10989,1.57169 0,0.53438 0.0472,1.05302 0.10989,1.57169 z m 0.6444,1.57166 h 2.31823 c 0.25156,0.9823 0.61297,1.92531 1.08447,2.7976 -1.44594,-0.49509 -2.64829,-1.4931 -3.4027,-2.7976 z m 2.31823,-6.28671 h -2.31823 c 0.75441,-1.30449 1.95676,-2.3025 3.4027,-2.79759 -0.4715,0.87229 -0.833,1.8153 -1.08447,2.79759 z m 3.11979,9.39863 c -0.65223,-0.943 -1.16304,-1.98816 -1.50094,-3.11192 h 3.00188 c -0.3379,1.12376 -0.8487,2.16892 -1.50094,3.11192 z m 1.83885,-4.68358 h -3.67773 c -0.0707,-0.51867 -0.12564,-1.03731 -0.12564,-1.57169 0,-0.53438 0.055,-1.06089 0.12564,-1.57169 h 3.67773 c 0.0707,0.5108 0.12564,1.03731 0.12564,1.57169 0,0.53438 -0.0549,1.05302 -0.12564,1.57169 z m 0.19662,4.36926 c 0.47151,-0.87229 0.833,-1.8153 1.08448,-2.7976 h 2.31822 c -0.7544,1.29666 -1.95676,2.30251 -3.4027,2.7976 z m 1.39093,-4.36926 c 0.0629,-0.51867 0.10989,-1.03731 0.10989,-1.57169 0,-0.53438 -0.0472,-1.05302 -0.10989,-1.57169 h 2.65613 c 0.12564,0.50296 0.20435,1.02947 0.20435,1.57169 0,0.54222 -0.0787,1.06873 -0.20435,1.57169 z"
           id="path1449"
           style="fill:#ffffff;stroke-width:0.2889" />
      </g>
    </g>
  </g>
</svg>
