<svg width="30cm" height="40cm" version="1.1" viewBox="0 0 300 400" xml:space="preserve" xmlns="http://www.w3.org/2000/svg"><g transform="matrix(1.4004 0 0 1.4004 1.7084 -967.08)" fill="#fff" stroke-width=".82861" aria-label="user"><path d="m133.7 866.04-3.76 0.64v-3q-0.84 1.28-2.4 2.16-1.56 0.84-3.8 0.84-3.36 0-5.44-1.52-2.48-1.8-2.48-5.36v-14l3.84-0.64v14.12q0 2 1.2 3t3.28 1q2.28 0 3.76-1.24 1.96-1.64 1.96-4.92v-11.32l3.84-0.64z"/><path d="m150.66 860.16q0 3.04-2.2 4.88-2 1.64-4.76 1.64-2.32 0-4-0.76t-3.16-2.64l2.64-2.24q1 1.16 1.96 1.72 1 0.52 2.28 0.52 1.36 0 2.36-0.68 1.04-0.68 1.04-1.84 0-2.4-5-3.76-4.96-1.4-4.96-5.4 0-2.76 1.84-4.6t4.72-1.84q2.2 0 3.8 0.76 1.32 0.64 2.76 2.08l-2.28 2.52q-1.08-1.08-1.92-1.52-0.8-0.44-2-0.44-1.48 0-2.28 0.6t-0.8 1.88q0 1.76 2.56 2.6 4.44 1.44 4.8 1.64 2.6 1.48 2.6 4.88z"/><path d="m172.02 850.72-14.24 9.08q1.04 1.64 2.44 2.48 1.44 0.8 3.04 0.8 3.04 0 7.6-3.52l0.76 4.04q-2.12 1.44-3.52 2.08-2.24 1-4.52 1-4.84 0-7.8-3.16-2.96-3.2-2.96-8.12 0-4.2 3-7.2 3.04-3.04 7.16-3.04 3.04 0 5.2 1.4t3.84 4.16zm-5.28-0.64q-0.48-0.56-1.4-0.92-0.88-0.4-1.96-0.4-3.2 0-5.08 2.08-1.72 1.92-1.72 4.76l0.08 0.88z"/><path d="m187.7 845.08-1.6 3.84q-3.28 0-4.96 2.4-1.44 2.04-1.44 5.08v9.64l-3.84 0.64v-20.88l3.6-0.64v4.36q0.96-2 2.36-3.12 1.64-1.32 3.92-1.32z"/></g><g transform="matrix(1.4004 0 0 1.4004 13.5 -1062.1)" fill="#fff" stroke-width=".82861" aria-label="gay"><path d="m132.62 865.4q0 3.76-2.88 6-2.6 2-6.2 2-2.96 0-5.12-1.24-2.12-1.24-3.76-3.56l2.84-2.24q1.32 1.96 2.32 2.64 1.44 1 3.72 1 2.04 0 3.56-1.16 1.68-1.28 1.68-3.32 0-2.48-1.56-3.8-1.56-1.36-3.76-1.36-1.48 0-2.48 0.32-0.96 0.28-2.52 1.16l0.72-2.84q-2.28-0.76-3.36-2.52-1.04-1.8-1.04-4.08 0-3.08 2.08-5.04 1.72-1.64 4.32-2.08 0.72-0.12 2.44-0.2 1.76-0.08 3.04-0.16 1.48-0.2 2.64-0.48t3.28-1.08l-0.88 3.76-2.4 0.6q1.32 0.84 1.92 2.12 0.64 1.24 0.64 2.92 0 1.84-1.04 3.36-1.16 1.72-3.16 2.36 2.44 0.92 3.68 2.76 1.28 1.8 1.28 4.16zm-4.6-12.8q0-1.92-1.28-3.04-1.24-1.16-3.4-1.16-2.04 0-3.4 1.16-1.32 1.12-1.32 3.08 0 2 1.24 3.24t3.48 1.24q2.04 0 3.36-1.28t1.32-3.24z"/><path d="m151.62 866.04-3.44 0.64v-2.8q-0.8 1.4-2.32 2.12-1.48 0.68-3.92 0.68-3.24 0-5.32-2.24-2.04-2.28-2.04-5.56 0-3.32 2.52-5.36 2.32-1.88 5.52-1.88 1.8 0 3.08 0.56t2.08 1.4v-1.56q0-2.04-1.12-2.64-1.08-0.64-3.84-0.64-1.8 0-3.12 0.28t-2.64 0.88l1.04-3.96q2-0.44 3.28-0.6 1.32-0.2 2.2-0.2 4.36 0 6.2 1.84t1.84 5.76zm-3.84-7.16q0-1.88-1.36-2.84-1.36-1-3.32-1-2.04 0-3.36 1t-1.32 2.8q0 1.92 1 3 1.16 1.24 3.4 1.24 2.48 0 3.72-1.12 1.24-1.16 1.24-3.08z"/><path d="m172.02 845.8-12.84 26.8-3.44-0.96 5.16-10.12-7.88-15.72 3.36-0.64 6.36 12.44 5.92-12.44z"/></g><g transform="matrix(.78176 0 0 .78176 96.978 2.8001)" stroke-width="1.2792"><g transform="matrix(.45366 0 0 .45366 -63.822 71.464)" fill="#fff" fill-rule="evenodd" stroke-width=".83436"><path d="m339.97 309.09c-14.471-0.0239-26.481 2.9437-31.125 4.5625l-4.7812 25.812c-0.0116 0.0951 23.795-6.3486 34.281-5.9688 17.362 0.62381 18.959 6.6354 18.656 14.75 0.29595 0.47462-4.4793-7.3319-19.5-7.5938-18.95-0.32687-45.693 6.7095-45.656 35.312-0.51086 32.174 24.034 41.639 40.75 41.812 15.028-0.27364 22.078-5.6914 25.938-8.5938 5.0712-5.3024 10.873-10.634 16.406-17.031-5.2357 9.5128-9.7747 16.09-14.5 21.125v4.25l22.844-3.8438 0.15625-62.094c-0.23141-8.7884 5.0412-42.418-43.469-42.5zm-3.2812 54.062c9.4689 0.12995 20.328 4.7971 20.344 16.031 0.049 10.218-12.8 15.712-21.156 15.625-8.3598-0.0868-19.451-6.5698-19.5-16.531 0.16016-8.9044 10.46-15.354 20.312-15.125z"/><path d="m398.5 314.83-0.15505 102.83 26.612-5.1272 0.0449-58.302c6e-3 -8.6809 12.406-18.825 27.963-18.663 3.302-5.9741 9.5087-21.242 11.021-24.715-34.756-0.0833-35.199 9.9899-41.244 14.945-0.0631-9.4528-0.0213-15.127-0.0213-15.127l-24.22 4.1621z"/><path d="m548.27 328.33c-0.25696-0.12068-13.879-15.934-41.266-16.059-25.652-0.42638-54.426 9.519-54.886 52.533 0.22457 37.819 27.64 52.598 55.031 52.886 29.313 0.30451 40.977-18.329 41.676-18.791-3.4976-3.0321-16.598-16.013-16.598-16.013s-8.1824 11.651-24.058 11.799c-15.879 0.1512-29.682-12.273-29.878-29.609-0.20349-17.336 12.689-26.728 29.997-27.487 14.985-3e-3 23.63 9.6733 23.63 9.6733z"/><path d="m581.81 278.84-25.125 5.9062 0.1875 133.94 24.75-4.4688 0.28125-63.031c0.0529-6.6093 9.5613-16.759 25.438-16.438 15.18 0.15775 18.572 10.118 18.531 11.375l0.4375 72.969 24.406-4.3125 0.0937-77.375c0.1607-7.4454-16.308-23.17-42.781-23.281-12.581 0.0202-19.548 2.8682-23.094 4.9688-6.0666 4.6856-13 9.1754-19.812 14.906 6.2981-8.091 11.586-13.685 16.75-17.844l-0.0625-37.312z"/></g></g><g transform="matrix(.91583 0 0 .91583 1.1798 -39.404)" stroke-width="1.0919"><g fill="#fff"><g transform="matrix(.031194 0 0 .031194 176.61 335.91)" stroke-width="9.2614"><path d="m256 49.471c67.266 0 75.233 0.257 101.8 1.469 24.562 1.121 37.9 5.224 46.778 8.674a78.052 78.052 0 0 1 28.966 18.845 78.052 78.052 0 0 1 18.845 28.966c3.45 8.877 7.554 22.216 8.674 46.778 1.212 26.565 1.469 34.532 1.469 101.8s-0.257 75.233-1.469 101.8c-1.121 24.562-5.225 37.9-8.674 46.778a83.427 83.427 0 0 1-47.811 47.811c-8.877 3.45-22.216 7.554-46.778 8.674-26.56 1.212-34.527 1.469-101.8 1.469s-75.237-0.257-101.8-1.469c-24.562-1.121-37.9-5.225-46.778-8.674a78.051 78.051 0 0 1-28.966-18.845 78.053 78.053 0 0 1-18.845-28.966c-3.45-8.877-7.554-22.216-8.674-46.778-1.212-26.564-1.469-34.532-1.469-101.8s0.257-75.233 1.469-101.8c1.121-24.562 5.224-37.9 8.674-46.778a78.052 78.052 0 0 1 18.847-28.967 78.053 78.053 0 0 1 28.966-18.845c8.877-3.45 22.216-7.554 46.778-8.674 26.565-1.212 34.532-1.469 101.8-1.469m0-45.391c-68.418 0-77 0.29-103.87 1.516-26.815 1.224-45.127 5.482-61.151 11.71a123.49 123.49 0 0 0-44.62 29.057 123.49 123.49 0 0 0-29.065 44.62c-6.223 16.025-10.481 34.337-11.7 61.152-1.231 26.866-1.521 35.448-1.521 103.87s0.29 77 1.521 103.87c1.224 26.815 5.482 45.127 11.71 61.151a123.49 123.49 0 0 0 29.057 44.62 123.49 123.49 0 0 0 44.62 29.057c16.025 6.228 34.337 10.486 61.151 11.71 26.87 1.226 35.449 1.516 103.87 1.516s77-0.29 103.87-1.516c26.815-1.224 45.127-5.482 61.151-11.71a128.82 128.82 0 0 0 73.677-73.677c6.228-16.025 10.486-34.337 11.71-61.151 1.226-26.87 1.516-35.449 1.516-103.87s-0.29-77-1.516-103.87c-1.224-26.815-5.482-45.127-11.71-61.151a123.49 123.49 0 0 0-29.057-44.62 123.49 123.49 0 0 0-44.623-29.063c-16.025-6.223-34.337-10.481-61.152-11.7-26.866-1.231-35.448-1.521-103.87-1.521z" fill="#fff" stroke-width="9.2614"/><path d="m256 126.64a129.36 129.36 0 1 0 129.36 129.36 129.36 129.36 0 0 0-129.36-129.36zm0 213.34a83.973 83.973 0 1 1 83.974-83.973 83.974 83.974 0 0 1-83.974 83.973z" fill="#fff" stroke-width="9.2614"/><path d="m420.71 121.52a30.23 30.23 0 0 1-30.23 30.23 30.23 30.23 0 0 1-30.23-30.23 30.23 30.23 0 0 1 30.23-30.23 30.23 30.23 0 0 1 30.23 30.23z"/></g><g transform="matrix(.36588 0 0 .36588 -82.828 -130.62)" stroke-width=".571" style="shape-inside:url(#rect1308);white-space:pre" aria-label="depau.h"><path d="m785.76 1307.4-3.6 0.48v-3.24q-1.36 1.56-3.04 2.4-1.96 1-4.32 1-4.28 0-7.32-3.24t-3.04-7.76q0-4.48 2.96-7.48 3-3.04 7.36-3.04 2.04 0 4.04 0.88 1.68 0.76 3.12 2.04v-9.68l3.84-0.64zm-3.36-10.08q0-3.16-2.12-5.16-2.08-2.04-5.32-2.04-2.84 0-4.76 2.16t-1.92 5.04 2.04 5 4.8 2.12q3.08 0 5.08-1.8 2.2-1.96 2.2-5.32z"/><path d="m808.24 1292.1-14.24 9.08q1.04 1.64 2.44 2.48 1.44 0.8 3.04 0.8 3.04 0 7.6-3.52l0.76 4.04q-2.12 1.44-3.52 2.08-2.24 1-4.52 1-4.84 0-7.8-3.16-2.96-3.2-2.96-8.12 0-4.2 3-7.2 3.04-3.04 7.16-3.04 3.04 0 5.2 1.4t3.84 4.16zm-5.28-0.64q-0.48-0.56-1.4-0.92-0.88-0.4-1.96-0.4-3.2 0-5.08 2.08-1.72 1.92-1.72 4.76l0.08 0.88z"/><path d="m833.16 1297.4q0 4.68-3 7.68t-7.36 3q-2.08 0-4.04-0.8-1.92-0.8-3.08-2.12v9.16l-3.84 0.48v-27.6l3.6-0.64v3.4q1.32-1.52 3.04-2.4 1.96-1 4.36-1 4.04 0 7.16 3.12 3.16 3.08 3.16 7.72zm-3.84-0.04q0-3.2-2.16-5.28-2-1.92-4.76-1.92-3.12 0-5.16 2.08t-2.04 5.08q0 2.88 2 5.04 2.04 2.12 4.88 2.12 3 0 5.04-1.84 2.2-2 2.2-5.28z"/><path d="m852.32 1307.4-3.44 0.64v-2.8q-0.8 1.4-2.32 2.12-1.48 0.68-3.92 0.68-3.24 0-5.32-2.24-2.04-2.28-2.04-5.56 0-3.32 2.52-5.36 2.32-1.88 5.52-1.88 1.8 0 3.08 0.56t2.08 1.4v-1.56q0-2.04-1.12-2.64-1.08-0.64-3.84-0.64-1.8 0-3.12 0.28t-2.64 0.88l1.04-3.96q2-0.44 3.28-0.6 1.32-0.2 2.2-0.2 4.36 0 6.2 1.84t1.84 5.76zm-3.84-7.16q0-1.88-1.36-2.84-1.36-1-3.32-1-2.04 0-3.36 1t-1.32 2.8q0 1.92 1 3 1.16 1.24 3.4 1.24 2.48 0 3.72-1.12 1.24-1.16 1.24-3.08z"/><path d="m874.4 1307.4-3.76 0.64v-3q-0.84 1.28-2.4 2.16-1.56 0.84-3.8 0.84-3.36 0-5.44-1.52-2.48-1.8-2.48-5.36v-14l3.84-0.64v14.12q0 2 1.2 3t3.28 1q2.28 0 3.76-1.24 1.96-1.64 1.96-4.92v-11.32l3.84-0.64z"/><path d="m884.76 1304.3-2.6 3.44-2.6-3.44 2.6-3.44z"/><path d="m907.76 1307.4-3.84 0.64v-14.08q0-4.04-4.52-4.04-2.48 0-4 1.48-1.68 1.64-1.68 4.72v11.28l-3.84 0.64v-28.28l3.84-0.64v9.96h0.24q0.72-1.16 2.28-1.84 1.56-0.72 3.6-0.72 3.32 0 5.44 1.56 2.48 1.84 2.48 5.32z"/></g></g></g><g transform="matrix(.91583 0 0 .91583 -91.357 -57.075)" stroke-width="1.0919"><g fill="#fff"><g transform="matrix(.36588 0 0 .36588 -83.179 -111.33)" stroke-width=".571" style="shape-inside:url(#rect1308-2);white-space:pre" aria-label="depau.gay"><path d="m785.76 1307.4-3.6 0.48v-3.24q-1.36 1.56-3.04 2.4-1.96 1-4.32 1-4.28 0-7.32-3.24t-3.04-7.76q0-4.48 2.96-7.48 3-3.04 7.36-3.04 2.04 0 4.04 0.88 1.68 0.76 3.12 2.04v-9.68l3.84-0.64zm-3.36-10.08q0-3.16-2.12-5.16-2.08-2.04-5.32-2.04-2.84 0-4.76 2.16t-1.92 5.04 2.04 5 4.8 2.12q3.08 0 5.08-1.8 2.2-1.96 2.2-5.32z"/><path d="m808.24 1292.1-14.24 9.08q1.04 1.64 2.44 2.48 1.44 0.8 3.04 0.8 3.04 0 7.6-3.52l0.76 4.04q-2.12 1.44-3.52 2.08-2.24 1-4.52 1-4.84 0-7.8-3.16-2.96-3.2-2.96-8.12 0-4.2 3-7.2 3.04-3.04 7.16-3.04 3.04 0 5.2 1.4t3.84 4.16zm-5.28-0.64q-0.48-0.56-1.4-0.92-0.88-0.4-1.96-0.4-3.2 0-5.08 2.08-1.72 1.92-1.72 4.76l0.08 0.88z"/><path d="m833.16 1297.4q0 4.68-3 7.68t-7.36 3q-2.08 0-4.04-0.8-1.92-0.8-3.08-2.12v9.16l-3.84 0.48v-27.6l3.6-0.64v3.4q1.32-1.52 3.04-2.4 1.96-1 4.36-1 4.04 0 7.16 3.12 3.16 3.08 3.16 7.72zm-3.84-0.04q0-3.2-2.16-5.28-2-1.92-4.76-1.92-3.12 0-5.16 2.08t-2.04 5.08q0 2.88 2 5.04 2.04 2.12 4.88 2.12 3 0 5.04-1.84 2.2-2 2.2-5.28z"/><path d="m852.32 1307.4-3.44 0.64v-2.8q-0.8 1.4-2.32 2.12-1.48 0.68-3.92 0.68-3.24 0-5.32-2.24-2.04-2.28-2.04-5.56 0-3.32 2.52-5.36 2.32-1.88 5.52-1.88 1.8 0 3.08 0.56t2.08 1.4v-1.56q0-2.04-1.12-2.64-1.08-0.64-3.84-0.64-1.8 0-3.12 0.28t-2.64 0.88l1.04-3.96q2-0.44 3.28-0.6 1.32-0.2 2.2-0.2 4.36 0 6.2 1.84t1.84 5.76zm-3.84-7.16q0-1.88-1.36-2.84-1.36-1-3.32-1-2.04 0-3.36 1t-1.32 2.8q0 1.92 1 3 1.16 1.24 3.4 1.24 2.48 0 3.72-1.12 1.24-1.16 1.24-3.08z"/><path d="m874.4 1307.4-3.76 0.64v-3q-0.84 1.28-2.4 2.16-1.56 0.84-3.8 0.84-3.36 0-5.44-1.52-2.48-1.8-2.48-5.36v-14l3.84-0.64v14.12q0 2 1.2 3t3.28 1q2.28 0 3.76-1.24 1.96-1.64 1.96-4.92v-11.32l3.84-0.64z"/><path d="m884.76 1304.3-2.6 3.44-2.6-3.44 2.6-3.44z"/><path d="m906.68 1306.8q0 3.76-2.88 6-2.6 2-6.2 2-2.96 0-5.12-1.24-2.12-1.24-3.76-3.56l2.84-2.24q1.32 1.96 2.32 2.64 1.44 1 3.72 1 2.04 0 3.56-1.16 1.68-1.28 1.68-3.32 0-2.48-1.56-3.8-1.56-1.36-3.76-1.36-1.48 0-2.48 0.32-0.96 0.28-2.52 1.16l0.72-2.84q-2.28-0.76-3.36-2.52-1.04-1.8-1.04-4.08 0-3.08 2.08-5.04 1.72-1.64 4.32-2.08 0.72-0.12 2.44-0.2 1.76-0.08 3.04-0.16 1.48-0.2 2.64-0.48t3.28-1.08l-0.88 3.76-2.4 0.6q1.32 0.84 1.92 2.12 0.64 1.24 0.64 2.92 0 1.84-1.04 3.36-1.16 1.72-3.16 2.36 2.44 0.92 3.68 2.76 1.28 1.8 1.28 4.16zm-4.6-12.8q0-1.92-1.28-3.04-1.24-1.16-3.4-1.16-2.04 0-3.4 1.16-1.32 1.12-1.32 3.08 0 2 1.24 3.24t3.48 1.24q2.04 0 3.36-1.28t1.32-3.24z"/><path d="m925.68 1307.4-3.44 0.64v-2.8q-0.8 1.4-2.32 2.12-1.48 0.68-3.92 0.68-3.24 0-5.32-2.24-2.04-2.28-2.04-5.56 0-3.32 2.52-5.36 2.32-1.88 5.52-1.88 1.8 0 3.08 0.56t2.08 1.4v-1.56q0-2.04-1.12-2.64-1.08-0.64-3.84-0.64-1.8 0-3.12 0.28t-2.64 0.88l1.04-3.96q2-0.44 3.28-0.6 1.32-0.2 2.2-0.2 4.36 0 6.2 1.84t1.84 5.76zm-3.84-7.16q0-1.88-1.36-2.84-1.36-1-3.32-1-2.04 0-3.36 1t-1.32 2.8q0 1.92 1 3 1.16 1.24 3.4 1.24 2.48 0 3.72-1.12 1.24-1.16 1.24-3.08z"/><path d="m946.08 1287.2-12.84 26.8-3.44-0.96 5.16-10.12-7.88-15.72 3.36-0.64 6.36 12.44 5.92-12.44z"/></g><path d="m184.59 355.33c-4.3378 0-7.8505 3.5206-7.8505 7.8584 0 4.3378 3.5127 7.8584 7.8505 7.8584 4.3457 0 7.8663-3.5206 7.8663-7.8584 0-4.3378-3.5206-7.8584-7.8663-7.8584zm5.4459 4.715h-2.3182c-0.25157-0.98229-0.61297-1.9253-1.0845-2.7976 1.4459 0.49509 2.6483 1.5009 3.4027 2.7976zm-5.438-3.1119c0.65224 0.943 1.163 1.9882 1.5009 3.1119h-3.0019c0.3379-1.1238 0.84871-2.1689 1.5009-3.1119zm-6.0824 7.827c-0.12563-0.50296-0.20434-1.0295-0.20434-1.5717s0.0787-1.0687 0.20434-1.5717h2.6562c-0.0629 0.51867-0.10989 1.0373-0.10989 1.5717s0.0472 1.053 0.10989 1.5717zm0.6444 1.5717h2.3182c0.25156 0.9823 0.61297 1.9253 1.0845 2.7976-1.4459-0.49509-2.6483-1.4931-3.4027-2.7976zm2.3182-6.2867h-2.3182c0.75441-1.3045 1.9568-2.3025 3.4027-2.7976-0.4715 0.87229-0.833 1.8153-1.0845 2.7976zm3.1198 9.3986c-0.65223-0.943-1.163-1.9882-1.5009-3.1119h3.0019c-0.3379 1.1238-0.8487 2.1689-1.5009 3.1119zm1.8388-4.6836h-3.6777c-0.0707-0.51867-0.12564-1.0373-0.12564-1.5717s0.055-1.0609 0.12564-1.5717h3.6777c0.0707 0.5108 0.12564 1.0373 0.12564 1.5717s-0.0549 1.053-0.12564 1.5717zm0.19662 4.3693c0.47151-0.87229 0.833-1.8153 1.0845-2.7976h2.3182c-0.7544 1.2967-1.9568 2.3025-3.4027 2.7976zm1.3909-4.3693c0.0629-0.51867 0.10989-1.0373 0.10989-1.5717s-0.0472-1.053-0.10989-1.5717h2.6561c0.12564 0.50296 0.20435 1.0295 0.20435 1.5717s-0.0787 1.0687-0.20435 1.5717z" stroke-width=".2889"/></g></g><g><path d="m155.59 195.17v-3.5914h0.71534l0.85007 2.5429c0.0784 0.23681 0.13556 0.41402 0.17149 0.53162 0.0407-0.13065 0.10449-0.32256 0.19107-0.5757l0.8599-2.4988h0.63939v3.5914h-0.45811v-3.0059l-1.0436 3.0059h-0.42871l-1.0387-3.0573v3.0573h-0.4581" fill="#fff"/><path d="m152.25 191.58v0.42403h1.1832v3.1673h0.47539v-3.1673h1.1885v-0.42403z" fill="#fff" stroke-width=".26458"/><path d="m36.785 222.88c-4.2633 7.7621-8.8556 16.079-14.111 25.521 20.771-11.992 36.874-19.384 51.88-22.205-0.24887-1.0704-0.44148-2.1837-0.60088-3.3161zm66.24 0c-0.13961 1.1738-0.33033 2.3157-0.57303 3.4145 14.843 2.9035 30.773 10.277 51.263 22.106-4.0403-7.4384-7.647-14.144-11.091-20.53-1.9495-1.511-3.9401-3.1908-6.2121-4.9914z" fill="#880082" stroke-width=".26458"/><g stroke-width=".26458"><path d="m47.802 202.58c-3.3815 6.2671-7.2415 13.337-11.45 20.995h37.706c-0.32905-2.0345-0.51346-4.1606-0.49599-6.3567l0.0243-0.66548c0.13183-5.3229 1.3313-10.137 3.2326-13.973zm52.029 0c2.2808 4.48 3.6072 10.261 3.453 16.487-0.0383 1.5477-0.17103 3.0521-0.3757 4.5084h34.465c-4.2284-3.4005-9.379-7.2782-17.38-11.385 7.9331 2.0613 13.613 4.4397 18.041 7.098-3.3324-6.2042-6.125-11.463-8.9101-16.709z" fill="#3558a0"/><path d="m58.103 183.23c-3.1552 6.0311-6.7536 12.794-10.939 20.539h29.088c2.8069-6.4608 7.5324-10.505 12.786-10.06 4.6985 0.39813 8.7949 4.3002 11.377 10.06h29.327c-4.1048-7.7219-7.6787-14.518-10.804-20.539z" fill="#138f3e"/><path d="m68.157 163.47c-2.8658 5.8409-6.2698 12.54-10.462 20.539h61.646c-4.1519-7.9894-7.5698-14.715-10.45-20.539h-27.559c2.2438 1.9127 4.8055 3.9186 7.8044 6.0159-4.8444-1.9934-8.8134-3.9917-12.137-6.0159z" fill="#fad220"/><path d="m77.311 143.7c-1.5067 3.4816-3.1061 7.0819-4.9819 11.09 2.6783 2.839 5.7923 5.9997 9.9424 9.4494h27.004c-4.0167-8.1002-7.0593-14.579-9.7344-20.539zm-6.8799 15.082c-0.82414 1.7197-1.7361 3.5771-2.6613 5.4565h10.542c-3.1072-1.7951-5.6832-3.6089-7.8802-5.4565z" fill="#ff7300"/><path d="m88.176 117.26c-4.2685 10.465-7.3125 18.298-11.175 27.176h22.862c-4.0372-8.9566-7.2355-16.73-11.687-27.176z" fill="#ff000e"/><path d="m141.81 218.64v0.4278h1.1938v3.1954h0.47961v-3.1954h1.199v-0.4278z" fill="#fff"/></g><path d="m145.18 222.26v-3.6232h0.72168l0.85761 2.5654c0.079 0.23891 0.13676 0.41769 0.17301 0.53633 0.0411-0.13181 0.10547-0.32542 0.19278-0.58081l0.86752-2.5209h0.64503v3.6232h-0.46215v-3.0325l-1.0529 3.0325h-0.43251l-1.0479-3.0844v3.0844h-0.46217" fill="#fff"/></g></svg>
