<?xml version="1.0" encoding="UTF-8"?>
<svg width="30cm" height="40cm" version="1.1" viewBox="0 0 300 400" xmlns="http://www.w3.org/2000/svg" xmlns:cc="http://creativecommons.org/ns#" xmlns:dc="http://purl.org/dc/elements/1.1/" xmlns:rdf="http://www.w3.org/1999/02/22-rdf-syntax-ns#">
 <metadata>
  <rdf:RDF>
   <cc:Work rdf:about="">
    <dc:format>image/svg+xml</dc:format>
    <dc:type rdf:resource="http://purl.org/dc/dcmitype/StillImage"/>
    <dc:title/>
   </cc:Work>
  </rdf:RDF>
 </metadata>
 <path d="m210.16 163.99v-3.2697h-1.2214v-0.43747h2.9385v0.43747h-1.2265v3.2697h-0.49059" fill="#fff"/>
 <path d="m149.94 55.378c-5.3081 13.014-8.5097 21.527-14.42 34.154 3.6235 3.8409 8.0712 8.3139 15.294 13.366-7.7655-3.1954-13.062-6.4036-17.021-9.7327-7.5636 15.783-19.413 38.264-43.461 81.472 18.9-10.912 33.552-17.639 47.206-20.205-0.58632-2.5218-0.91966-5.2495-0.89702-8.0957l0.0225-0.60549c0.29991-12.109 6.599-21.421 14.061-20.789 7.4619 0.63225 13.262 10.967 12.962 23.076-0.0564 2.2786-0.31341 4.4705-0.76247 6.5034 13.506 2.642 28.001 9.3518 46.645 20.116-3.6764-6.7684-6.9578-12.87-10.092-18.68-4.9361-3.8258-10.085-8.805-20.587-14.195 7.2185 1.8757 12.387 4.0397 16.416 6.4586-31.861-59.32-34.441-67.202-45.367-92.842z" fill="#1793d1" fill-rule="evenodd"/>
 <g fill="#fff">
  <path d="m212.39 163.99v-3.7072h0.73841l0.87749 2.6249c0.0809 0.24446 0.13992 0.42737 0.17701 0.54876 0.0421-0.13488 0.1079-0.33296 0.19725-0.59427l0.88761-2.5794h0.66001v3.7072h-0.47288v-3.1028l-1.0773 3.1028h-0.44254l-1.0722-3.1559v3.1559h-0.47288"/>
  <g fill-rule="evenodd">
   <path d="m59.063 233.47c-4.2822-7e-3 -7.836 0.87105-9.2101 1.3501l-1.4148 7.6381c-0.0034 0.0281 7.0412-1.8786 10.144-1.7662 5.1374 0.18459 5.6102 1.9635 5.5205 4.3646 0.08757 0.14045-1.3255-2.1696-5.7702-2.247-5.6073-0.0967-13.521 1.9854-13.51 10.449-0.15117 9.5206 7.1117 12.321 12.058 12.373 4.447-0.081 6.533-1.6841 7.6751-2.543 1.5006-1.569 3.2174-3.1468 4.8547-5.0397-1.5493 2.8149-2.8924 4.7611-4.2907 6.251v1.2576l6.7596-1.1374 0.04624-18.374c-0.06848-2.6006 1.4917-12.552-12.863-12.576zm-0.97095 15.997c2.8019 0.0384 6.0152 1.4195 6.0199 4.7438 0.0145 3.0236-3.7876 4.6492-6.2603 4.6236-2.4737-0.0257-5.7557-1.9441-5.7702-4.8917 0.04739-2.6349 3.0951-4.5434 6.0106-4.4756z"/>
   <path d="m76.383 235.17-0.04588 30.427 7.8747-1.5172 0.01329-17.252c0.0018-2.5687 3.6709-5.5703 8.2744-5.5225 0.97709-1.7678 2.8137-6.2857 3.2612-7.3134-10.285-0.0246-10.416 2.9561-12.204 4.4224-0.01867-2.7972-0.0063-4.4763-0.0063-4.4763l-7.1669 1.2316z"/>
   <path d="m120.7 239.16c-0.076-0.0357-4.107-4.715-12.211-4.7519-7.5908-0.12617-16.105 2.8167-16.241 15.545 0.06645 11.191 8.1789 15.564 16.284 15.649 8.6739 0.0901 12.125-5.4238 12.332-5.5605-1.035-0.89722-4.9114-4.7384-4.9114-4.7384s-2.4212 3.4476-7.119 3.4914c-4.6988 0.0447-8.7832-3.6317-8.8411-8.7615-0.06021-5.1298 3.7547-7.9091 8.8764-8.1336 4.4341-8.9e-4 6.9922 2.8624 6.9922 2.8624z"/>
   <path d="m130.63 224.52-7.4347 1.7477 0.0555 39.633 7.3237-1.3223 0.0832-18.651c0.0156-1.9557 2.8292-4.9592 7.5271-4.864 4.4918 0.0467 5.4957 2.9939 5.4835 3.3659l0.12946 21.592 7.222-1.2761 0.0277-22.896c0.0476-2.2032-4.8258-6.856-12.659-6.8891-3.7228 6e-3 -5.7844 0.84874-6.8336 1.4703-1.7951 1.3865-3.8467 2.7151-5.8627 4.4109 1.8636-2.3942 3.4282-4.0495 4.9564-5.2801l-0.0185-11.041z"/>
  </g>
 </g>
 <g fill="#1793d1" fill-rule="evenodd">
  <path d="m157.32 225.55 3.3533-0.83927 0.15867 39.957-3.407 0.58014z"/>
  <path d="m166.43 237.47 2.9388-1.3084 0.0251 28.65-2.8383 0.58667zm-0.69845-10.331 2.3697-1.9343 1.9685 2.1902-2.3707 1.9855z"/>
  <path d="m174.9 236.95 3.3537-0.6843 0.0159 5.9896c5.7e-4 0.25723 1.8414-6.6912 10.722-6.5366 8.6221 0.048 10.033 6.723 9.986 8.2195l0.10636 21.062-2.9395 0.63798-0.017-20.804c0.0341-0.60755-1.3436-5.7452-7.4366-5.7641-6.0919-0.0177-10.313 4.4249-10.305 7.2632l0.0485 18.327-3.4062 0.88988z"/>
  <path d="m228.35 265.15-3.3538 0.68423-0.0158-5.9895c-5.8e-4 -0.25734-1.8425 6.6911-10.722 6.5366-8.6221-0.0479-10.033-6.723-9.986-8.2195l-0.10636-21.063 3.5632-0.71945 0.055 20.805c2e-3 0.56812 0.68195 5.8264 6.7749 5.8452 6.0919 0.0177 10.36-3.6684 10.39-9.2191l-0.0435-16.415 3.3165-0.84636z"/>
  <path d="m234.92 236.72-2.3515 1.84 9.0158 11.799-9.6162 13.632 2.4948 1.8514 9.0398-12.659 9.3297 12.959 2.3078-1.8404-9.9986-13.856 7.9765-11.205-2.4528-2.074-7.2662 10.368z"/>
 </g>
 <g fill="#fff">
  <path d="m259.53 263.4v-2.4724h-0.92355v-0.3308h2.2219v0.3308h-0.92738v2.4724h-0.37095"/>
  <path d="m261.21 263.4v-2.8032h0.55833l0.66351 1.9848c0.0612 0.18483 0.1058 0.32315 0.13385 0.41493 0.0319-0.10198 0.0816-0.25177 0.14914-0.44935l0.67116-1.9504h0.49906v2.8032h-0.35757v-2.3462l-0.81456 2.3462h-0.33462l-0.81074-2.3863v2.3863h-0.35756"/>
  <g transform="matrix(1.3378 0 0 1.3394 -129.36 -191.98)" aria-label="btw I use">
   <path d="m151.78 295.77q0 4.96-3.32 8-3.12 2.88-7.72 2.88-4.12 0-7.12-2.68-2.96-2.72-2.96-6.52v-19.08l3.84-0.64v10.56q2.64-3.16 7-3.16 4.28 0 7.28 3.12t3 7.52zm-3.84 0.08q0-2.92-1.96-5-1.92-2.12-4.72-2.12-3.08 0-5.12 2.08t-2.04 5.12q0 2.92 2 5.04 2.04 2.08 5.04 2.08 2.88 0 4.84-2.08t1.96-5.12z"/>
   <path d="m166.39 303.01-0.68 3.48q-0.72 0.08-1.28 0.12-0.52 0.04-1.6 0.04-2.92 0-4.68-1.76t-1.76-4.64v-11.08h-3.16l1.36-3.4h1.8v-4.96l3.84-0.92v5.88h5.4v3.4h-5.4v10.56q0 1.96 0.68 2.76 0.72 0.76 2.84 0.76 0.44 0 1.32-0.08t1.32-0.16z"/>
   <path d="m197.83 285.77-8.92 20.88-7.08-13.88-7.12 13.88-8.76-20.88 3.72-0.64 5.32 13.12 6.8-13.12 6.88 13.12 5.44-13.12z"/>
   <path d="m214.94 306.01-3.92 0.32v-27.76l3.92-0.64z"/>
   <path d="m248.58 306.01-3.76 0.64v-3q-0.84 1.28-2.4 2.16-1.56 0.84-3.8 0.84-3.36 0-5.44-1.52-2.48-1.8-2.48-5.36v-14l3.84-0.64v14.12q0 2 1.2 3t3.28 1q2.28 0 3.76-1.24 1.96-1.64 1.96-4.92v-11.32l3.84-0.64z"/>
   <path d="m265.56 300.13q0 3.04-2.2 4.88-2 1.64-4.76 1.64-2.32 0-4-0.76t-3.16-2.64l2.64-2.24q1 1.16 1.96 1.72 1 0.52 2.28 0.52 1.36 0 2.36-0.68 1.04-0.68 1.04-1.84 0-2.4-5-3.76-4.96-1.4-4.96-5.4 0-2.76 1.84-4.6t4.72-1.84q2.2 0 3.8 0.76 1.32 0.64 2.76 2.08l-2.28 2.52q-1.08-1.08-1.92-1.52-0.8-0.44-2-0.44-1.48 0-2.28 0.6t-0.8 1.88q0 1.76 2.56 2.6 4.44 1.44 4.8 1.64 2.6 1.48 2.6 4.88z"/>
   <path d="m286.91 290.69-14.24 9.08q1.04 1.64 2.44 2.48 1.44 0.8 3.04 0.8 3.04 0 7.6-3.52l0.76 4.04q-2.12 1.44-3.52 2.08-2.24 1-4.52 1-4.84 0-7.8-3.16-2.96-3.2-2.96-8.12 0-4.2 3-7.2 3.04-3.04 7.16-3.04 3.04 0 5.2 1.4t3.84 4.16zm-5.28-0.64q-0.48-0.56-1.4-0.92-0.88-0.4-1.96-0.4-3.2 0-5.08 2.08-1.72 1.92-1.72 4.76l0.08 0.88z"/>
  </g>
 </g>
 <g stroke-width=".04828">
  <path transform="rotate(-90)" d="m-282.61 44.976h4.139v210.05h-4.139z" fill="#750787"/>
  <path transform="rotate(-90)" d="m-282.61 44.976h4.139v175.04h-4.139z" fill="#004dff"/>
  <path transform="rotate(-90)" d="m-282.61 44.976h4.139v140.03h-4.139z" fill="#008026"/>
  <path transform="rotate(-90)" d="m-282.61 44.976h4.139v105.02h-4.139z" fill="#ffed00"/>
  <path transform="rotate(-90)" d="m-282.61 44.976h4.139v70.016h-4.139z" fill="#ff8c00"/>
  <path transform="rotate(-90)" d="m-282.61 44.976h4.139v35.008h-4.139z" fill="#e40303"/>
 </g>
</svg>
