<svg width="30cm" height="40cm" version="1.1" viewBox="0 0 300 400" xmlns="http://www.w3.org/2000/svg">
 <g>
  <g stroke-width=".26458">
   <path d="m121.47 150.74c-2.593 4.8015-5.5792 10.263-8.8633 16.228h26.538c0.43949-0.0932 0.87788-0.18266 1.3145-0.26473-0.45094-1.9395-0.7072-4.0374-0.68978-6.2264l0.0174-0.46581c0.0864-3.4886 0.82041-6.675 2.0062-9.2709zm36.946 0c1.439 3.0581 2.2566 6.9099 2.1546 11.03-0.0434 1.7525-0.24091 3.4381-0.58628 5.0017 0.30464 0.0596 0.61235 0.13106 0.91835 0.19604h26.053c-3.484-2.804-7.4154-6.2753-14.691-10.01 5.5518 1.4426 9.5271 3.1069 12.626 4.9673-2.1821-4.0627-4.1291-7.7126-5.9745-11.185z" fill="#3558a0"/>
   <path d="m129.42 135.78c-2.392 4.5855-5.183 9.8289-8.4529 15.875h20.433c1.9263-4.8661 5.36-7.9598 9.1954-7.6349 3.4474 0.2921 6.4323 3.279 8.2175 7.6349h20.584c-3.2148-6.0433-5.9714-11.288-8.3476-15.875z" fill="#138f3e"/>
   <path d="m137.13 120.51c-2.1389 4.4322-4.723 9.5657-8.0205 15.875h42.255c-3.262-6.2892-5.8788-11.467-8.0315-15.875h-20.739c2.1327 2.0184 4.7076 4.2067 8.0741 6.5612-5.2507-2.1606-9.0334-4.3289-11.94-6.5612z" fill="#fad220"/>
   <path d="m144.01 105.23c-1.5106 3.617-3.1035 7.2786-5.1061 11.557 1.2632 1.339 2.6713 2.7828 4.3348 4.3178h20.389c-3.0749-6.2759-5.3018-11.151-7.3628-15.875zm-6.4339 14.351c-0.23684 0.49421-0.48833 1.0118-0.73651 1.5239h2.6937c-0.6974-0.5048-1.3489-1.0123-1.9572-1.5239z" fill="#ff7300"/>
   <path d="m150 90.522c-2.3773 5.8284-4.2103 10.486-6.22 15.275h12.737c-2.1079-4.8133-4.0346-9.4502-6.5168-15.275z" fill="#ff000e"/>
  </g>
  <path d="m112.94 166.37c-2.6935 4.8948-5.5487 10.062-8.7836 15.875 14.536-8.3921 25.805-13.566 36.306-15.54-0.0257-0.11049-0.0484-0.22332-0.0729-0.33483zm47.126 0c-0.027 0.13376-0.0487 0.27149-0.0779 0.40353 10.381 2.0306 21.52 7.186 35.846 15.455a14.111 14.111 0 0 0 0.0192-2e-3c-2.8234-5.1982-5.3444-9.8857-7.7517-14.35-0.61595-0.47741-1.2447-0.9857-1.8862-1.5074z" fill="#880082" fill-rule="evenodd"/>
 </g>
 <g fill="#fff">
  <g>
   <path d="m195.11 171.21v0.33665h0.93941v2.5146h0.37742v-2.5146h0.94353v-0.33665z" stroke-width=".26458"/>
   <path d="m197.76 174.06v-2.8512h0.56792l0.67489 2.0188c0.0622 0.18801 0.10761 0.32869 0.13614 0.42205 0.0324-0.10373 0.083-0.25608 0.1517-0.45705l0.68268-1.9838h0.50761v2.8512h-0.36369v-2.3864l-0.82854 2.3864h-0.34036l-0.82465-2.4273v2.4273h-0.3637"/>
   <g fill-rule="evenodd">
    <path d="m156 204.24c-3.4216-6e-3 -6.2612 0.696-7.3592 1.0788l-1.1305 6.1031c-3e-3 0.0225 5.6262-1.501 8.1054-1.4112 4.105 0.14749 4.4828 1.5689 4.4111 3.4875 0.07 0.11222-1.0591-1.7336-4.6106-1.7955-4.4804-0.0773-10.804 1.5864-10.795 8.3493-0.12079 7.6072 5.6825 9.845 9.6349 9.8861 3.5533-0.0647 5.22-1.3457 6.1326-2.0319 1.199-1.2537 2.5708-2.5144 3.8791-4.0269-1.2379 2.2492-2.3111 3.8043-3.4284 4.9948v1.0049l5.4012-0.90882 0.0369-14.681c-0.0547-2.0779 1.192-10.029-10.278-10.049zm-0.77582 12.782c2.2388 0.0307 4.8063 1.1342 4.8101 3.7904 0.0116 2.416-3.0264 3.7149-5.0022 3.6944-1.9766-0.0205-4.599-1.5534-4.6106-3.9086 0.0379-2.1054 2.473-3.6303 4.8027-3.5762z"/>
    <path d="m169.84 205.6-0.0367 24.312 6.2922-1.2123 0.0106-13.785c1e-3 -2.0525 2.9332-4.4508 6.6115-4.4126 0.78072-1.4125 2.2482-5.0225 2.6058-5.8436-8.2178-0.0197-8.3224 2.362-9.7517 3.5336-0.0149-2.235-5e-3 -3.5767-5e-3 -3.5767z"/>
    <path d="m205.25 208.79c-0.0608-0.0285-3.2816-3.7675-9.757-3.797-6.0653-0.10082-12.868 2.2506-12.977 12.421 0.0531 8.9418 6.5352 12.436 13.012 12.504 6.9307 0.072 9.6885-4.3338 9.8539-4.443-0.82697-0.71691-3.9244-3.7861-3.9244-3.7861s-1.9346 2.7548-5.6883 2.7898c-3.7545 0.0358-7.0181-2.9019-7.0643-7.0007-0.0481-4.0989 3.0001-6.3196 7.0925-6.499 3.543-7.2e-4 5.587 2.2872 5.587 2.2872z"/>
    <path d="m213.18 197.09-5.9405 1.3965 0.0443 31.668 5.8519-1.0566 0.0665-14.903c0.0125-1.5627 2.2607-3.9625 6.0144-3.8865 3.5891 0.0373 4.3912 2.3922 4.3815 2.6895l0.10344 17.253 5.7706-1.0196 0.0222-18.294c0.038-1.7604-3.8559-5.4782-10.115-5.5046-2.9746 5e-3 -4.622 0.67817-5.4603 1.1748-1.4344 1.1079-3.0737 2.1694-4.6845 3.5244 1.4891-1.913 2.7393-3.2357 3.9604-4.219l-0.0147-8.8221z"/>
   </g>
  </g>
  <g stroke-width="1.1604">
   <path d="m128.61 266.14-4.3631 0.74266v-3.4812q-0.97474 1.4853-2.785 2.5065-1.8102 0.97474-4.4095 0.97474-3.899 0-6.3126-1.7638-2.8778-2.0887-2.8778-6.2198v-16.246l4.456-0.74266v16.385q0 2.3208 1.3925 3.4812 1.3925 1.1604 3.8061 1.1604 2.6457 0 4.3631-1.4389 2.2744-1.9031 2.2744-5.7092v-13.136l4.4559-0.74266z"/>
   <path d="m148.29 259.32q0 3.5276-2.5529 5.6628-2.3208 1.9031-5.5235 1.9031-2.6921 0-4.6416-0.88191-1.9495-0.8819-3.6669-3.0635l3.0635-2.5993q1.1604 1.3461 2.2744 1.9959 1.1604 0.60341 2.6457 0.60341 1.5782 0 2.7386-0.78908 1.2068-0.78907 1.2068-2.1351 0-2.785-5.802-4.3631-5.7556-1.6246-5.7556-6.2662 0-3.2027 2.1352-5.3378 2.1351-2.1351 5.4771-2.1351 2.5529 0 4.4095 0.88191 1.5317 0.74265 3.2027 2.4136l-2.6457 2.9242q-1.2532-1.2532-2.228-1.7638-0.92832-0.51058-2.3208-0.51058-1.7174 0-2.6457 0.69624-0.92832 0.69624-0.92832 2.1816 0 2.0423 2.9706 3.017 5.1522 1.671 5.5699 1.9031 3.017 1.7174 3.017 5.6628z"/>
   <path d="m173.08 248.36-16.524 10.536q1.2068 1.9031 2.8314 2.8778 1.671 0.92832 3.5276 0.92832 3.5276 0 8.8191-4.0846l0.88191 4.688q-2.4601 1.671-4.0846 2.4136-2.5993 1.1604-5.245 1.1604-5.6164 0-9.0511-3.6669-3.4348-3.7133-3.4348-9.4225 0-4.8737 3.4812-8.3549 3.5276-3.5276 8.3085-3.5276 3.5276 0 6.0341 1.6246 2.5065 1.6246 4.456 4.8273zm-6.1269-0.74266q-0.55699-0.64982-1.6246-1.0676-1.0212-0.46416-2.2744-0.46416-3.7133 0-5.8948 2.4136-1.9959 2.228-1.9959 5.5235l0.0928 1.0212z"/>
   <path d="m191.27 241.82-1.8566 4.4559q-3.8061 0-5.7556 2.785-1.671 2.3672-1.671 5.8948v11.186l-4.456 0.74266v-24.229l4.1774-0.74266v5.0594q1.114-2.3208 2.7386-3.6205 1.9031-1.5317 4.5488-1.5317z"/>
  </g>
  <g stroke-width="1.1736">
   <path d="m91.581 228.82q0 4.4129-3.3801 7.0418-3.0514 2.3473-7.2765 2.3473-3.474 0-6.009-1.4553-2.4881-1.4553-4.4129-4.1781l3.3331-2.6289q1.5492 2.3003 2.7228 3.0984 1.69 1.1736 4.3659 1.1736 2.3942 0 4.1781-1.3614 1.9717-1.5022 1.9717-3.8965 0-2.9106-1.8309-4.4598-1.8309-1.5962-4.4129-1.5962-1.737 0-2.9106 0.37557-1.1267 0.32861-2.9576 1.3614l0.84502-3.3331q-2.6759-0.89196-3.9434-2.9576-1.2206-2.1125-1.2206-4.7884 0-3.6148 2.4412-5.9151 2.0186-1.9248 5.0701-2.4412 0.84502-0.14083 2.8637-0.23472 2.0656-0.0939 3.5678-0.18778 1.737-0.23473 3.0984-0.56335 1.3614-0.32862 3.8495-1.2675l-1.0328 4.4129-2.8167 0.70418q1.5492 0.98585 2.2534 2.4881 0.75112 1.4553 0.75112 3.427 0 2.1595-1.2206 3.9434-1.3614 2.0186-3.7087 2.7698 2.8637 1.0798 4.319 3.2392 1.5022 2.1125 1.5022 4.8823zm-5.3987-15.023q0-2.2534-1.5023-3.5678-1.4553-1.3614-3.9904-1.3614-2.3942 0-3.9904 1.3614-1.5492 1.3145-1.5492 3.6148 0 2.3473 1.4553 3.8026 1.4553 1.4553 4.0842 1.4553 2.3942 0 3.9434-1.5022t1.5492-3.8026z"/>
   <path d="m113.88 229.57-4.0373 0.75113v-3.2862q-0.93891 1.6431-2.7228 2.4881-1.737 0.79807-4.6006 0.79807-3.8026 0-6.2437-2.6289-2.3942-2.6759-2.3942-6.5254 0-3.8965 2.9576-6.2907 2.7228-2.2064 6.4785-2.2064 2.1125 0 3.6148 0.65724 1.5022 0.65723 2.4412 1.6431v-1.8309q0-2.3942-1.3145-3.0984-1.2675-0.75112-4.5068-0.75112-2.1125 0-3.6617 0.32862-1.5492 0.32861-3.0984 1.0328l1.2206-4.6476q2.3473-0.51639 3.8495-0.70418 1.5492-0.23472 2.582-0.23472 5.117 0 7.2765 2.1595 2.1595 2.1595 2.1595 6.7601zm-4.5068-8.4032q0-2.2064-1.5961-3.3331-1.5961-1.1736-3.8965-1.1736-2.3942 0-3.9434 1.1736-1.5492 1.1736-1.5492 3.2862 0 2.2534 1.1736 3.5209 1.3614 1.4553 3.9904 1.4553 2.9106 0 4.3659-1.3145 1.4553-1.3614 1.4553-3.6148z"/>
   <path d="m137.82 205.82-15.069 31.453-4.0373-1.1267 6.056-11.877-9.2482-18.45 3.9434-0.75112 7.4643 14.6 6.9479-14.6z"/>
  </g>
  <g stroke-width=".26458">
   <path d="m170.24 292.68c1.9217 0 2.1493 7e-3 2.9082 0.042 0.7017 0.032 1.0827 0.14924 1.3364 0.2478a2.2298 2.2298 0 0 1 0.82751 0.53837 2.2298 2.2298 0 0 1 0.53837 0.82751c0.0986 0.2536 0.2158 0.63467 0.2478 1.3364 0.0346 0.75892 0.042 0.98652 0.042 2.9082s-7e-3 2.1493-0.042 2.9082c-0.032 0.70169-0.14927 1.0827-0.2478 1.3364a2.3834 2.3834 0 0 1-1.3659 1.3659c-0.2536 0.0986-0.63467 0.21581-1.3364 0.2478-0.75877 0.0346-0.98637 0.042-2.9082 0.042-1.9219 0-2.1494-7e-3 -2.9082-0.042-0.7017-0.032-1.0827-0.14927-1.3364-0.2478a2.2298 2.2298 0 0 1-0.82751-0.53837 2.2298 2.2298 0 0 1-0.53837-0.8275c-0.0986-0.25361-0.2158-0.63468-0.2478-1.3364-0.0346-0.75889-0.042-0.98652-0.042-2.9082s7e-3 -2.1493 0.042-2.9082c0.032-0.70169 0.14924-1.0827 0.2478-1.3364a2.2298 2.2298 0 0 1 0.53843-0.82754 2.2298 2.2298 0 0 1 0.82751-0.53837c0.2536-0.0986 0.63467-0.2158 1.3364-0.2478 0.75892-0.0346 0.98652-0.042 2.9082-0.042m0-1.2967c-1.9546 0-2.1998 8e-3 -2.9673 0.0433-0.76606 0.035-1.2892 0.15661-1.747 0.33453a3.5278 3.5278 0 0 0-1.2747 0.83011 3.5278 3.5278 0 0 0-0.83034 1.2747c-0.17778 0.4578-0.29942 0.98095-0.33425 1.747-0.0352 0.76752-0.0434 1.0127-0.0434 2.9673 0 1.9546 8e-3 2.1998 0.0434 2.9673 0.035 0.76605 0.15661 1.2892 0.33454 1.747a3.5279 3.5279 0 0 0 0.8301 1.2747 3.5278 3.5278 0 0 0 1.2747 0.83011c0.45781 0.17792 0.98095 0.29956 1.747 0.33453 0.76763 0.035 1.0127 0.0433 2.9673 0.0433 1.9546 0 2.1998-8e-3 2.9673-0.0433 0.76606-0.035 1.2892-0.15661 1.747-0.33453a3.6801 3.6801 0 0 0 2.1048-2.1048c0.17792-0.4578 0.29957-0.98095 0.33454-1.747 0.035-0.76763 0.0433-1.0127 0.0433-2.9673 0-1.9546-8e-3 -2.1998-0.0433-2.9673-0.035-0.76605-0.15662-1.2892-0.33454-1.747a3.5278 3.5278 0 0 0-0.83011-1.2747 3.5278 3.5278 0 0 0-1.2748-0.83028c-0.4578-0.17778-0.98095-0.29942-1.747-0.33425-0.76752-0.0352-1.0127-0.0435-2.9673-0.0435z"/>
   <path d="m170.24 294.88a3.6957 3.6957 0 1 0 3.6957 3.6957 3.6957 3.6957 0 0 0-3.6957-3.6957zm0 6.0947a2.399 2.399 0 1 1 2.399-2.399 2.399 2.399 0 0 1-2.399 2.399z"/>
   <path d="m174.94 294.74a0.86362 0.86362 0 0 1-0.86362 0.86362 0.86362 0.86362 0 0 1-0.86362-0.86362 0.86362 0.86362 0 0 1 0.86362-0.86362 0.86362 0.86362 0 0 1 0.86362 0.86362z"/>
  </g>
  <g stroke-width=".19133">
   <path d="m188.62 302.08-1.2063 0.16084v-1.0857q-0.45571 0.52273-1.0186 0.8042-0.65676 0.33508-1.4476 0.33508-1.4342 0-2.4528-1.0857-1.0186-1.0857-1.0186-2.6002 0-1.5012 0.99185-2.5064 1.0052-1.0186 2.4662-1.0186 0.68356 0 1.3537 0.29487 0.56293 0.25466 1.0454 0.68357v-3.2436l1.2867-0.21446zm-1.1259-3.3776q0-1.0589-0.71037-1.729-0.69697-0.68357-1.7826-0.68357-0.95163 0-1.595 0.72378-0.64335 0.72378-0.64335 1.6888 0 0.96504 0.68356 1.6754 0.68357 0.71037 1.6084 0.71037 1.032 0 1.7022-0.60314 0.73718-0.65676 0.73718-1.7826z" style="white-space:pre"/>
   <path d="m196.15 296.95-4.7716 3.0425q0.34848 0.54954 0.8176 0.83101 0.48251 0.26806 1.0186 0.26806 1.0186 0 2.5466-1.1795l0.25466 1.3537q-0.71038 0.48251-1.1795 0.69697-0.75058 0.33508-1.5146 0.33508-1.6218 0-2.6136-1.0589-0.99184-1.0723-0.99184-2.7209 0-1.4074 1.0052-2.4126 1.0186-1.0186 2.3992-1.0186 1.0186 0 1.7424 0.46911 0.72377 0.46912 1.2867 1.3939zm-1.7692-0.21445q-0.16084-0.18764-0.46911-0.30827-0.29488-0.13404-0.65677-0.13404-1.0723 0-1.7022 0.69697-0.57634 0.64336-0.57634 1.595l0.0268 0.29487z" style="white-space:pre"/>
   <path d="m204.5 298.72q0 1.5682-1.0052 2.5734-1.0052 1.0052-2.4662 1.0052-0.69697 0-1.3537-0.26807-0.64336-0.26806-1.0321-0.71037v3.0694l-1.2867 0.16084v-9.2483l1.2063-0.21445v1.1393q0.4423-0.50933 1.0186-0.8042 0.65676-0.33508 1.461-0.33508 1.3537 0 2.3992 1.0454 1.0589 1.0321 1.0589 2.5868zm-1.2867-0.0134q0-1.0723-0.72378-1.7692-0.67016-0.64336-1.595-0.64336-1.0454 0-1.729 0.69697-0.68356 0.69697-0.68356 1.7022 0 0.96503 0.67016 1.6888 0.68357 0.71037 1.6352 0.71037 1.0052 0 1.6888-0.61655 0.73718-0.67016 0.73718-1.7692z" style="white-space:pre"/>
   <path d="m210.92 302.08-1.1527 0.21446v-0.93823q-0.26807 0.46911-0.77739 0.71037-0.49592 0.22786-1.3135 0.22786-1.0857 0-1.7826-0.75059-0.68357-0.76398-0.68357-1.863 0-1.1125 0.8444-1.796 0.77739-0.62995 1.8497-0.62995 0.60314 0 1.032 0.18764 0.4289 0.18765 0.69697 0.46912v-0.52273q0-0.68357-0.37529-0.88461-0.36189-0.21446-1.2867-0.21446-0.60315 0-1.0454 0.0938-0.44231 0.0938-0.88462 0.29487l0.34849-1.3269q0.67016-0.14743 1.0991-0.20104 0.44231-0.067 0.73718-0.067 1.461 0 2.0775 0.61655t0.61655 1.9301zm-1.2867-2.3992q0-0.62995-0.45571-0.95163-0.45572-0.33508-1.1125-0.33508-0.68356 0-1.1259 0.33508t-0.44231 0.93823q0 0.64335 0.33508 1.0052 0.3887 0.4155 1.1393 0.4155 0.831 0 1.2465-0.37529 0.4155-0.38869 0.4155-1.032z" style="white-space:pre"/>
   <path d="m218.32 302.08-1.2599 0.21446v-1.0052q-0.28147 0.42891-0.8042 0.72378-0.52273 0.28147-1.2733 0.28147-1.1259 0-1.8228-0.50933-0.83101-0.60314-0.83101-1.796v-4.6911l1.2867-0.21445v4.7314q0 0.67017 0.4021 1.0052 0.40209 0.33508 1.0991 0.33508 0.76399 0 1.2599-0.4155 0.65676-0.54954 0.65676-1.6486v-3.7931l1.2867-0.21445z" style="white-space:pre"/>
   <path d="m221.79 301.05-0.87122 1.1527-0.87121-1.1527 0.87121-1.1527z" style="white-space:pre"/>
   <path d="m229.5 302.08-1.2867 0.21446v-4.718q0-1.3537-1.5146-1.3537-0.831 0-1.3403 0.49592-0.56293 0.54953-0.56293 1.5816v3.7797l-1.2867 0.21446v-9.4761l1.2867-0.21446v3.3374h0.0804q0.24126-0.3887 0.76399-0.61655 0.52273-0.24126 1.2063-0.24126 1.1125 0 1.8228 0.52273 0.831 0.61655 0.831 1.7826z" style="white-space:pre"/>
   <path d="m95.758 302.08-1.2063 0.16084v-1.0857q-0.45571 0.52272-1.0186 0.80419-0.65676 0.33508-1.4476 0.33508-1.4341 0-2.4528-1.0857-1.0186-1.0857-1.0186-2.6002 0-1.5012 0.99184-2.5064 1.0052-1.0186 2.4662-1.0186 0.68357 0 1.3537 0.29487 0.56294 0.25466 1.0455 0.68357v-3.2436l1.2867-0.21445zm-1.1259-3.3776q0-1.0588-0.71037-1.729-0.69697-0.68357-1.7826-0.68357-0.95163 0-1.595 0.72378-0.64336 0.72377-0.64336 1.6888 0 0.96504 0.68356 1.6754 0.68357 0.71037 1.6084 0.71037 1.032 0 1.7022-0.60314 0.73718-0.65676 0.73718-1.7826z" style="white-space:pre"/>
   <path d="m103.29 296.95-4.7716 3.0425q0.34848 0.54953 0.8176 0.831 0.48252 0.26806 1.0186 0.26806 1.0186 0 2.5466-1.1795l0.25466 1.3537q-0.71037 0.48252-1.1795 0.69697-0.75059 0.33508-1.5146 0.33508-1.6218 0-2.6136-1.0588-0.99184-1.0723-0.99184-2.7209 0-1.4073 1.0052-2.4126 1.0186-1.0186 2.3992-1.0186 1.0186 0 1.7424 0.46911 0.72378 0.46912 1.2867 1.3939zm-1.7692-0.21445q-0.16084-0.18765-0.46912-0.30828-0.29487-0.13403-0.65676-0.13403-1.0723 0-1.7022 0.69697-0.57634 0.64335-0.57634 1.595l0.02681 0.29488z" style="white-space:pre"/>
   <path d="m111.64 298.72q0 1.5682-1.0052 2.5734-1.0052 1.0052-2.4662 1.0052-0.69697 0-1.3537-0.26806-0.64335-0.26807-1.032-0.71037v3.0693l-1.2867 0.16084v-9.2482l1.2063-0.21445v1.1393q0.44231-0.50932 1.0186-0.80419 0.65676-0.33508 1.461-0.33508 1.3537 0 2.3992 1.0454 1.0589 1.032 1.0589 2.5868zm-1.2867-0.0134q0-1.0723-0.72378-1.7692-0.67016-0.64336-1.595-0.64336-1.0455 0-1.729 0.69697-0.68357 0.69697-0.68357 1.7022 0 0.96503 0.67017 1.6888 0.68356 0.71037 1.6352 0.71037 1.0052 0 1.6888-0.61655 0.73718-0.67016 0.73718-1.7692z" style="white-space:pre"/>
   <path d="m118.06 302.08-1.1527 0.21445v-0.93822q-0.26807 0.46911-0.77739 0.71037-0.49592 0.22785-1.3135 0.22785-1.0857 0-1.7826-0.75058-0.68357-0.76398-0.68357-1.863 0-1.1125 0.84441-1.796 0.77739-0.62996 1.8496-0.62996 0.60314 0 1.032 0.18765 0.4289 0.18764 0.69696 0.46911v-0.52272q0-0.68357-0.37529-0.88462-0.36188-0.21445-1.2867-0.21445-0.60314 0-1.0454 0.0938t-0.88461 0.29487l0.34848-1.3269q0.67016-0.14743 1.0991-0.20105 0.4423-0.067 0.73717-0.067 1.461 0 2.0775 0.61655t0.61655 1.9301zm-1.2867-2.3992q0-0.62995-0.45571-0.95163-0.45571-0.33508-1.1125-0.33508-0.68357 0-1.1259 0.33508-0.4423 0.33508-0.4423 0.93823 0 0.64335 0.33508 1.0052 0.38869 0.4155 1.1393 0.4155 0.831 0 1.2465-0.37529 0.4155-0.38869 0.4155-1.032z" style="white-space:pre"/>
   <path d="m125.46 302.08-1.2599 0.21445v-1.0052q-0.28147 0.4289-0.80419 0.72377-0.52273 0.28147-1.2733 0.28147-1.1259 0-1.8228-0.50932-0.831-0.60315-0.831-1.796v-4.6911l1.2867-0.21445v4.7313q0 0.67017 0.40209 1.0052 0.4021 0.33508 1.0991 0.33508 0.76399 0 1.2599-0.4155 0.65675-0.54954 0.65675-1.6486v-3.7931l1.2867-0.21445z" style="white-space:pre"/>
   <path d="m128.93 301.05-0.87121 1.1527-0.87121-1.1527 0.87121-1.1527z" style="white-space:pre"/>
   <path d="m136.28 301.87q0 1.2599-0.96503 2.0105-0.87121 0.67016-2.0775 0.67016-0.99184 0-1.7156-0.4155-0.71037-0.4155-1.2599-1.1929l0.95163-0.75058q0.44231 0.65676 0.77739 0.88461 0.48251 0.33508 1.2465 0.33508 0.68356 0 1.1929-0.38869 0.56293-0.42891 0.56293-1.1125 0-0.831-0.52272-1.2733-0.52273-0.45571-1.2599-0.45571-0.49592 0-0.831 0.10723-0.32168 0.0938-0.8444 0.38869l0.24126-0.95163q-0.76399-0.25466-1.1259-0.8444-0.34848-0.60315-0.34848-1.3671 0-1.032 0.69697-1.6888 0.57634-0.54954 1.4476-0.69697 0.24126-0.0402 0.81759-0.067 0.58975-0.0268 1.0186-0.0536 0.49592-0.067 0.88462-0.16084 0.38869-0.0938 1.0991-0.36189l-0.29487 1.2599-0.80419 0.20105q0.4423 0.28146 0.64335 0.71037 0.21445 0.4155 0.21445 0.97843 0 0.61655-0.34848 1.1259-0.3887 0.57634-1.0589 0.79079 0.8176 0.30827 1.2331 0.92482 0.4289 0.60315 0.4289 1.3939zm-1.5414-4.289q0-0.64335-0.4289-1.0186-0.4155-0.3887-1.1393-0.3887-0.68356 0-1.1393 0.3887-0.44231 0.37529-0.44231 1.032 0 0.67017 0.4155 1.0857t1.1661 0.4155q0.68357 0 1.1259-0.42891 0.44231-0.4289 0.44231-1.0857z" style="white-space:pre"/>
   <path d="m142.64 302.08-1.1527 0.21445v-0.93822q-0.26807 0.46911-0.77739 0.71037-0.49592 0.22785-1.3135 0.22785-1.0857 0-1.7826-0.75058-0.68357-0.76398-0.68357-1.863 0-1.1125 0.84441-1.796 0.77739-0.62996 1.8496-0.62996 0.60315 0 1.032 0.18765 0.42891 0.18764 0.69697 0.46911v-0.52272q0-0.68357-0.37529-0.88462-0.36189-0.21445-1.2867-0.21445-0.60314 0-1.0454 0.0938t-0.88462 0.29487l0.34849-1.3269q0.67016-0.14743 1.0991-0.20105 0.44231-0.067 0.73718-0.067 1.461 0 2.0775 0.61655 0.61655 0.61655 0.61655 1.9301zm-1.2867-2.3992q0-0.62995-0.45571-0.95163-0.45571-0.33508-1.1125-0.33508-0.68356 0-1.1259 0.33508t-0.44231 0.93823q0 0.64335 0.33509 1.0052 0.38869 0.4155 1.1393 0.4155 0.831 0 1.2465-0.37529 0.4155-0.38869 0.4155-1.032z" style="white-space:pre"/>
   <path d="m149.48 295.3-4.3024 8.9802-1.1527-0.32168 1.729-3.391-2.6404-5.2675 1.1259-0.21445 2.1311 4.1684 1.9837-4.1684z" style="white-space:pre"/>
  </g>
  <path d="m77.693 291.38c-3.9727 0-7.1897 3.2242-7.1897 7.1969s3.217 7.1969 7.1897 7.1969c3.9799 0 7.2041-3.2242 7.2041-7.1969s-3.2242-7.1969-7.2041-7.1969zm4.9875 4.3182h-2.1231c-0.2304-0.89961-0.56138-1.7632-0.9932-2.5621 1.3242 0.45342 2.4254 1.3746 3.1163 2.5621zm-4.9803-2.85c0.59734 0.86362 1.0651 1.8208 1.3746 2.85h-2.7492c0.30946-1.0292 0.77727-1.9864 1.3746-2.85zm-5.5704 7.1681c-0.11506-0.46062-0.18714-0.94282-0.18714-1.4394s0.07208-0.97877 0.18714-1.4394h2.4326c-0.05761 0.47501-0.10064 0.94999-0.10064 1.4394s0.04323 0.96439 0.10064 1.4394zm0.59016 1.4394h2.1231c0.23039 0.89962 0.56138 1.7632 0.99319 2.5621-1.3242-0.45342-2.4254-1.3674-3.1163-2.5621zm2.1231-5.7575h-2.1231c0.69091-1.1947 1.7921-2.1087 3.1163-2.5621-0.43181 0.79887-0.76288 1.6625-0.99319 2.5621zm2.8572 8.6075c-0.59733-0.86362-1.0651-1.8208-1.3746-2.85h2.7492c-0.30946 1.0292-0.77726 1.9864-1.3746 2.85zm1.6841-4.2894h-3.3682c-0.06475-0.47501-0.11506-0.95-0.11506-1.4394s0.05037-0.97159 0.11506-1.4394h3.3682c0.06475 0.4678 0.11506 0.94999 0.11506 1.4394s-0.05028 0.96439-0.11506 1.4394zm0.18007 4.0015c0.43182-0.79887 0.76288-1.6625 0.9932-2.5621h2.1231c-0.6909 1.1875-1.7921 2.1087-3.1163 2.5621zm1.2739-4.0015c0.05761-0.47501 0.10064-0.95 0.10064-1.4394s-0.04323-0.96438-0.10064-1.4394h2.4326c0.11506 0.46062 0.18715 0.94281 0.18715 1.4394s-0.07207 0.97878-0.18715 1.4394z" stroke-width=".26458"/>
 </g>
</svg>
