<?xml version="1.0" encoding="UTF-8" standalone="no"?>
<svg
   width="30cm"
   height="40cm"
   viewBox="0 0 300 399.99999"
   version="1.1"
   id="svg551"
   inkscape:version="1.2 (dc2aedaf03, 2022-05-15)"
   sodipodi:docname="front-horizontal.svg"
   xml:space="preserve"
   xmlns:inkscape="http://www.inkscape.org/namespaces/inkscape"
   xmlns:sodipodi="http://sodipodi.sourceforge.net/DTD/sodipodi-0.dtd"
   xmlns="http://www.w3.org/2000/svg"
   xmlns:svg="http://www.w3.org/2000/svg"
   xmlns:rdf="http://www.w3.org/1999/02/22-rdf-syntax-ns#"
   xmlns:cc="http://creativecommons.org/ns#"
   xmlns:dc="http://purl.org/dc/elements/1.1/"><defs
     id="defs545"><rect
       x="763.23751"
       y="1270.2087"
       width="302.283"
       height="85.247793"
       id="rect1308" /><rect
       x="763.23749"
       y="1270.2087"
       width="355.91817"
       height="87.707778"
       id="rect1308-2" /><rect
       x="763.23749"
       y="1270.2087"
       width="302.28299"
       height="85.247795"
       id="rect1308-26" /><rect
       x="763.23749"
       y="1270.2087"
       width="355.91818"
       height="87.707779"
       id="rect1308-2-0" /><rect
       x="763.23749"
       y="1270.2087"
       width="355.91818"
       height="87.707779"
       id="rect1308-2-7" /><rect
       x="763.23749"
       y="1270.2087"
       width="302.28299"
       height="85.247795"
       id="rect1308-9" /></defs><sodipodi:namedview
     inkscape:pagecheckerboard="true"
     units="cm"
     id="base"
     pagecolor="#333333"
     bordercolor="#666666"
     borderopacity="1.0"
     inkscape:pageopacity="0"
     inkscape:pageshadow="2"
     inkscape:zoom="0.89796851"
     inkscape:cx="234.97483"
     inkscape:cy="437.09773"
     inkscape:document-units="mm"
     inkscape:current-layer="layer1"
     inkscape:document-rotation="0"
     showgrid="false"
     inkscape:window-width="1820"
     inkscape:window-height="2150"
     inkscape:window-x="0"
     inkscape:window-y="0"
     inkscape:window-maximized="1"
     inkscape:showpageshadow="0"
     inkscape:deskcolor="#333333" /><metadata
     id="metadata548"><rdf:RDF><cc:Work
         rdf:about=""><dc:format>image/svg+xml</dc:format><dc:type
           rdf:resource="http://purl.org/dc/dcmitype/StillImage" /></cc:Work></rdf:RDF></metadata><g
     inkscape:label="Layer 1"
     inkscape:groupmode="layer"
     id="layer1"><g
       id="g29950"
       transform="matrix(1.0301232,0,0,1.0301232,-16.592138,-51.14963)"
       style="stroke-width:0.970758"><flowRoot
         transform="matrix(1.3594654,0,0,1.3594654,17.765359,-889.15082)"
         style="font-size:40px;line-height:0;font-family:sans-serif;word-spacing:0px;stroke-width:0.828611"
         id="flowRoot2110-1-5"
         xml:space="preserve"><flowRegion
           style="line-height:1.05;stroke-width:0.828611"
           id="flowRegion2106-1-6"><rect
             style="stroke-width:0.828611"
             y="832.8576"
             x="113.66334"
             height="268.26999"
             width="642.02051"
             id="rect2104-9-7" /></flowRegion><flowPara
           style="font-style:normal;font-variant:normal;font-weight:normal;font-stretch:normal;line-height:1.05;font-family:KaratMedium;-inkscape-font-specification:KaratMedium;fill:#ffffff;stroke-width:0.828611"
           id="flowPara29724-4">user</flowPara></flowRoot><flowRoot
         transform="matrix(1.3594654,0,0,1.3594654,29.212043,-981.40448)"
         style="font-size:40px;line-height:0;font-family:sans-serif;word-spacing:0px;stroke-width:0.828611"
         id="flowRoot2110-1-5-0"
         xml:space="preserve"><flowRegion
           style="line-height:1.05;stroke-width:0.828611"
           id="flowRegion2106-1-6-6"><rect
             style="stroke-width:0.828611"
             y="832.8576"
             x="113.66334"
             height="268.26999"
             width="642.02051"
             id="rect2104-9-7-4" /></flowRegion><flowPara
           style="font-style:normal;font-variant:normal;font-weight:normal;font-stretch:normal;line-height:1.05;font-family:KaratMedium;-inkscape-font-specification:KaratMedium;fill:#ffffff;stroke-width:0.828611"
           id="flowPara29724-4-7">gay</flowPara></flowRoot><g
         id="g29425"
         transform="matrix(0.75889656,0,0,0.75889656,110.24886,52.372116)"
         style="stroke-width:1.27917"><g
           transform="matrix(0.45366115,0,0,0.45366115,-63.821732,71.464027)"
           id="g2809"
           style="fill:#ffffff;fill-opacity:1;stroke-width:0.834358"><path
             inkscape:connector-curvature="0"
             d="m 339.96875,309.09375 c -14.47141,-0.0239 -26.4812,2.94367 -31.125,4.5625 l -4.78125,25.8125 c -0.0116,0.0951 23.79543,-6.34855 34.28125,-5.96875 17.36158,0.62381 18.95948,6.63541 18.65625,14.75 0.29595,0.47462 -4.47933,-7.33192 -19.5,-7.59375 -18.94961,-0.32687 -45.69284,6.70947 -45.65625,35.3125 -0.51086,32.17412 24.03361,41.63882 40.75,41.8125 15.02821,-0.27364 22.0777,-5.69136 25.9375,-8.59375 5.07124,-5.30236 10.87308,-10.63447 16.40625,-17.03125 -5.23567,9.51278 -9.77472,16.0898 -14.5,21.125 v 4.25 l 22.84375,-3.84375 0.15625,-62.09375 c -0.23141,-8.78839 5.04123,-42.41827 -43.46875,-42.5 z m -3.28125,54.0625 c 9.46889,0.12995 20.32788,4.79708 20.34375,16.03125 0.049,10.21821 -12.80005,15.71183 -21.15625,15.625 -8.35976,-0.0868 -19.45093,-6.56982 -19.5,-16.53125 0.16016,-8.90444 10.45953,-15.35418 20.3125,-15.125 z"
             id="path2284"
             style="fill:#ffffff;fill-opacity:1;fill-rule:evenodd;stroke:none;stroke-width:0.834358" /><path
             inkscape:connector-curvature="0"
             d="m 398.50106,314.83145 -0.15505,102.82693 26.61213,-5.12724 0.0449,-58.30157 c 0.006,-8.68089 12.40554,-18.82451 27.9627,-18.66287 3.30202,-5.97408 9.5087,-21.24219 11.02088,-24.71514 -34.75649,-0.0833 -35.19897,9.98993 -41.24398,14.94517 -0.0631,-9.45285 -0.0213,-15.12741 -0.0213,-15.12741 l -24.2202,4.16213 z"
             id="path2286"
             style="fill:#ffffff;fill-opacity:1;fill-rule:evenodd;stroke:none;stroke-width:0.834358" /><path
             inkscape:connector-curvature="0"
             d="m 548.2688,328.33058 c -0.25696,-0.12068 -13.87938,-15.93419 -41.26638,-16.0589 -25.65249,-0.42638 -54.42578,9.51895 -54.88631,52.5328 0.22457,37.81852 27.6402,52.59809 55.0314,52.88627 29.31292,0.30451 40.97654,-18.32947 41.67615,-18.79124 -3.49762,-3.0321 -16.59792,-16.0131 -16.59792,-16.0131 0,0 -8.18236,11.65102 -24.05802,11.79913 -15.87942,0.1512 -29.68245,-12.27325 -29.87805,-29.60905 -0.20349,-17.33595 12.68881,-26.72821 29.99725,-27.48687 14.98466,-0.003 23.6297,9.67334 23.6297,9.67334 z"
             id="path2288"
             style="fill:#ffffff;fill-opacity:1;fill-rule:evenodd;stroke:none;stroke-width:0.834358" /><path
             inkscape:connector-curvature="0"
             d="m 581.8125,278.84375 -25.125,5.90625 0.1875,133.9375 24.75,-4.46875 0.28125,-63.03125 c 0.0529,-6.60927 9.56127,-16.75916 25.4375,-16.4375 15.17973,0.15775 18.57236,10.11767 18.53125,11.375 l 0.4375,72.96875 24.40625,-4.3125 0.0937,-77.375 c 0.1607,-7.44539 -16.30833,-23.16954 -42.78125,-23.28125 -12.58087,0.0202 -19.54815,2.86825 -23.09375,4.96875 -6.06656,4.68565 -12.9998,9.17543 -19.8125,14.90625 6.29809,-8.09099 11.58551,-13.68516 16.75,-17.84375 l -0.0625,-37.3125 z"
             id="path2290"
             style="fill:#ffffff;fill-opacity:1;fill-rule:evenodd;stroke:none;stroke-width:0.834358" /></g></g></g><g
       id="g29967"
       transform="translate(0,-52.664836)"><g
         id="g1695"
         transform="matrix(0.91582941,0,0,0.91582941,1.1798104,13.260489)"
         style="stroke-width:1.09191"><g
           id="g1703"><g
             id="g1157"
             style="fill:#ffffff;stroke-width:9.26144"
             transform="matrix(0.03119387,0,0,0.03119387,176.60939,335.91069)"><path
               style="fill:#ffffff;stroke-width:9.26144"
               d="m 256,49.471 c 67.266,0 75.233,0.257 101.8,1.469 24.562,1.121 37.9,5.224 46.778,8.674 a 78.052,78.052 0 0 1 28.966,18.845 78.052,78.052 0 0 1 18.845,28.966 c 3.45,8.877 7.554,22.216 8.674,46.778 1.212,26.565 1.469,34.532 1.469,101.8 0,67.268 -0.257,75.233 -1.469,101.8 -1.121,24.562 -5.225,37.9 -8.674,46.778 a 83.427,83.427 0 0 1 -47.811,47.811 c -8.877,3.45 -22.216,7.554 -46.778,8.674 -26.56,1.212 -34.527,1.469 -101.8,1.469 -67.273,0 -75.237,-0.257 -101.8,-1.469 -24.562,-1.121 -37.9,-5.225 -46.778,-8.674 A 78.051,78.051 0 0 1 78.456,433.547 78.053,78.053 0 0 1 59.611,404.581 c -3.45,-8.877 -7.554,-22.216 -8.674,-46.778 -1.212,-26.564 -1.469,-34.532 -1.469,-101.8 0,-67.268 0.257,-75.233 1.469,-101.8 1.121,-24.562 5.224,-37.9 8.674,-46.778 A 78.052,78.052 0 0 1 78.458,78.458 78.053,78.053 0 0 1 107.424,59.613 c 8.877,-3.45 22.216,-7.554 46.778,-8.674 26.565,-1.212 34.532,-1.469 101.8,-1.469 m 0,-45.391 c -68.418,0 -77,0.29 -103.866,1.516 -26.815,1.224 -45.127,5.482 -61.151,11.71 A 123.488,123.488 0 0 0 46.365,46.362 123.488,123.488 0 0 0 17.3,90.982 C 11.077,107.007 6.819,125.319 5.6,152.134 4.369,179 4.079,187.582 4.079,256 c 0,68.418 0.29,77 1.521,103.866 1.224,26.815 5.482,45.127 11.71,61.151 a 123.489,123.489 0 0 0 29.057,44.62 123.486,123.486 0 0 0 44.62,29.057 c 16.025,6.228 34.337,10.486 61.151,11.71 26.87,1.226 35.449,1.516 103.866,1.516 68.417,0 77,-0.29 103.866,-1.516 26.815,-1.224 45.127,-5.482 61.151,-11.71 a 128.817,128.817 0 0 0 73.677,-73.677 c 6.228,-16.025 10.486,-34.337 11.71,-61.151 1.226,-26.87 1.516,-35.449 1.516,-103.866 0,-68.417 -0.29,-77 -1.516,-103.866 -1.224,-26.815 -5.482,-45.127 -11.71,-61.151 A 123.486,123.486 0 0 0 465.641,46.363 123.487,123.487 0 0 0 421.018,17.3 C 404.993,11.077 386.681,6.819 359.866,5.6 333,4.369 324.418,4.079 256,4.079 v 0 z"
               id="path1007" /><path
               style="fill:#ffffff;stroke-width:9.26144"
               d="M 256,126.635 A 129.365,129.365 0 1 0 385.365,256 129.365,129.365 0 0 0 256,126.635 Z m 0,213.338 A 83.973,83.973 0 1 1 339.974,256 83.974,83.974 0 0 1 256,339.973 Z"
               id="path1009" /><circle
               style="fill:#ffffff;stroke-width:9.26144"
               cx="390.47601"
               cy="121.524"
               r="30.23"
               id="circle1011" /></g><text
             xml:space="preserve"
             transform="matrix(0.36587782,0,0,0.36587782,-82.827611,-130.62369)"
             id="text1306"
             style="font-style:normal;font-variant:normal;font-weight:normal;font-stretch:normal;font-size:40px;line-height:1.25;font-family:KaratMedium;-inkscape-font-specification:KaratMedium;letter-spacing:0px;word-spacing:0px;white-space:pre;shape-inside:url(#rect1308);display:inline;fill:#ffffff;stroke-width:0.789608"><tspan
               x="763.23828"
               y="1307.3957"
               id="tspan3659"><tspan
                 style="stroke-width:0.571003"
                 id="tspan3657">depau.h</tspan></tspan></text></g></g><g
         id="g1687"
         transform="matrix(0.9158277,0,0,0.9158277,-91.357348,-4.4104488)"
         style="stroke-width:1.09191"><g
           id="g1709"><text
             xml:space="preserve"
             transform="matrix(0.36587782,0,0,0.36587782,-83.178854,-111.32801)"
             id="text1306-5"
             style="font-style:normal;font-variant:normal;font-weight:normal;font-stretch:normal;font-size:40px;line-height:1.25;font-family:KaratMedium;-inkscape-font-specification:KaratMedium;letter-spacing:0px;word-spacing:0px;white-space:pre;shape-inside:url(#rect1308-2);display:inline;fill:#ffffff;stroke-width:0.78961"><tspan
               x="763.23828"
               y="1307.3957"
               id="tspan3663"><tspan
                 style="stroke-width:0.571004"
                 id="tspan3661">depau.gay</tspan></tspan></text><path
             d="m 184.5872,355.3336 c -4.33783,0 -7.85052,3.52055 -7.85052,7.85839 0,4.33783 3.51269,7.85839 7.85052,7.85839 4.34571,0 7.86626,-3.52056 7.86626,-7.85839 0,-4.33784 -3.52055,-7.85839 -7.86626,-7.85839 z m 5.44589,4.71503 h -2.31822 c -0.25157,-0.98229 -0.61297,-1.9253 -1.08448,-2.79759 1.44594,0.49509 2.64829,1.50094 3.4027,2.79759 z m -5.43802,-3.11191 c 0.65224,0.943 1.16304,1.98815 1.50094,3.11191 h -3.00188 c 0.3379,-1.12376 0.84871,-2.16891 1.50094,-3.11191 z m -6.08242,7.82696 c -0.12563,-0.50296 -0.20434,-1.02947 -0.20434,-1.57169 0,-0.54222 0.0787,-1.06873 0.20434,-1.57169 h 2.65617 c -0.0629,0.51867 -0.10989,1.03731 -0.10989,1.57169 0,0.53438 0.0472,1.05302 0.10989,1.57169 z m 0.6444,1.57166 h 2.31823 c 0.25156,0.9823 0.61297,1.92531 1.08447,2.7976 -1.44594,-0.49509 -2.64829,-1.4931 -3.4027,-2.7976 z m 2.31823,-6.28671 h -2.31823 c 0.75441,-1.30449 1.95676,-2.3025 3.4027,-2.79759 -0.4715,0.87229 -0.833,1.8153 -1.08447,2.79759 z m 3.11979,9.39863 c -0.65223,-0.943 -1.16304,-1.98816 -1.50094,-3.11192 h 3.00188 c -0.3379,1.12376 -0.8487,2.16892 -1.50094,3.11192 z m 1.83885,-4.68358 h -3.67773 c -0.0707,-0.51867 -0.12564,-1.03731 -0.12564,-1.57169 0,-0.53438 0.055,-1.06089 0.12564,-1.57169 h 3.67773 c 0.0707,0.5108 0.12564,1.03731 0.12564,1.57169 0,0.53438 -0.0549,1.05302 -0.12564,1.57169 z m 0.19662,4.36926 c 0.47151,-0.87229 0.833,-1.8153 1.08448,-2.7976 h 2.31822 c -0.7544,1.29666 -1.95676,2.30251 -3.4027,2.7976 z m 1.39093,-4.36926 c 0.0629,-0.51867 0.10989,-1.03731 0.10989,-1.57169 0,-0.53438 -0.0472,-1.05302 -0.10989,-1.57169 h 2.65613 c 0.12564,0.50296 0.20435,1.02947 0.20435,1.57169 0,0.54222 -0.0787,1.06873 -0.20435,1.57169 z"
             id="path1449"
             style="fill:#ffffff;stroke-width:0.2889" /></g></g></g><g
       id="g29980"
       transform="translate(-13.604955,-73.292602)"><path
         inkscape:connector-curvature="0"
         d="m 169.1977,268.46102 v -3.59137 h 0.71534 l 0.85006,2.54286 c 0.0784,0.23681 0.13556,0.41402 0.17149,0.53162 0.0407,-0.13065 0.10449,-0.32256 0.19107,-0.5757 l 0.8599,-2.49878 h 0.63939 v 3.59137 h -0.45811 v -3.00588 l -1.04361,3.00588 h -0.42871 l -1.03872,-3.05733 v 3.05733 h -0.4581"
         id="path29384"
         style="font-style:normal;font-weight:normal;font-size:8.2513px;font-family:'DejaVu Sans Mono';fill:#ffffff;fill-opacity:1;stroke:none;stroke-width:0.627649" /><path
         id="path29382"
         style="fill:#ffffff;fill-opacity:1;stroke-width:0.264584"
         d="m 165.85599,264.86952 v 0.42403 h 1.18325 v 3.16729 h 0.47539 v -3.16729 h 1.18846 v -0.42403 z" /></g><g
       id="g29398"
       transform="matrix(1.1467232,0,0,1.1467232,-7.5398503,-508.78832)"
       style="stroke-width:0.872051"><path
         id="path29386"
         style="fill:#880082;fill-opacity:1;stroke-width:0.230729"
         d="m 38.653667,638.05331 c -3.717849,6.76893 -7.722548,14.02141 -12.305192,22.25549 18.113592,-10.45727 32.155832,-16.90368 45.241683,-19.36368 -0.217028,-0.93344 -0.384989,-1.90427 -0.523999,-2.89181 z m 57.764433,0 c -0.121749,1.02364 -0.288068,2.01944 -0.499711,2.97759 12.943771,2.53202 26.835721,8.96207 44.704251,19.2779 -3.52332,-6.48668 -6.66853,-12.33387 -9.67176,-17.90279 -1.70004,-1.31764 -3.43594,-2.78258 -5.41724,-4.3527 z" /><path
         id="path29388"
         style="fill:#3558a0;fill-opacity:1;stroke-width:0.23073"
         d="m 48.26062,620.34973 c -2.948845,5.46526 -6.314938,11.63062 -9.98492,18.30896 h 32.881197 c -0.286946,-1.77422 -0.447767,-3.62827 -0.432532,-5.54333 l 0.02119,-0.58033 c 0.114964,-4.6418 1.160979,-8.83958 2.818949,-12.1853 z m 45.371908,0 c 1.989007,3.9068 3.145646,8.94836 3.011185,14.37742 -0.03342,1.34968 -0.149141,2.66158 -0.327628,3.93154 H 126.3711 c -3.68741,-2.96543 -8.17898,-6.34693 -15.15618,-9.92807 6.91804,1.79757 11.87144,3.87162 15.73237,6.1898 -2.90598,-5.41041 -5.34134,-9.99608 -7.77007,-14.57069 z" /><path
         id="path29390"
         style="fill:#138f3e;fill-opacity:1;stroke-width:0.23073"
         d="m 57.243534,603.47376 c -2.751466,5.25942 -5.889493,11.15691 -9.538952,17.91105 h 25.365893 c 2.44777,-5.63415 6.568591,-9.16129 11.150224,-8.77311 4.097353,0.34719 7.66963,3.75002 9.921358,8.77311 h 25.574663 c -3.57959,-6.73391 -6.69623,-12.66013 -9.42164,-17.91105 z" /><path
         id="path29392"
         style="fill:#fad220;fill-opacity:1;stroke-width:0.23073"
         d="m 66.011475,586.23915 c -2.499077,5.09356 -5.467599,10.93534 -9.122958,17.91105 h 53.757963 c -3.62069,-6.96716 -6.60123,-12.83249 -9.11263,-17.91105 H 77.501213 c 1.95671,1.66797 4.19067,3.41718 6.805786,5.24619 -4.224592,-1.73839 -7.685747,-3.48099 -10.58385,-5.24619 z" /><path
         id="path29394"
         style="fill:#ff7300;fill-opacity:1;stroke-width:0.23073"
         d="m 73.993933,569.00506 c -1.31392,3.03613 -2.708693,6.17575 -4.344438,9.67073 2.33563,2.47576 5.051174,5.232 8.670272,8.24032 H 101.8682 c -3.502789,-7.06381 -6.156056,-12.71364 -8.488887,-17.91105 z m -5.999634,13.15269 c -0.718689,1.49965 -1.513946,3.11939 -2.320788,4.75836 h 9.19272 c -2.70963,-1.56544 -4.956075,-3.14714 -6.871932,-4.75836 z" /><path
         id="path29396"
         style="fill:#ff000e;fill-opacity:1;stroke-width:0.23073"
         d="m 83.468807,545.9429 c -3.72232,9.12614 -6.376872,15.95719 -9.745142,23.69882 H 93.660433 C 90.139774,561.8311 87.350677,555.05254 83.468807,545.9429 Z" /></g><path
       id="path4399"
       style="fill:#ffffff;fill-opacity:1;stroke-width:0.264583"
       d="m 141.8095,218.63955 v 0.4278 h 1.19375 v 3.19537 h 0.47961 v -3.19537 h 1.19899 v -0.4278 z" /><path
       inkscape:connector-curvature="0"
       d="m 145.18085,222.26291 v -3.62322 h 0.72168 l 0.85761,2.56541 c 0.079,0.23891 0.13676,0.41769 0.17301,0.53633 0.0411,-0.13181 0.10547,-0.32542 0.19278,-0.58081 l 0.86752,-2.52093 h 0.64503 v 3.62322 h -0.46215 v -3.03254 l -1.05287,3.03254 h -0.43251 l -1.04793,-3.08444 v 3.08444 h -0.46217"
       id="path4306"
       style="font-style:normal;font-weight:normal;font-size:8.2513px;font-family:'DejaVu Sans Mono';fill:#ffffff;fill-opacity:1;stroke:none;stroke-width:0.627651" /></g></svg>
