<?xml version="1.0" encoding="UTF-8" standalone="no"?>
<svg
   xmlns:dc="http://purl.org/dc/elements/1.1/"
   xmlns:cc="http://creativecommons.org/ns#"
   xmlns:rdf="http://www.w3.org/1999/02/22-rdf-syntax-ns#"
   xmlns:svg="http://www.w3.org/2000/svg"
   xmlns="http://www.w3.org/2000/svg"
   xmlns:xlink="http://www.w3.org/1999/xlink"
   xmlns:sodipodi="http://sodipodi.sourceforge.net/DTD/sodipodi-0.dtd"
   xmlns:inkscape="http://www.inkscape.org/namespaces/inkscape"
   width="30cm"
   height="40cm"
   viewBox="0 0 300 399.99999"
   version="1.1"
   id="svg551"
   inkscape:version="1.0alpha2 (c07d8d790a, 2019-06-10)"
   sodipodi:docname="rear.svg">
  <defs
     id="defs545">
    <linearGradient
       inkscape:collect="always"
       id="linearGradient993">
      <stop
         style="stop-color:#e40303;stop-opacity:1"
         offset="0"
         id="stop989" />
      <stop
         id="stop1001"
         offset="0.2"
         style="stop-color:#ff8c00;stop-opacity:1" />
      <stop
         style="stop-color:#ffed00;stop-opacity:1"
         offset="0.40000001"
         id="stop1003" />
      <stop
         id="stop1005"
         offset="0.60000002"
         style="stop-color:#008026;stop-opacity:1" />
      <stop
         style="stop-color:#004dff;stop-opacity:1"
         offset="0.80000001"
         id="stop1007" />
      <stop
         style="stop-color:#750787;stop-opacity:1"
         offset="1"
         id="stop991" />
    </linearGradient>
    <linearGradient
       y2="125.81292"
       x2="175.62415"
       y1="125.81292"
       x1="28.865047"
       gradientTransform="matrix(0,1.1766199,-1.1766199,0,295.25631,34.423954)"
       gradientUnits="userSpaceOnUse"
       id="linearGradient2132"
       xlink:href="#linearGradient993"
       inkscape:collect="always" />
  </defs>
  <sodipodi:namedview
     inkscape:pagecheckerboard="true"
     units="cm"
     id="base"
     pagecolor="#333333"
     bordercolor="#666666"
     borderopacity="1.0"
     inkscape:pageopacity="0"
     inkscape:pageshadow="2"
     inkscape:zoom="0.31747981"
     inkscape:cx="472.59213"
     inkscape:cy="782.19594"
     inkscape:document-units="mm"
     inkscape:current-layer="layer1"
     inkscape:document-rotation="0"
     showgrid="false"
     inkscape:window-width="1280"
     inkscape:window-height="696"
     inkscape:window-x="0"
     inkscape:window-y="0"
     inkscape:window-maximized="1" />
  <metadata
     id="metadata548">
    <rdf:RDF>
      <cc:Work
         rdf:about="">
        <dc:format>image/svg+xml</dc:format>
        <dc:type
           rdf:resource="http://purl.org/dc/dcmitype/StillImage" />
        <dc:title></dc:title>
      </cc:Work>
    </rdf:RDF>
  </metadata>
  <g
     inkscape:label="Layer 1"
     inkscape:groupmode="layer"
     id="layer1">
    <g
       transform="translate(2.77768)"
       id="g2130">
      <path
         style="font-style:normal;font-weight:normal;font-size:8.2513px;font-family:'DejaVu Sans Mono';opacity:1;fill:url(#linearGradient2132);fill-opacity:1;fill-rule:evenodd;stroke:none;stroke-width:1.20019;stop-opacity:1"
         id="path2092"
         d="m 147.20357,55.378 c -8.87772,21.765745 -14.23231,36.003069 -24.11646,57.12182 6.06024,6.42386 13.49887,13.9047 25.57921,22.35369 -12.98756,-5.34431 -21.84664,-10.70988 -28.46716,-16.27771 -12.64985,26.39583 -32.468481,63.9955 -72.686901,136.2598 31.610324,-18.24917 56.114071,-29.50001 78.950421,-33.793 -0.9806,-4.21753 -1.53813,-8.77965 -1.50024,-13.53975 l 0.0375,-1.01267 c 0.50156,-20.25187 11.03658,-35.82557 23.51636,-34.76819 12.47974,1.05743 22.1801,18.34194 21.67852,38.59382 -0.0943,3.81078 -0.52416,7.47671 -1.27521,10.87681 22.58842,4.4187 46.83014,15.64068 78.01277,33.64298 -6.1486,-11.32002 -11.63676,-21.52419 -16.87776,-31.24258 -8.25542,-6.39849 -16.86623,-14.72619 -34.43064,-23.74137 12.07275,3.13698 20.71672,6.75627 27.45449,10.80174 C 169.79174,111.44292 165.47666,98.259899 147.20347,55.378 Z"
         inkscape:connector-curvature="0" />
      <g
         id="g2120"
         transform="matrix(1.3747899,0,0,1.3747899,2.4609385,-45.889425)"
         style="opacity:1;stop-opacity:1">
        <g
           transform="matrix(1.1651165,0,0,1.1651165,102.883,154.83887)"
           id="g2102">
          <path
             inkscape:connector-curvature="0"
             d="m 5.8186639,60.689182 c -2.1361162,-0.0035 -3.9088743,0.434513 -4.5943427,0.673468 l -0.70575749,3.810168 c -0.00171,0.01404 3.51242939,-0.937106 5.06023499,-0.881044 2.5627325,0.09208 2.7985977,0.979449 2.7538381,2.177239 0.043685,0.07006 -0.6611913,-1.08226 -2.8783835,-1.120909 -2.7971406,-0.04825 -6.7446931,0.99038 -6.7392921,5.212457 -0.075408,4.749203 3.5475871,6.146281 6.0150836,6.171918 2.218305,-0.04039 3.2588761,-0.840098 3.828619,-1.268518 0.7485621,-0.782678 1.6049692,-1.569748 2.4217172,-2.513973 -0.772835,1.404176 -1.4428411,2.375006 -2.1403371,3.118249 v 0.62734 l 3.3719531,-0.567374 0.02306,-9.165622 c -0.03416,-1.297248 0.744137,-6.261335 -6.4163931,-6.273399 z m -0.4843433,7.980133 c 1.3976974,0.01918 3.0005864,0.708094 3.002929,2.366364 0.00723,1.508304 -1.8894078,2.319214 -3.1228615,2.306397 -1.2339793,-0.01281 -2.8711403,-0.969768 -2.8783835,-2.440168 0.02364,-1.314379 1.5439249,-2.266422 2.998316,-2.232593 z"
             id="path2094"
             style="opacity:1;fill:#ffffff;fill-opacity:1;fill-rule:evenodd;stroke:none;stroke-width:0.147609;stop-opacity:1" />
          <path
             inkscape:connector-curvature="0"
             d="m 14.458584,61.53612 -0.02289,15.178223 3.928201,-0.756829 0.0066,-8.605861 c 8.73e-4,-1.28138 1.831174,-2.778674 4.127558,-2.754815 0.487409,-0.88183 1.403573,-3.135547 1.626785,-3.648187 -5.130385,-0.01229 -5.195699,1.474608 -6.087999,2.206048 -0.0093,-1.39533 -0.0031,-2.232948 -0.0031,-2.232948 L 14.45861,61.53612 Z"
             id="path2096"
             style="opacity:1;fill:#ffffff;fill-opacity:1;fill-rule:evenodd;stroke:none;stroke-width:0.147609;stop-opacity:1" />
          <path
             inkscape:connector-curvature="0"
             d="m 36.565711,63.528719 c -0.03793,-0.01781 -2.048727,-2.352036 -6.091306,-2.370445 -3.786547,-0.06294 -8.033757,1.405087 -8.101735,7.754336 0.03315,5.582369 4.079954,7.763973 8.123153,7.806511 4.326861,0.04495 6.048523,-2.705603 6.15179,-2.773764 -0.516282,-0.447567 -2.450007,-2.363684 -2.450007,-2.363684 0,0 -1.207794,1.7198 -3.55119,1.741662 -2.343952,0.02232 -4.38141,-1.811647 -4.410282,-4.370574 -0.03004,-2.55895 1.872988,-3.945335 4.427877,-4.057321 2.211877,-4.49e-4 3.487965,1.427876 3.487965,1.427876 z"
             id="path2098"
             style="opacity:1;fill:#ffffff;fill-opacity:1;fill-rule:evenodd;stroke:none;stroke-width:0.147609;stop-opacity:1" />
          <path
             inkscape:connector-curvature="0"
             d="m 41.517076,56.223997 -3.708686,0.871818 0.02768,19.770435 3.653333,-0.659629 0.04151,-9.304006 c 0.0078,-0.97559 1.411333,-2.473809 3.754814,-2.426329 2.240671,0.02329 2.741456,1.493463 2.735386,1.679057 l 0.06458,10.770874 3.602593,-0.636566 0.01384,-11.421278 c 0.02371,-1.099009 -2.407263,-3.420042 -6.314913,-3.436531 -1.857055,0.003 -2.885493,0.42338 -3.408857,0.733434 -0.89548,0.691646 -1.918891,1.35438 -2.924511,2.200303 0.929658,-1.194307 1.710132,-2.020059 2.472457,-2.633906 l -0.0092,-5.507676 z"
             id="path2100"
             style="opacity:1;fill:#ffffff;fill-opacity:1;fill-rule:evenodd;stroke:none;stroke-width:0.147609;stop-opacity:1" />
        </g>
        <flowRoot
           transform="matrix(0.84405831,0,0,0.84405831,-23.113808,-460.41952)"
           style="font-size:40px;line-height:0;font-family:sans-serif;word-spacing:0px"
           id="flowRoot2110"
           xml:space="preserve"><flowRegion
             style="line-height:1.05"
             id="flowRegion2106"><rect
               style=""
               y="832.8576"
               x="113.66334"
               height="268.26999"
               width="642.02051"
               id="rect2104" /></flowRegion><flowPara
             id="flowPara2108"
             style="font-style:normal;font-variant:normal;font-weight:normal;font-stretch:normal;line-height:1.05;font-family:KaratMedium;-inkscape-font-specification:KaratMedium;fill:#ffffff">user</flowPara></flowRoot>        <g
           style="font-size:40px;line-height:1.25;font-family:sans-serif;word-spacing:0px;fill:#ffffff"
           id="g2118"
           transform="matrix(0.85368192,0,0,0.85368192,-170.35809,-571.69238)"
           aria-label="gay arch ">
          <path
             inkscape:connector-curvature="0"
             id="path2112"
             style="font-style:normal;font-variant:normal;font-weight:normal;font-stretch:normal;font-family:KaratMedium;-inkscape-font-specification:KaratMedium;fill:#ffffff"
             d="m 273.12602,954.82794 q 0,3.76 -2.88,6 -2.6,2 -6.2,2 -2.96,0 -5.12,-1.24 -2.12,-1.24 -3.76,-3.56 l 2.84,-2.24 q 1.32,1.96 2.32,2.64 1.44,1 3.72,1 2.04,0 3.56,-1.16 1.68,-1.28 1.68,-3.32 0,-2.48 -1.56,-3.8 -1.56,-1.36 -3.76,-1.36 -1.48,0 -2.48,0.32 -0.96,0.28 -2.52,1.16 l 0.72,-2.84 q -2.28,-0.76 -3.36,-2.52 -1.04,-1.8 -1.04,-4.08 0,-3.08 2.08,-5.04 1.72,-1.64 4.32,-2.08 0.72,-0.12 2.44,-0.2 1.76,-0.08 3.04,-0.16 1.48,-0.2 2.64,-0.48 1.16,-0.28 3.28,-1.08 l -0.88,3.76 -2.4,0.6 q 1.32,0.84 1.92,2.12 0.64,1.24 0.64,2.92 0,1.84 -1.04,3.36 -1.16,1.72 -3.16,2.36 2.44,0.92 3.68,2.76 1.28,1.8 1.28,4.16 z m -4.6,-12.8 q 0,-1.92 -1.28,-3.04 -1.24,-1.16 -3.4,-1.16 -2.04,0 -3.4,1.16 -1.32,1.12 -1.32,3.08 0,2 1.24,3.24 1.24,1.24 3.48,1.24 2.04,0 3.36,-1.28 1.32,-1.28 1.32,-3.24 z" />
          <path
             inkscape:connector-curvature="0"
             id="path2114"
             style="font-style:normal;font-variant:normal;font-weight:normal;font-stretch:normal;font-family:KaratMedium;-inkscape-font-specification:KaratMedium;fill:#ffffff"
             d="m 292.12602,955.46794 -3.44,0.64 v -2.8 q -0.8,1.4 -2.32,2.12 -1.48,0.68 -3.92,0.68 -3.24,0 -5.32,-2.24 -2.04,-2.28 -2.04,-5.56 0,-3.32 2.52,-5.36 2.32,-1.88 5.52,-1.88 1.8,0 3.08,0.56 1.28,0.56 2.08,1.4 v -1.56 q 0,-2.04 -1.12,-2.64 -1.08,-0.64 -3.84,-0.64 -1.8,0 -3.12,0.28 -1.32,0.28 -2.64,0.88 l 1.04,-3.96 q 2,-0.44 3.28,-0.6 1.32,-0.2 2.2,-0.2 4.36,0 6.2,1.84 1.84,1.84 1.84,5.76 z m -3.84,-7.16 q 0,-1.88 -1.36,-2.84 -1.36,-1 -3.32,-1 -2.04,0 -3.36,1 -1.32,1 -1.32,2.8 0,1.92 1,3 1.16,1.24 3.4,1.24 2.48,0 3.72,-1.12 1.24,-1.16 1.24,-3.08 z" />
          <path
             inkscape:connector-curvature="0"
             id="path2116"
             style="font-style:normal;font-variant:normal;font-weight:normal;font-stretch:normal;font-family:KaratMedium;-inkscape-font-specification:KaratMedium;fill:#ffffff"
             d="m 312.52602,935.22794 -12.84,26.8 -3.44,-0.96 5.16,-10.12 -7.88,-15.72 3.36,-0.64 6.36,12.44 5.92,-12.44 z" />
        </g>
      </g>
      <g
         style="font-style:normal;font-weight:normal;font-size:8.2513px;font-family:'DejaVu Sans Mono';opacity:1;fill:#ffffff;fill-opacity:1;stroke:none;stop-opacity:1"
         id="g2128"
         transform="matrix(1.0497326,0,0,1.0497326,-3.8520235,-92.267925)">
        <path
           style="fill:#ffffff;fill-opacity:1"
           id="path2122"
           d="m 239.84053,313.69965 v -5.20945 h -1.94598 v -0.697 h 4.68164 v 0.697 h -1.95404 v 5.20945 h -0.78162"
           inkscape:connector-curvature="0" />
        <g
           id="g2126">
          <path
             inkscape:connector-curvature="0"
             d="m 243.39004,313.69965 v -5.90645 h 1.17646 l 1.39805,4.18205 c 0.12892,0.38947 0.22293,0.6809 0.28202,0.87429 0.0671,-0.21488 0.1719,-0.53048 0.31426,-0.94681 l 1.41417,-4.10953 h 1.05155 v 5.90645 h -0.75341 v -4.94353 l -1.71634,4.94353 h -0.70506 l -1.70828,-5.02814 v 5.02814 h -0.75342"
             id="path2124"
             style="fill:#ffffff;fill-opacity:1" />
        </g>
      </g>
    </g>
  </g>
</svg>
