<?xml version="1.0" encoding="UTF-8"?>
<svg width="30cm" height="40cm" version="1.1" viewBox="0 0 300 400" xmlns="http://www.w3.org/2000/svg" xmlns:cc="http://creativecommons.org/ns#" xmlns:dc="http://purl.org/dc/elements/1.1/" xmlns:rdf="http://www.w3.org/1999/02/22-rdf-syntax-ns#" xmlns:xlink="http://www.w3.org/1999/xlink">
 <defs>
  <linearGradient id="linearGradient2132" x1="28.865" x2="175.62" y1="125.81" y2="125.81" gradientTransform="matrix(0 1.1766 -1.1766 0 298.03 34.424)" gradientUnits="userSpaceOnUse">
   <stop stop-color="#e40303" offset="0"/>
   <stop stop-color="#ff8c00" offset=".2"/>
   <stop stop-color="#ffed00" offset=".4"/>
   <stop stop-color="#008026" offset=".6"/>
   <stop stop-color="#004dff" offset=".8"/>
   <stop stop-color="#750787" offset="1"/>
  </linearGradient>
 </defs>
 <metadata>
  <rdf:RDF>
   <cc:Work rdf:about="">
    <dc:format>image/svg+xml</dc:format>
    <dc:type rdf:resource="http://purl.org/dc/dcmitype/StillImage"/>
    <dc:title/>
   </cc:Work>
  </rdf:RDF>
 </metadata>
 <path d="m149.98 55.378c-8.8777 21.766-14.232 36.003-24.116 57.122 6.0602 6.4239 13.499 13.905 25.579 22.354-12.988-5.3443-21.847-10.71-28.467-16.278-12.65 26.396-32.468 63.996-72.687 136.26 31.61-18.249 56.114-29.5 78.95-33.793-0.9806-4.2175-1.5381-8.7796-1.5002-13.54l0.0375-1.0127c0.50156-20.252 11.037-35.826 23.516-34.768 12.48 1.0574 22.18 18.342 21.679 38.594-0.0943 3.8108-0.52416 7.4767-1.2752 10.877 22.588 4.4187 46.83 15.641 78.013 33.643-6.1486-11.32-11.637-21.524-16.878-31.243-8.2554-6.3985-16.866-14.726-34.431-23.741 12.073 3.137 20.717 6.7563 27.454 10.802-53.287-99.21-57.602-112.39-75.875-155.28z" fill="url(#linearGradient2132)" fill-rule="evenodd"/>
 <g transform="matrix(1.6018 0 0 1.6018 146.68 166.98)" fill="#fff" fill-rule="evenodd">
  <path d="m5.8187 60.689c-2.1361-0.0035-3.9089 0.43451-4.5943 0.67347l-0.70576 3.8102c-0.00171 0.01404 3.5124-0.93711 5.0602-0.88104 2.5627 0.09208 2.7986 0.97945 2.7538 2.1772 0.043685 0.07006-0.66119-1.0823-2.8784-1.1209-2.7971-0.04825-6.7447 0.99038-6.7393 5.2125-0.075408 4.7492 3.5476 6.1463 6.0151 6.1719 2.2183-0.04039 3.2589-0.8401 3.8286-1.2685 0.74856-0.78268 1.605-1.5697 2.4217-2.514-0.77284 1.4042-1.4428 2.375-2.1403 3.1182v0.62734l3.372-0.56737 0.02306-9.1656c-0.03416-1.2972 0.74414-6.2613-6.4164-6.2734zm-0.48434 7.9801c1.3977 0.01918 3.0006 0.70809 3.0029 2.3664 0.00723 1.5083-1.8894 2.3192-3.1229 2.3064-1.234-0.01281-2.8711-0.96977-2.8784-2.4402 0.02364-1.3144 1.5439-2.2664 2.9983-2.2326z"/>
  <path d="m14.459 61.536-0.02289 15.178 3.9282-0.75683 0.0066-8.6059c8.73e-4 -1.2814 1.8312-2.7787 4.1276-2.7548 0.48741-0.88183 1.4036-3.1355 1.6268-3.6482-5.1304-0.01229-5.1957 1.4746-6.088 2.206-0.0093-1.3953-0.0031-2.2329-0.0031-2.2329l-3.5751 0.61437z"/>
  <path d="m36.566 63.529c-0.03793-0.01781-2.0487-2.352-6.0913-2.3704-3.7865-0.06294-8.0338 1.4051-8.1017 7.7543 0.03315 5.5824 4.08 7.764 8.1232 7.8065 4.3269 0.04495 6.0485-2.7056 6.1518-2.7738-0.51628-0.44757-2.45-2.3637-2.45-2.3637s-1.2078 1.7198-3.5512 1.7417c-2.344 0.02232-4.3814-1.8116-4.4103-4.3706-0.03004-2.559 1.873-3.9453 4.4279-4.0573 2.2119-4.49e-4 3.488 1.4279 3.488 1.4279z"/>
  <path d="m41.517 56.224-3.7087 0.87182 0.02768 19.77 3.6533-0.65963 0.04151-9.304c0.0078-0.97559 1.4113-2.4738 3.7548-2.4263 2.2407 0.02329 2.7415 1.4935 2.7354 1.6791l0.06458 10.771 3.6026-0.63657 0.01384-11.421c0.02371-1.099-2.4073-3.42-6.3149-3.4365-1.8571 3e-3 -2.8855 0.42338-3.4089 0.73343-0.89548 0.69165-1.9189 1.3544-2.9245 2.2003 0.92966-1.1943 1.7101-2.0201 2.4725-2.6339l-0.0092-5.5077z"/>
 </g>
 <g transform="matrix(1.1604 0 0 1.1604 -26.538 -678.87)" fill="#fff" aria-label="user">
  <path d="m133.7 866.04-3.76 0.64v-3q-0.84 1.28-2.4 2.16-1.56 0.84-3.8 0.84-3.36 0-5.44-1.52-2.48-1.8-2.48-5.36v-14l3.84-0.64v14.12q0 2 1.2 3t3.28 1q2.28 0 3.76-1.24 1.96-1.64 1.96-4.92v-11.32l3.84-0.64z"/>
  <path d="m150.69 860.16q0 3.04-2.2 4.88-2 1.64-4.76 1.64-2.32 0-4-0.76t-3.16-2.64l2.64-2.24q1 1.16 1.96 1.72 1 0.52 2.28 0.52 1.36 0 2.36-0.68 1.04-0.68 1.04-1.84 0-2.4-5-3.76-4.96-1.4-4.96-5.4 0-2.76 1.84-4.6t4.72-1.84q2.2 0 3.8 0.76 1.32 0.64 2.76 2.08l-2.28 2.52q-1.08-1.08-1.92-1.52-0.8-0.44-2-0.44-1.48 0-2.28 0.6t-0.8 1.88q0 1.76 2.56 2.6 4.44 1.44 4.8 1.64 2.6 1.48 2.6 4.88z"/>
  <path d="m172.04 850.72-14.24 9.08q1.04 1.64 2.44 2.48 1.44 0.8 3.04 0.8 3.04 0 7.6-3.52l0.76 4.04q-2.12 1.44-3.52 2.08-2.24 1-4.52 1-4.84 0-7.8-3.16-2.96-3.2-2.96-8.12 0-4.2 3-7.2 3.04-3.04 7.16-3.04 3.04 0 5.2 1.4t3.84 4.16zm-5.28-0.64q-0.48-0.56-1.4-0.92-0.88-0.4-1.96-0.4-3.2 0-5.08 2.08-1.72 1.92-1.72 4.76l0.08 0.88z"/>
  <path d="m187.74 845.08-1.6 3.84q-3.28 0-4.96 2.4-1.44 2.04-1.44 5.08v9.64l-3.84 0.64v-20.88l3.6-0.64v4.36q0.96-2 2.36-3.12 1.64-1.32 3.92-1.32z"/>
 </g>
 <g transform="matrix(1.1736 0 0 1.1736 -228.97 -831.85)" fill="#fff" aria-label="gay arch ">
  <path d="m273.13 954.83q0 3.76-2.88 6-2.6 2-6.2 2-2.96 0-5.12-1.24-2.12-1.24-3.76-3.56l2.84-2.24q1.32 1.96 2.32 2.64 1.44 1 3.72 1 2.04 0 3.56-1.16 1.68-1.28 1.68-3.32 0-2.48-1.56-3.8-1.56-1.36-3.76-1.36-1.48 0-2.48 0.32-0.96 0.28-2.52 1.16l0.72-2.84q-2.28-0.76-3.36-2.52-1.04-1.8-1.04-4.08 0-3.08 2.08-5.04 1.72-1.64 4.32-2.08 0.72-0.12 2.44-0.2 1.76-0.08 3.04-0.16 1.48-0.2 2.64-0.48t3.28-1.08l-0.88 3.76-2.4 0.6q1.32 0.84 1.92 2.12 0.64 1.24 0.64 2.92 0 1.84-1.04 3.36-1.16 1.72-3.16 2.36 2.44 0.92 3.68 2.76 1.28 1.8 1.28 4.16zm-4.6-12.8q0-1.92-1.28-3.04-1.24-1.16-3.4-1.16-2.04 0-3.4 1.16-1.32 1.12-1.32 3.08 0 2 1.24 3.24t3.48 1.24q2.04 0 3.36-1.28t1.32-3.24z"/>
  <path d="m292.13 955.47-3.44 0.64v-2.8q-0.8 1.4-2.32 2.12-1.48 0.68-3.92 0.68-3.24 0-5.32-2.24-2.04-2.28-2.04-5.56 0-3.32 2.52-5.36 2.32-1.88 5.52-1.88 1.8 0 3.08 0.56t2.08 1.4v-1.56q0-2.04-1.12-2.64-1.08-0.64-3.84-0.64-1.8 0-3.12 0.28t-2.64 0.88l1.04-3.96q2-0.44 3.28-0.6 1.32-0.2 2.2-0.2 4.36 0 6.2 1.84t1.84 5.76zm-3.84-7.16q0-1.88-1.36-2.84-1.36-1-3.32-1-2.04 0-3.36 1t-1.32 2.8q0 1.92 1 3 1.16 1.24 3.4 1.24 2.48 0 3.72-1.12 1.24-1.16 1.24-3.08z"/>
  <path d="m312.53 935.23-12.84 26.8-3.44-0.96 5.16-10.12-7.88-15.72 3.36-0.64 6.36 12.44 5.92-12.44z"/>
 </g>
 <g transform="matrix(1.0497 0 0 1.0497 -1.0743 -92.268)" fill="#fff">
  <path d="m239.84 313.7v-5.2094h-1.946v-0.697h4.6816v0.697h-1.954v5.2094h-0.78162" fill="#fff"/>
  <path d="m243.39 313.7v-5.9064h1.1765l1.398 4.182c0.12892 0.38947 0.22293 0.6809 0.28202 0.87429 0.0671-0.21488 0.1719-0.53048 0.31426-0.94681l1.4142-4.1095h1.0516v5.9064h-0.75341v-4.9435l-1.7163 4.9435h-0.70506l-1.7083-5.0281v5.0281h-0.75342" fill="#fff"/>
 </g>
</svg>
